<?xml version="1.0" encoding="utf-8"?>
<svg xmlns="http://www.w3.org/2000/svg"
     xmlns:xlink="http://www.w3.org/1999/xlink" width="800" height="800" >

        <defs>
        <style type="text/css"><![CDATA[
circle {fill:none; stroke-width: 10px; stroke: #000;}
circle.centre-circ {fill:#000;}
line {stroke-width: 2px; stroke: #000;}
line.mn-hand {stroke-width: 20px; stroke: #000;}
line.hr-hand {stroke-width: 40px; stroke: #000;}
]]></style>
    </defs>
<line x1="400" y1="400" x2="400.0" y2="176.0" class="mn-hand"/>
<line x1="400" y1="400" x2="480.0" y2="261.4359353944898" class="hr-hand"/>
<circle cx="400" cy="400" r="320.0"/>
<text x="540.0" y="157.5128869403572">1</text>
<line x1="550.0" y1="140.1923788646684" x2="560.0" y2="122.87187078897966"/>
<line x1="582.2134282106667" y1="149.20473174376633" x2="588.0912807335915" y2="141.11456180001687"/>
<line x1="607.4304879712461" y1="169.62510410200778" x2="614.1217940348347" y2="162.19365584723386"/>
<line x1="630.3748958979922" y1="192.569512028754" x2="637.8063441527662" y2="185.8782059651654"/>
<line x1="650.7952682562337" y1="217.78657178933332" x2="658.8854381999831" y2="211.90871926640858"/>
<text x="642.4871130596429" y="260.0">2</text>
<line x1="659.8076211353316" y1="250.00000000000003" x2="677.1281292110205" y2="240.00000000000003"/>
<line x1="683.1990918692063" y1="273.91164064650195" x2="692.3345464456323" y2="269.84427421574395"/>
<line x1="694.8275200514976" y1="304.2047317437663" x2="704.3380852144492" y2="301.1145618000168"/>
<line x1="703.2257562274798" y1="335.5473758464946" x2="713.0072322348178" y2="333.46825893831704"/>
<line x1="708.3017875641647" y1="367.59617638702747" x2="718.2470065178475" y2="366.5508917543509"/>
<text x="680.0" y="400.0">3</text>
<line x1="700.0" y1="400.0" x2="720.0" y2="400.0"/>
<line x1="708.3017875641647" y1="432.40382361297253" x2="718.2470065178475" y2="433.4491082456491"/>
<line x1="703.2257562274797" y1="464.45262415350544" x2="713.0072322348178" y2="466.531741061683"/>
<line x1="694.8275200514976" y1="495.7952682562337" x2="704.3380852144492" y2="498.8854381999832"/>
<line x1="683.1990918692063" y1="526.088359353498" x2="692.3345464456323" y2="530.155725784256"/>
<text x="642.4871130596428" y="540.0">4</text>
<line x1="659.8076211353316" y1="550.0" x2="677.1281292110203" y2="560.0"/>
<line x1="650.7952682562337" y1="582.2134282106667" x2="658.8854381999831" y2="588.0912807335915"/>
<line x1="630.3748958979922" y1="607.4304879712461" x2="637.8063441527662" y2="614.1217940348346"/>
<line x1="607.4304879712461" y1="630.3748958979922" x2="614.1217940348347" y2="637.8063441527661"/>
<line x1="582.2134282106667" y1="650.7952682562337" x2="588.0912807335915" y2="658.8854381999831"/>
<text x="540.0" y="642.4871130596428">5</text>
<line x1="550.0" y1="659.8076211353316" x2="560.0" y2="677.1281292110203"/>
<line x1="526.088359353498" y1="683.1990918692063" x2="530.1557257842561" y2="692.3345464456322"/>
<line x1="495.7952682562338" y1="694.8275200514976" x2="498.88543819998324" y2="704.3380852144492"/>
<line x1="464.45262415350544" y1="703.2257562274797" x2="466.531741061683" y2="713.0072322348178"/>
<line x1="432.4038236129726" y1="708.3017875641647" x2="433.4491082456491" y2="718.2470065178475"/>
<text x="400.00000000000006" y="680.0">6</text>
<line x1="400.00000000000006" y1="700.0" x2="400.0000000000001" y2="720.0"/>
<line x1="367.59617638702747" y1="708.3017875641647" x2="366.5508917543509" y2="718.2470065178475"/>
<line x1="335.5473758464946" y1="703.2257562274798" x2="333.46825893831704" y2="713.0072322348178"/>
<line x1="304.2047317437664" y1="694.8275200514977" x2="301.11456180001693" y2="704.3380852144492"/>
<line x1="273.911640646502" y1="683.1990918692063" x2="269.844274215744" y2="692.3345464456323"/>
<text x="259.99999999999994" y="642.4871130596428">7</text>
<line x1="249.99999999999994" y1="659.8076211353316" x2="239.99999999999994" y2="677.1281292110203"/>
<line x1="217.78657178933335" y1="650.7952682562337" x2="211.90871926640864" y2="658.8854381999831"/>
<line x1="192.56951202875405" y1="630.3748958979922" x2="185.87820596516548" y2="637.8063441527662"/>
<line x1="169.62510410200775" y1="607.430487971246" x2="162.1936558472338" y2="614.1217940348346"/>
<line x1="149.20473174376633" y1="582.2134282106667" x2="141.11456180001687" y2="588.0912807335915"/>
<text x="157.51288694035722" y="540.0000000000001">8</text>
<line x1="140.19237886466846" y1="550.0000000000001" x2="122.87187078897966" y2="560.0000000000001"/>
<line x1="116.80090813079369" y1="526.088359353498" x2="107.66545355436767" y2="530.155725784256"/>
<line x1="105.17247994850243" y1="495.7952682562337" x2="95.66191478555089" y2="498.8854381999832"/>
<line x1="96.77424377252026" y1="464.4526241535055" x2="86.99276776518224" y2="466.5317410616831"/>
<line x1="91.69821243583527" y1="432.40382361297253" x2="81.75299348215253" y2="433.44910824564903"/>
<text x="120.0" y="400.00000000000006">9</text>
<line x1="100.0" y1="400.00000000000006" x2="80.0" y2="400.00000000000006"/>
<line x1="91.69821243583527" y1="367.5961763870275" x2="81.75299348215253" y2="366.550891754351"/>
<line x1="96.77424377252026" y1="335.54737584649456" x2="86.99276776518224" y2="333.4682589383169"/>
<line x1="105.17247994850237" y1="304.20473174376633" x2="95.66191478555083" y2="301.1145618000169"/>
<line x1="116.80090813079369" y1="273.91164064650206" x2="107.66545355436767" y2="269.84427421574406"/>
<text x="157.5128869403572" y="260.0">10</text>
<line x1="140.1923788646684" y1="249.99999999999997" x2="122.87187078897966" y2="239.99999999999997"/>
<line x1="149.20473174376625" y1="217.78657178933335" x2="141.11456180001676" y2="211.90871926640864"/>
<line x1="169.62510410200767" y1="192.56951202875405" x2="162.19365584723374" y2="185.87820596516548"/>
<line x1="192.569512028754" y1="169.62510410200775" x2="185.8782059651654" y2="162.1936558472338"/>
<line x1="217.7865717893333" y1="149.20473174376633" x2="211.90871926640855" y2="141.11456180001687"/>
<text x="259.9999999999999" y="157.51288694035725">11</text>
<line x1="249.99999999999986" y1="140.1923788646685" x2="239.99999999999986" y2="122.87187078897972"/>
<line x1="273.91164064650195" y1="116.80090813079369" x2="269.844274215744" y2="107.66545355436767"/>
<line x1="304.2047317437663" y1="105.17247994850243" x2="301.11456180001676" y2="95.66191478555089"/>
<line x1="335.54737584649445" y1="96.77424377252026" x2="333.46825893831686" y2="86.99276776518224"/>
<line x1="367.59617638702747" y1="91.69821243583527" x2="366.5508917543509" y2="81.75299348215253"/>
<text x="399.99999999999994" y="120.0">12</text>
<line x1="399.99999999999994" y1="100.0" x2="399.99999999999994" y2="80.0"/>
<line x1="432.4038236129724" y1="91.69821243583527" x2="433.449108245649" y2="81.75299348215253"/>
<line x1="464.45262415350544" y1="96.77424377252026" x2="466.531741061683" y2="86.99276776518224"/>
<line x1="495.7952682562336" y1="105.17247994850237" x2="498.8854381999831" y2="95.66191478555083"/>
<line x1="526.0883593534979" y1="116.80090813079369" x2="530.155725784256" y2="107.66545355436767"/>
<circle cx="400" cy="400" r="10" class="centre-circ"/>
</svg>
