<?xml version="1.0" encoding="UTF-8" standalone="no"?>
<!-- Uploaded to: SVG Repo, www.svgrepo.com, Generator: SVG Repo Mixer Tools -->

<svg
   fill="#ffffff"
   version="1.1"
   id="Capa_1"
   width="800px"
   height="800px"
   viewBox="0 0 532.158 532.157"
   xml:space="preserve"
   sodipodi:docname="arrow010.svg"
   inkscape:version="1.4.2 (2aeb623e1d, 2025-05-12)"
   xmlns:inkscape="http://www.inkscape.org/namespaces/inkscape"
   xmlns:sodipodi="http://sodipodi.sourceforge.net/DTD/sodipodi-0.dtd"
   xmlns="http://www.w3.org/2000/svg"
   xmlns:svg="http://www.w3.org/2000/svg"><defs
   id="defs3" /><sodipodi:namedview
   id="namedview3"
   pagecolor="#ffffff"
   bordercolor="#000000"
   borderopacity="0.25"
   inkscape:showpageshadow="2"
   inkscape:pageopacity="0.0"
   inkscape:pagecheckerboard="0"
   inkscape:deskcolor="#d1d1d1"
   inkscape:zoom="0.8575"
   inkscape:cx="400"
   inkscape:cy="400"
   inkscape:window-width="1210"
   inkscape:window-height="933"
   inkscape:window-x="0"
   inkscape:window-y="0"
   inkscape:window-maximized="1"
   inkscape:current-layer="Capa_1" />
<g
   id="g3"
   transform="rotate(10.6,266.07921,266.07893)">
	<g
   id="g2">
		<path
   d="M 355.349,266.078 230.464,461.539 c -13.648,21.364 -7.393,49.743 13.966,63.391 7.656,4.89 16.212,7.228 24.67,7.228 15.141,0 29.963,-7.491 38.721,-21.193 L 448.496,290.792 c 9.626,-15.067 9.626,-34.358 0,-49.425 L 307.821,21.192 C 294.173,-0.172 265.789,-6.421 244.43,7.227 223.065,20.874 216.816,49.259 230.464,70.618 Z"
   id="path1" />
		<path
   d="m 122.305,532.157 c 15.141,0 29.964,-7.491 38.721,-21.193 L 301.7,290.791 c 9.627,-15.067 9.627,-34.358 0,-49.425 L 161.026,21.192 C 147.373,-0.172 118.995,-6.421 97.636,7.227 76.271,20.874 70.022,49.259 83.67,70.618 L 208.555,266.078 83.67,461.539 c -13.648,21.364 -7.393,49.743 13.966,63.391 7.656,4.895 16.212,7.227 24.669,7.227 z"
   id="path2" />
	</g>
</g>
</svg>
