<svg width="500" height="500" xmlns="http://www.w3.org/2000/svg">
<path d="M197.72672015581367,369.0722944537133" fill="none" stroke-width="7" stroke="#58fdff"/>
<path d="M197.72672015581367,369.0722944537133 L166.81862387513314,344.1680798944974 L121.04911256929093,306.073739086759 L118.40505713592817,303.87538471200526 L117.2805737898213,300.86049871240675 L117.46292244084482,299.5414860875545 L118.22270848490466,298.3166886501758 L119.77267201558138,295.2389925255206 L122.35594456555754,291.5017900885508 L123.96669097962084,286.7282205891494 L124.87843423301089,280.8554739022594 L125.06078288317065,276.5529803404486 L123.45003646910735,268.16782865396766 L121.44420131303126,263.8967401543505 L118.31388280998452,259.43722128000945 L114.63651835645855,255.85704415534678 L106.49161196192594,249.23057596889197 L96.82713347927368,242.00741159473301 L83.21176756612829,231.26688022096812 L66.61804035926639,216.82055147287338 L59.96231461202391,211.0106149110402 L42.27449550161221,192.88989385080924 L33.49136883065671,183.31134978958949 L24.404327741040756,171.6600716035063 L6.929248723345864,146.69304691901044 L2.613663991669456,139.68971798243848 L0.0,134.44507254566946 L0.3343058594899769,131.52440173354444 L1.8234865059163388,129.45166760868102 L5.500850960306084,127.94422460888177 L17.83977631887816,126.18554110907877 L41.180403598062405,122.2913133595788 L43.88524191567551,121.41197160967732 L45.587162654818684,120.50122479735904 L46.74203744175507,119.18221217250681 L48.44395818089824,115.068148985643 L48.77826404038822,110.73425036119227 L47.19790906888199,73.55065636577217 L46.6508631166752,59.920859242522226 L47.04595185955176,58.75887192997709 L51.99975686851483,54.048112555632315 L56.528081692044275,51.25306199362075 L91.23510819302395,30.808366308522636 L98.92414296129343,27.196784121443216 L134.75565280837998,15.262860372939485 L148.27984439558173,11.274417435965972 L160.52759542907393,5.2446454367689626 L169.82737661054293,0.6281012498977248 L173.9910041328891,0.031405062416752116 L177.30367128609558,0.0 L180.37320690489196,1.4760379371592762 L184.41526866046496,5.370265686659252 L189.30829078517766,8.887632686265249 L195.9944079749772,12.750455373348473 L204.5040116698293,15.357075560412966 L215.53610503299853,16.45625274790143 L225.50449793344748,16.833113497795466 L233.95331874491302,17.869480560227146 L243.37466569401894,20.538910872348424 L251.7019207387113,23.773632309533866 L260.88013615340714,29.33232837136336 L267.07999027438643,33.85465737076112 L273.2494529536725,40.41831543238237 L279.023826890082,48.58363168127636 L282.27571115990185,56.90597324270061 L284.311937758535,63.34401105443152 L285.34524677869825,68.7456818037308 L293.73328470677717,106.14911123673778 L293.79406759016376,110.8284655486658 L292.8823243376375,116.4499717353288 L290.6333576462875,122.19709817210531 L287.989302212061,127.09628792162022 L283.2786287383718,132.560768795753 L278.9326525650021,136.8946674204269 L274.1611962070626,142.17071791961274 L271.7602723072461,146.00213554427916 L269.6632628252264,150.3360341687299 L268.0829078528564,155.26662898043844 L258.5703865786706,196.438665912832 L257.84099197630405,201.46347591223724 L257.4459032334275,207.43043778660063 L257.4459032334275,212.89491866073348 L258.02334062732757,222.81891840965358 L259.42134694867406,230.51315872118005 L262.00461949865024,239.3379812826118 L265.1957208850835,247.8801582813998 L269.32895696573644,255.22894290544903 L273.644541696549,262.043841467074 L280.81692195430503,271.214119715983 L285.61876975393784,276.9926512153994 L295.2224653540673,285.3149927768236" fill="none" stroke-width="7" stroke="#db4a25"/>
<path d="M98.92414296129343,27.196784121443216 L134.75565280837998,15.262860372939485 L148.27984439558173,11.274417435965972 L160.52759542907393,5.2446454367689626 L169.82737661054293,0.6281012498977248 L173.9910041328891,0.031405062416752116 L177.30367128609558,0.0 L180.37320690489196,1.4760379371592762 L184.41526866046496,5.370265686659252 L189.30829078517766,8.887632686265249 L195.9944079749772,12.750455373348473 L204.5040116698293,15.357075560412966 L215.53610503299853,16.45625274790143 L225.50449793344748,16.833113497795466 L233.95331874491302,17.869480560227146 L243.37466569401894,20.538910872348424 L251.7019207387113,23.773632309533866 L260.88013615340714,29.33232837136336 L267.07999027438643,33.85465737076112 L273.2494529536725,40.41831543238237 L279.023826890082,48.58363168127636 L282.27571115990185,56.90597324270061 L284.311937758535,63.34401105443152 L285.34524677869825,68.7456818037308 L293.73328470677717,106.14911123673778 L293.79406759016376,110.8284655486658 L292.8823243376375,116.4499717353288 L290.6333576462875,122.19709817210531 L287.989302212061,127.09628792162022 L283.2786287383718,132.560768795753 L278.9326525650021,136.8946674204269 L274.1611962070626,142.17071791961274 L271.7602723072461,146.00213554427916 L269.6632628252264,150.3360341687299 L268.0829078528564,155.26662898043844 L258.5703865786706,196.438665912832 L257.84099197630405,201.46347591223724 L257.4459032334275,207.43043778660063 L257.4459032334275,212.89491866073348 L258.02334062732757,222.81891840965358 L259.42134694867406,230.51315872118005 L262.00461949865024,239.3379812826118 L265.1957208850835,247.8801582813998 L269.32895696573644,255.22894290544903 L273.644541696549,262.043841467074 L280.81692195430503,271.214119715983 L285.61876975393784,276.9926512153994 L295.2224653540673,285.3149927768236" fill="none" stroke-width="7" stroke="#58fdff"/>
<path d="M285.61876975393784,276.9926512153994 L295.2224653540673,285.3149927768236 L326.98152200302377,308.3663086489862 L331.9961098953734,311.5382199608918 L336.7067833699264,313.64235914817203 L340.17140773159934,314.99277683566424 L346.8879163630922,316.65724514777054 L353.3309020176178,317.0969160227213 L361.17189399435375,316.8456755229407 L368.25309992702984,316.8142704603008 L375.12156576698914,316.594435022937 L380.9567225867852,316.751460335244 L385.9409190374416,317.756422335259 L390.9251154872341,319.7349412724258 L394.3289569655205,321.30519439728175 L400.37685387803333,325.70190314678916 L435.47896912275337,350.10363670622087 L448.54728908369196,359.0226744551261 L454.92949185483104,365.2722818916868 L459.6705567710773,369.7632058286678 L464.8371018718934,376.4524841404025 L470.06442985695986,386.3764838890995 L475.29175784116256,398.8128886376107 L489.1502552878543,437.94359650778074 L497.44711889171714,462.8164060045799 L499.0274738632234,469.72551975367844 L499.90882567492014,473.2114816908676 L500.0,475.3470259405646 L497.81181619290044,476.2891778155228 L491.3080476541244,478.3305068777463 L460.0656455139539,488.6313673763373 L427.8811086795638,499.0892531876817 L425.38901045466747,499.6545443125228 L421.37734014078774,500.0 L416.48431801607506,499.7173544375795 L411.4393386820321,498.02148106261006 L406.3335764646026,495.2264305005985 L403.32482373005655,492.96526600078806 L400.4376367614199,489.290873688875 L381.35181132966176,460.55524150499264 L369.80306345770657,445.29238113183 L368.25309992702984,443.2510520696065 L366.64235351296657,442.05765969464454 L365.03160709976703,441.5551786948602 L362.2659858987673,441.46096350716357 L360.320933625214,442.37171031970496 L339.59397033769926,461.52879844236764 L336.7067833699264,463.88417812942845 L333.60685630943675,465.3602160668109 L329.7167517623302,466.6164185666064 L326.25212740065723,467.2759248791441 L323.1522003401676,467.2445198165042 L319.4444444440845,466.6478236290232 L314.30829078496174,465.1717856918639 L310.50936056379885,462.97343131711017 L309.02017991737245,461.7800389421482 L197.72672015581367,369.0722944537133" fill="none" stroke-width="7" stroke="#fae44a"/>
</svg>