<?xml version="1.0" encoding="UTF-8" standalone="no"?>
<!-- Uploaded to: SVG Repo, www.svgrepo.com, Generator: SVG Repo Mixer Tools -->

<svg
   fill="#aaffff"
   version="1.1"
   id="Capa_1"
   width="800px"
   height="800px"
   viewBox="0 0 397.037 397.037"
   xml:space="preserve"
   sodipodi:docname="anticlockwise.svg"
   inkscape:version="1.4.2 (2aeb623e1d, 2025-05-12)"
   xmlns:inkscape="http://www.inkscape.org/namespaces/inkscape"
   xmlns:sodipodi="http://sodipodi.sourceforge.net/DTD/sodipodi-0.dtd"
   xmlns="http://www.w3.org/2000/svg"
   xmlns:svg="http://www.w3.org/2000/svg"><defs
   id="defs1" /><sodipodi:namedview
   id="namedview1"
   pagecolor="#ffffff"
   bordercolor="#000000"
   borderopacity="0.25"
   inkscape:showpageshadow="2"
   inkscape:pageopacity="0.0"
   inkscape:pagecheckerboard="0"
   inkscape:deskcolor="#d1d1d1"
   showgrid="false"
   inkscape:zoom="0.08"
   inkscape:cx="400"
   inkscape:cy="400"
   inkscape:window-width="1210"
   inkscape:window-height="933"
   inkscape:window-x="0"
   inkscape:window-y="0"
   inkscape:window-maximized="1"
   inkscape:current-layer="Capa_1" />
<g
   id="g1"
   transform="matrix(-1,0,0,1,397.038,0)">
	<path
   d="m 336.875,190.616 c -18.765,0 -34.035,15.264 -34.035,34.035 0,57.514 -46.783,104.315 -104.315,104.315 -57.517,0 -104.318,-46.802 -104.318,-104.315 0,-45.252 28.727,-84.358 70.283,-98.527 v 12.439 c 0,11.181 5.503,21.65 14.727,28.021 5.716,3.942 12.397,6.02 19.314,6.02 4.08,0 8.095,-0.718 11.926,-2.152 l 1.117,-0.478 2.18,-1.048 1.051,-0.553 87.958,-51.557 c 11.541,-5.72 18.963,-17.606 18.963,-30.52 0,-12.91 -7.422,-24.809 -18.963,-30.517 L 214.804,4.224 213.771,3.669 211.627,2.648 210.528,2.183 C 206.686,0.729 202.644,0 198.524,0 191.532,0 184.83,2.089 179.198,6.02 169.987,12.37 164.483,22.842 164.483,34.041 V 55.646 C 84.8,71.535 26.133,142.118 26.133,224.657 c 0,95.056 77.327,172.38 172.383,172.38 95.059,0 172.389,-77.324 172.389,-172.38 -10e-4,-18.777 -15.265,-34.041 -34.03,-34.041 z"
   id="path1" />
</g>
</svg>
