<?xml version="1.0" encoding="utf-8" ?>
<svg baseProfile="full" height="200px" version="1.1" width="1952.2660063970877px" xmlns="http://www.w3.org/2000/svg" xmlns:ev="http://www.w3.org/2001/xml-events" xmlns:xlink="http://www.w3.org/1999/xlink"><defs><linearGradient id="my-gradient" x1="0" x2="0" y1="0" y2="1"><stop offset="0.0" stop-color="#ffff7f" stop-opacity="1" /><stop offset="0.2" stop-color="#cccc66" stop-opacity="1" /><stop offset="1.0" stop-color="#000000" stop-opacity="1" /></linearGradient></defs><path d="M 0 3.0 L 5.829800452201174 3.5 L 5.829800452201174 3.5 L 15.869385431981076 5.0 L 30.980272559518703 6.0 L 31.852747911156687 6.0 L 32.74539999218265 6.0 L 33.12138513520858 6.0 L 33.51022728061551 6.0 L 34.45273490200149 6.0 L 35.668087933527225 6.0 L 37.07053727796446 5.0 L 38.747310588160026 4.0 L 39.96673723627795 3.5 L 42.37086547859649 4.0 L 43.6664586678431 5.0 L 45.12217141376747 5.0 L 46.445363937882036 5.5 L 49.10376692609231 6.0 L 52.1329514907827 5.5 L 56.51007784773835 4.0 L 62.11854208637898 4.5 L 64.37130702269616 4.0 L 70.93331751920911 2.0 L 74.32193395192252 2.5 L 78.2338983257882 3.5 L 86.37815638141424 3.0 L 88.59856424365911 2.5 L 90.20227597107821 3.5 L 91.03316843604274 3.5 L 91.71374573650995 4.0 L 92.66497733575689 4.0 L 95.5602659300531 4.5 L 101.0670067307308 7.5 L 101.74001251430448 7.5 L 102.21044851199804 7.5 L 102.66963184197144 7.0 L 103.89956750576756 6.5 L 105.12959091766527 6.5 L 115.66832196622346 3.5 L 119.53108546858601 4.5 L 119.87265825673353 4.5 L 121.6309832967416 3.5 L 122.9434149936786 3.5 L 132.83788229650398 0.0 L 134.8886343677289 0.5 L 143.83460728997602 3.5 L 147.1587115785641 3.0 L 150.46517575048279 2.5 L 152.98138802978778 3.0 L 153.9585802654538 3.0 L 154.72438853285934 3.0 L 155.54795950083806 3.5 L 156.99356091722328 4.0 L 158.50085808323263 4.5 L 160.3945133646956 3.5 L 162.49558464194706 3.0 L 165.06468302239335 3.0 L 167.37143281606083 4.0 L 169.34638748874897 5.5 L 171.65173676495763 5.5 L 173.78358852116565 6.0 L 176.4256262497832 6.5 L 178.3478037685307 6.5 L 180.69095321497545 5.5 L 183.36133647873388 3.5 L 185.8356177529642 3.5 L 187.7189807577617 5.5 L 189.26755634552683 7.5 L 200.03817999165048 2.5 L 201.36369981157318 1.5 L 202.969899459505 1.0 L 204.67878324522312 1.0 L 206.19512005809167 3.0 L 208.08758102731503 6.0 L 209.67381023561032 9.0 L 211.53117765392932 9.5 L 212.75010434221733 6.5 L 214.06992778486594 4.0 L 215.5135196844587 4.0 L 227.38112290150073 3.5 L 228.81437021114667 4.0 L 230.50700069097087 4.0 L 232.05483620777392 4.0 L 234.8690146082447 3.5 L 237.0722624867668 5.5 L 239.6422513007399 5.0 L 242.17177876729156 1.5 L 244.462107964859 1.5 L 246.63494111345008 3.5 L 249.71638906410294 6.0 L 251.69398502984984 6.5 L 254.9319161753497 5.5 L 262.4146412655456 2.5 L 264.75614613211553 3.0 L 266.22262004245846 3.5 L 267.4638490051348 4.0 L 268.3512915813322 4.0 L 269.97368389391687 4.0 L 271.46804012831774 3.5 L 273.2817136243831 2.5 L 274.91840646039617 2.5 L 276.50712568358927 2.5 L 277.8565301712491 2.0 L 279.0431688514696 1.0 L 280.3242437275539 1.0 L 281.2279934447475 1.5 L 283.10014009295475 3.0 L 293.7582527120697 3.5 L 297.69593550553316 3.0 L 300.0001838912378 2.5 L 301.67913632887144 2.5 L 303.918784195602 3.5 L 306.9784271420324 3.5 L 310.70250406983706 3.0 L 322.23993524862675 5.0 L 329.54154218801085 5.0 L 331.53236642827073 5.0 L 332.54056952309276 5.0 L 333.14583765896447 5.5 L 333.71764906193033 5.5 L 335.32812980757996 4.5 L 343.11586379744443 3.0 L 351.1222114857382 5.5 L 351.7200046086201 5.5 L 352.6522921749718 5.5 L 353.7859502786407 5.5 L 355.0469739327747 4.0 L 356.46795698048396 3.0 L 357.41333434744627 2.0 L 358.649648496028 1.5 L 367.9075021721002 5.0 L 372.98831405459737 5.0 L 373.6685009723569 5.0 L 374.1713435945598 5.5 L 374.5698937288332 5.5 L 375.20963012018217 5.5 L 375.7279249871285 5.5 L 382.96615992662714 4.5 L 383.9097512897632 4.5 L 384.7392586592253 5.0 L 385.70616762600537 5.0 L 386.5283915634487 5.0 L 387.24488180202104 5.0 L 388.11830367193613 5.0 L 389.37681655947756 5.5 L 390.45320127941756 5.5 L 390.45320127941756 100 L 0.0 100 L 0.0 6.0" fill="url(#my-gradient)" stroke="black" stroke-width="3" /><circle cx="132.83788229650398" cy="0" fill="red" r="10" stroke="black" stroke-width="3" /><circle cx="211.53117765392932" cy="60" fill="green" r="10" stroke="black" stroke-width="3" /><text fill="#ff0000" font-family="Arial" font-size="50px" font-weight="bold" stroke="none" x="132.83788229650398" y="60">17.0</text><text fill="#00ff00" font-family="Arial" font-size="50px" font-weight="bold" stroke="none" x="211.53117765392932" y="120">19.0</text></svg>