<svg width="500" height="500" xmlns="http://www.w3.org/2000/svg">
<path d="M16.093229744846727,237.01268635982433 L21.8892588481382,96.67561811279302 L27.376988531372753,4.768960089028155 L29.966703662742507,0.6482081674311644 L35.39277346161518,0.0 L41.25046244926853,1.0649134180166016 L45.62831421880855,3.2410408371557082 L73.74522135901891,22.45578294291505 L81.39104698484253,24.40040744520843 L89.77679121950376,23.983702194787497 L138.6730792945959,13.288267432173768 L150.38845726990263,12.408556347896933 L160.9939573315148,12.871562181752836 L481.7486743125642,54.773590147272955 L492.7241336785952,56.94971756657651 L498.58182266624857,61.07046948800905 L500.0,66.34873599416352 L498.8901220867436,71.34919900003734 L495.2521889260412,76.99787017317777 L488.34628190905516,82.69284192991768 L480.33049697881273,87.27659968520607 L469.35503761278176,92.97157144178146 L430.694290294883,112.37151588111612 L399.6177087188841,134.1790906566 L391.97188309306046,139.2258542457443 L385.80589468491206,146.40244467092168 L371.93242076701625,167.60811186224493 L367.18460969305744,172.1918696175333 L359.84708348772887,175.43291045468897 L352.57121716632406,178.07204370784848 L340.9174990753792,178.95175479212526 L305.833025033821,175.01620520426803 L296.3374028859033,175.2477081211137 L286.5334813170525,176.54412445597598 L278.4560365028864,179.36846004271075 L268.6521149340355,185.48013704970708 L197.43494882246262,246.36540420414084 L190.52904180547662,250.5324567090083 L180.66346035270206,251.59737012686037 L174.49747194499176,248.3563292897047 L172.27771611804081,241.78164644868798 L172.64767542245963,231.78072043710483 L189.789123196639,162.79285118994636 L199.6547046494136,119.59440688956397 L201.13454186708879,111.07509954625385 L199.28474534455665,103.20400037053935 L196.75669009754878,97.32382628022418 L191.63891971873304,91.44365219007352 L162.41213466526625,74.40503750345323 L158.40424220014503,73.10862116875546 L154.02639043060503,73.94203166959738 L151.49833518315904,76.99787017317777 L140.89283512154685,130.2898416520132 L137.99482056968205,165.84868969352675 L132.87705019130445,229.78979535137648 L129.23911703060202,296.60153717939585 L125.53952398597586,357.4868043336651 L127.01936120365107,367.4877303454128 L132.87705019130445,373.41420501899836 L142.00271303480326,376.655245856154 L154.76630903944263,378.4146680248722 L167.8998643485008,377.7664598574411 L184.30139351340446,375.59033243813747 L201.13454186708879,370.1268635984078 L215.3163152054796,363.3669784239803 L229.1897891233754,353.7827576628181 L237.63719324196038,344.3837392350666 L253.29880379846455,316.8811927030073 L262.0545073375446,305.3060468562812 L270.44025157264394,298.5461616816892 L281.4157109386749,292.4344846745284 L294.54926624729495,286.97101583479866 L312.8005919351689,283.9151773312183 L332.84005426077493,283.6836744143726 L347.0834874830895,285.9061024169466 L366.074731779801,292.01777942410746 L374.27549636225285,294.7495138438078 L416.0808977681496,308.77859061028255 L426.31643852534296,313.8253541994269 L435.072142064423,319.705528289742 L439.44999383396305,325.16899712930723 L444.8760636332738,331.28067413646806 L444.8760636332738,336.7441429761978 L440.4982118637338,342.3928141495028 L431.74250832421563,348.0877859060781 L419.718830928852,354.199462913239 L40.880503144849726,497.36086674684054 L33.97459612786372,499.7684970829898 L22.999136761832737,500.0 L18.251325687435795,496.94416149641955 L1.479837218113339,472.91415871836165 L0.0,463.32993795719943 L0.3699593044188048,445.2264098527271 L5.117770378815746,345.911658486939 L7.892465162394902,318.3628113714448 L16.093229744846727,237.01268635982433" fill="#DB4035" stroke="none"/>
<circle r="25" cx="-6.412627944281563" cy="316.74229095286694" fill="red"/> 
</svg>