<svg width="500" height="500" xmlns="http://www.w3.org/2000/svg">
<path d="M459.97856730690694,128.06277296632783 L422.7804797625067,149.3448811903936 L365.9426263291538,182.4709452958021 L343.7268155963272,196.2765563697605 L288.9704063967719,228.36627433554492 L266.5279037176785,242.69005847957828 L241.2826642485906,257.1618920720167 L233.34844612969255,262.38063513217253 L224.81658560708016,268.6727366939879 L217.2533179456297,275.4830113258783 L161.26040722110272,334.96187726710343 L157.83941966854917,339.1442741876352 L154.91303272607217,345.10326449034204 L153.44983925468722,351.35835369012193 L150.02885170213366,383.30002220750134 L148.44200807841264,389.22200014817275 L145.26832083082414,395.3290398992846 L106.35973951022025,443.85224665038606 L102.71206001154634,450.2923976608695 L99.53837276395785,458.32408024282444 L85.87503091244189,492.85661410926406 L83.7935866786443,496.00266489017173 L80.61989943120223,498.9636538603759 L76.10666886485775,500.0 L72.21168906107235,499.14871567107946" fill="none" stroke-width="7" stroke="#58fdff"/>
<path d="M459.97856730690694,128.06277296632783 L422.7804797625067,149.3448811903936 L365.9426263291538,182.4709452958021 L343.7268155963272,196.2765563697605 L288.9704063967719,228.36627433554492 L266.5279037176785,242.69005847957828 L241.2826642485906,257.1618920720167 L233.34844612969255,262.38063513217253 L224.81658560708016,268.6727366939879 L217.2533179456297,275.4830113258783 L161.26040722110272,334.96187726710343 L157.83941966854917,339.1442741876352 L154.91303272607217,345.10326449034204 L153.44983925468722,351.35835369012193 L150.02885170213366,383.30002220750134 L148.44200807841264,389.22200014817275 L145.26832083082414,395.3290398992846 L106.35973951022025,443.85224665038606 L102.71206001154634,450.2923976608695 L99.53837276395785,458.32408024282444 L85.87503091244189,492.85661410926406 L83.7935866786443,496.00266489017173 L80.61989943120223,498.9636538603759 L76.10666886485775,500.0 L72.21168906107235,499.14871567107946" fill="none" stroke-width="7" stroke="#fae44a"/>
<path d="M165.27903717737067,322.59974831594866 L215.0482235593496,269.8941446443155 L223.33278377699693,259.93781923178034 L225.16692770582947,257.4950033311252 L225.290577858312,254.34895255021752 L221.64289835949165,243.39329336009382 L221.14829774956152,239.87711895777915 L222.48784106831752,237.43430305738696 L244.33270134355013,218.26189947434182 L260.5514796800955,206.04781997185506 L289.217706701737,187.5416389075529 L291.7731431867664,183.54430379746168 L291.64949303428386,178.99178325552293 L275.18341439277344,120.54926345392187 L275.18341439277344,114.10911244370146 L278.4807517928445,109.37153009105918 L328.8475805786842,77.79998519508672 L387.27227763575803,41.86098156787904 L430.0964471188456,19.17240358278218 L465.1100486356641,0.0 L467.29453466324594,0.5181730698120077 L469.00502843944946,2.0726922792481446 L479.3710328908944,34.34747205573609 L491.9421317286195,67.69561033388362 L499.38174923744094,94.04841216970021 L500.0,98.37885853889998 L499.7526996948885,101.37685987113969 L498.51619816991683,104.48589829001185 L496.5790124474465,106.5956029312955 L459.97856730690694,128.06277296632783" fill="none" stroke-width="7" stroke="#db4a25"/>
</svg>