<svg width="500" height="500" xmlns="http://www.w3.org/2000/svg">
<path d="M65.26667216218098,495.66955363106325 L52.5719231719734,487.9709823082168 L7.31596735633896,455.5111407210253 L4.636880718827007,451.1806943520885 L3.5446377050360893,446.8132356208532 L0.0,377.1929824561265 L0.7419009148951762,370.3827078244991 L11.581897617571947,319.97187060485305 L14.755584865160449,311.051891331679 L18.17657241771401,304.7968021318991 L22.56615283157596,299.9111703308518 L44.637705053075365,281.7751128876937 L78.06446294617281,259.41964616196833 L99.04377215388129,249.4633207491702 L101.97015909650474,249.6483825598737 L103.92795317781979,251.38796357975033 L105.26749649657577,253.68273003200045 L108.07023328657026,266.22992079359574 L109.6570769102913,269.56103338520694 L112.83076415787978,271.30061440534655 L115.75715110050324,270.9304907839395 L118.80718819546277,270.7824413355345 L121.73357513808621,271.81878747515856 L126.49410600939575,275.81612258498683 L129.66779325683783,275.81612258498683 L132.09957958938472,276.51935746550237 L133.68642321325217,278.777111555191 L146.8551644546916,331.81582648619576 L149.7815513971686,336.18328521743103 L153.3261891022047,336.36834702787155 L156.87082680724077,333.0372344362603" fill="none" stroke-width="7" stroke="#fae44a"/>
</svg>