<svg xmlns="http://www.w3.org/2000/svg" viewBox="0 0 36 36"><path fill="#E0E7EC" d="M36 32c0 2.209-1.791 4-4 4H4c-2.209 0-4-1.791-4-4V9c0-2.209 1.791-4 4-4h28c2.209 0 4 1.791 4 4v23z"/><path fill="#DD2F45" d="M34 0h-3.277c.172.295.277.634.277 1 0 1.104-.896 2-2 2s-2-.896-2-2c0-.366.105-.705.277-1H8.723C8.895.295 9 .634 9 1c0 1.104-.896 2-2 2s-2-.896-2-2c0-.366.105-.705.277-1H2C.896 0 0 .896 0 2v11h36V2c0-1.104-.896-2-2-2z"/><g fill="#F3AAB9"><circle cx="33" cy="10" r="1"/><circle cx="33" cy="7" r="1"/><circle cx="30" cy="10" r="1"/><circle cx="30" cy="7" r="1"/><circle cx="27" cy="10" r="1"/><circle cx="27" cy="7" r="1"/></g>></svg>
