<svg width="500" height="500" xmlns="http://www.w3.org/2000/svg">
<path d="M68.0970957954127,327.8750591573652 L84.74208929345909,306.19971604322143 L88.64325964457063,303.2181732132516 L94.06155179887082,300.6152389966807 L104.16124837451642,298.5802176997038 L110.57650628521478,299.19545669651893 L115.77806675336991,300.47326076636193 L121.75986129172041,303.2181732132516 L128.52188990030476,307.6668244202682 L132.85652362376416,311.6895409370008 L138.05808409190004,320.20823473729877 L139.9219765929747,326.64458116407104 L140.44213263980367,336.63038334107944 L140.00866926745582,342.5934690013553 L138.1881231036025,349.3137718880926 L134.67706978759824,355.8920965451837 L128.17511920243803,366.06720302872344 L81.14434330299298,426.1239943207568 L79.84395318596863,430.19403691403824 L79.75726051148752,433.74349266427447 L80.92761161682867,438.0028395644234 L83.09492847854875,440.93705631784445 L85.47897702645238,443.39801230476905 L89.20676202862093,445.52768575484356 L93.84482011270651,446.85281590157155 L97.48591244039393,447.37340274461667 L103.42436064152312,446.4268812112876 L106.1551798872935,445.52768575484356 L176.85305591677414,419.4036914336832 L186.6493281317743,414.43445338362153 L196.4022540095339,408.3293894933631 L206.19852622453405,400.75721722639423 L213.13394018206142,393.8949361096744 L241.26571304723961,357.8324656883906 L244.2999566536554,352.43729294838124 L245.60034677069902,348.6985328916137 L244.42999566535786,342.7827733078866 L240.832249674911,337.48225272097477 L235.28391850888912,333.2702318977108 L222.45340268747316,327.07051585401865 L215.4746423927245,322.4325603404708 L211.6168183788535,318.88310459057084 L207.80234070220385,314.3398012304567 L205.67837017772433,311.2636062470532 L187.99306458603922,276.8102224324624 L167.9237104464697,238.00283956428893 L166.31989596879993,231.32986275410036 L166.31989596879993,224.51490771392923 L167.1434763762551,219.26171320390245 L168.44386649327944,214.1978230004069 L172.38838318163155,208.32938949356492 L175.42262678804735,204.35399905338102 L181.9245773732076,198.53289162308772 L188.38318162114652,194.41552295292132" fill="none" stroke-width="7" stroke="#58fdff"/>
</svg>