<svg width="500" height="500" xmlns="http://www.w3.org/2000/svg">
<path d="M393.88816644992784,223.2844297206351 L329.12873862157636,307.2882158068693 L293.3246640658775,354.37766209158815 L256.09016038145194,402.4136299099723 L217.12180320763483,453.5731187883089 L203.81447767663042,470.8471367723211 L199.56653662765214,474.7278750590712 L195.75205895102172,477.47278750562464 L192.45773732120105,478.7032654992551 L186.56263545731244,479.31850449573403 L181.18768964023354,479.034548035769 L177.19982661466014,478.18267865587364 L173.34200260078916,476.4789398957468 L159.90463805808233,469.47468054870814 L155.65669700910405,467.9129200189001 L148.02774165582395,466.5404637952871 L141.87256176853046,466.5404637952871 L133.07325530992847,468.1022243254314 L128.0884265279569,470.65783246545357 L90.8105765062907,493.42167534290894 L85.60901603815482,495.55134879298345 L80.23407022107594,497.1604353996765 L73.03857824014372,499.14813061976844 L66.2332032943188,500.0 L60.29475509318962,500.0 L53.8361508452507,499.71604353969866 L46.64065886433773,498.9588263132371 L39.66189856956982,497.11310932312773 L31.25270914607513,493.70563180287405 L26.918075422634974,491.1026975863032 L22.930212397061563,488.26313298597967 L19.332466406595454,485.61287269286 L9.796272215000162,475.3904401324352 L5.114867793674013,467.4869853286162 L1.7338534893914619,458.6843350683531 L0.8669267446957309,452.48461902499724 L0.0,445.10175106455966 L0.21673168618355756,437.2929484145107 L1.6471608149103392,429.0108849976291 L5.678370177724314,415.85423568378326 L10.099696575645591,405.25319450995954 L14.867793671433613,396.9238050165292 L19.982661465107626,390.3454803594381 L84.74208929345909,306.19971604322143 L88.64325964457063,303.2181732132516 L94.06155179887082,300.6152389966807 L104.16124837451642,298.5802176997038 L110.57650628521478,299.19545669651893 L115.77806675336991,300.47326076636193 L121.75986129172041,303.2181732132516 L128.52188990030476,307.6668244202682 L132.85652362376416,311.6895409370008 L138.05808409190004,320.20823473729877 L139.9219765929747,326.64458116407104 L140.44213263980367,336.63038334107944 L140.00866926745582,342.5934690013553 L138.1881231036025,349.3137718880926 L134.67706978759824,355.8920965451837 L128.17511920243803,366.06720302872344 L81.14434330299298,426.1239943207568 L79.84395318596863,430.19403691403824 L79.75726051148752,433.74349266427447 L80.92761161682867,438.0028395644234 L83.09492847854875,440.93705631784445 L85.47897702645238,443.39801230476905 L89.20676202862093,445.52768575484356 L93.84482011270651,446.85281590157155 L97.48591244039393,447.37340274461667 L103.42436064152312,446.4268812112876 L106.1551798872935,445.52768575484356 L176.85305591677414,419.4036914336832 L186.6493281317743,414.43445338362153 L196.4022540095339,408.3293894933631 L206.19852622453405,400.75721722639423 L213.13394018206142,393.8949361096744 L241.26571304723961,357.8324656883906 L244.2999566536554,352.43729294838124 L245.60034677069902,348.6985328916137 L244.42999566535786,342.7827733078866 L240.832249674911,337.48225272097477 L235.28391850888912,333.2702318977108 L222.45340268747316,327.07051585401865 L215.4746423927245,322.4325603404708 L211.6168183788535,318.88310459057084 L207.80234070220385,314.3398012304567 L205.67837017772433,311.2636062470532 L187.99306458603922,276.8102224324624 L167.9237104464697,238.00283956428893 L166.31989596879993,231.32986275410036 L166.31989596879993,224.51490771392923 L167.1434763762551,219.26171320390245 L168.44386649327944,214.1978230004069 L172.38838318163155,208.32938949356492 L175.42262678804735,204.35399905338102 L181.9245773732076,198.53289162308772 L188.38318162114652,194.41552295292132 L413.35067186822573,100.14197822971352 L421.2397052449107,96.49787032637977 L425.3576072821865,92.90108849959478 L427.35153879496363,89.44628490279234 L427.8716948417734,85.28159015607713 L426.2678803641036,80.64363464252926 L423.62375379279507,76.95220066231047 L419.80927611616465,73.92333175579193 L414.2609449501428,70.4685281589895 L405.2882531425978,67.25035494526713 L399.73992197659516,66.1618551819555 L392.0676202860745,65.30998580206017 L385.47897702643314,65.07335541864387 L378.84698742955123,65.40463795549397 L371.6081491113977,66.91907240875327 L361.55179887299266,70.89446284893711 L354.6597312527059,74.159962138872 L345.03684438664874,81.06956933247693 L335.5006501950534,86.65404637935387 L328.9120069354121,89.06767628939343 L318.7256176853046,89.68291528620864 L312.657130472473,88.59441552289707 L305.4182921543195,85.56554661604224 L299.60988296489273,81.59015617585834 L296.0121369744266,76.95220066231047 L293.10793237971325,71.74633222883244 L292.1976592977962,66.01987695197295 L291.93758127437206,63.322290581968275 L293.9315127871684,55.75011831499938 L297.485912440394,50.35494557498998 L303.0342436064158,45.95362044485847 L356.6536627655022,9.89115002357471 L361.9419159081,6.247042119904677 L368.61725184222246,3.0288689065185395 L374.68573905505406,1.2778040698429436 L383.1382748157701,0.18930430653131225 L391.4607715648029,0.0 L399.0897269180637,1.2778040698429436 L405.33159947983836,3.4548035964662063 L417.9887299523113,10.033128253557265 L432.1196358907709,17.4633222905436 L444.343302990896,24.37292948414847 L452.23233636758096,28.111689540916018 L478.8903337667918,41.930903927789586 L485.30559167749016,45.622337908008376 L489.3801473775447,49.12446758135957 L493.0645860424727,53.19451017497721 L496.05548331164795,57.87979176507383 L498.5262245340134,64.1268338853148 L499.91330732551893,69.94794131560803 L500.0,78.32465688592345 L498.5262245340134,85.84950307600735 L491.1140008669169,97.82300047310775 L393.88816644992784,223.2844297206351 Z" fill="none" stroke-width="3" stroke="black"/>
</svg>