<svg width="500" height="500" xmlns="http://www.w3.org/2000/svg">
<path d="M42.598278770017956,403.5806225136472 L1.9461142584952027,470.9220688043522 L0.5189638022705089,475.6611280130164 L0.0,481.2777907795952 L0.6270812610736639,487.30400187225837 L2.4650780608041223,494.5003510415866 L4.843662154550357,498.42031359725047 L7.546598624744467,500.0 L11.698309042908537,499.88298619266607 L92.02958093672565,479.69810437642997 L101.17631795181059,478.4694593965137 L114.69100030270431,479.93213199151353 L124.48644207064659,482.68195647092807 L137.82813648746296,487.59653639142465 L151.51580677247247,492.4526094078385 L158.60831207022065,495.1439269835861 L163.08437486483257,493.38871986900426 L166.47926307137456,490.1123332553399 L170.86883189896704,481.86285981751195 L175.28002421830476,466.41703721035583 L182.04817713964349,433.7116779782104 L183.62669203820028,419.37748654363656 L184.1240323487255,403.1125672830643 L182.80499935126556,386.5551135033258 L173.00955758332327,296.80552305163565 L173.1392985339101,291.18886028547263 L174.52320200664428,284.75310086589354 L180.23180383165828,267.37655043315465 L187.69190848934485,244.90989936808683 L189.87588115726845,242.7451439270048 L192.7734290533236,242.16007488867228 L194.78441378713146,243.85677509958714 L205.83401807722106,252.4572899602483 L209.22890628376302,253.33489351733135" fill="none" stroke-width="7" stroke="#fae44a"/>
<path d="M205.83401807722106,252.4572899602483 L209.22890628376302,253.33489351733135 L325.0659516498499,251.87222092191575 L326.5579725813873,253.10086590224776 L328.0067465293956,259.77065293691044 L329.0879211174656,265.62134331857277 L330.3420836396513,267.08401591398837 L332.78553820867177,267.2010297213223 L379.03818708644377,230.34168031842944 L384.87652986200624,224.02293470618423 L404.1430610214813,198.27989702786778 L415.17104181982563,178.85560496138078 L425.85304674997684,158.08565410722787 L451.93097781428116,108.58881347984459 L457.20710980408256,101.33395740684938 L462.93733512084185,95.89281535210296 L497.05920512041587,66.58085654095589 L499.63240064002315,61.72478352454198 L500.0,54.060379124630856 L499.30804826361367,47.97566112788496 L489.0152661851462,5.850690381246579 L486.6150585996547,1.8722209219157548 L483.9769926047348,0.2925345187505286 L480.2793755135286,0.0 L477.31695714223764,1.4626725954155972 L431.4535311161877,35.1626491923937 L415.17104181982563,47.33208518588549 L406.30541019762126,53.53381699038101 L398.5858236387994,56.92721741137933 L393.37456212427225,58.74093142962812" fill="none" stroke-width="7" stroke="#58fdff"/>
<path d="M398.5858236387994,56.92721741137933 L393.37456212427225,58.74093142962812 L317.195000648696,58.38989000679493" fill="none" stroke-width="7" stroke="#db4a25"/>
</svg>