<?xml version="1.0" encoding="UTF-8" standalone="no"?>
<!-- Created with Inkscape (http://www.inkscape.org/) -->
<svg
   xmlns:svg="http://www.w3.org/2000/svg"
   xmlns="http://www.w3.org/2000/svg"
   version="1.0"
   width="349.5pt"
   height="152pt"
   id="svg2">
  <defs
     id="defs4" />
  <g
     id="layer1">
    <rect
       width="80"
       height="182.42509"
       x="3.8398483"
       y="3.7137527"
       style="opacity:1;fill:#000000;fill-opacity:1;fill-rule:evenodd;stroke:#000000;stroke-width:7.37591696;stroke-miterlimit:4;stroke-dasharray:none;stroke-opacity:1"
       id="rect1307" />
    <path
       d="M 200.03518,113.36009 A 67.243507,71.764084 0 1 1 200.03532,113.21332"
       transform="matrix(0.620281,0,0,0.620281,-38.42702,72.12159)"
       style="opacity:1;fill:#ff0000;fill-opacity:1;fill-rule:evenodd;stroke:#000000;stroke-width:8.10000038;stroke-miterlimit:4;stroke-dasharray:none;stroke-opacity:1"
       id="path2182" />
    <path
       d="M 200.03518,113.36009 A 67.243507,71.764084 0 1 1 200.03532,113.21332"
       transform="matrix(0.620281,0,0,0.620281,-38.47894,-23.34478)"
       style="opacity:1;fill:#ff7c00;fill-opacity:1;fill-rule:evenodd;stroke:#000000;stroke-width:8.10000038;stroke-miterlimit:4;stroke-dasharray:none;stroke-opacity:1"
       id="path3057" />
    <rect
       width="80"
       height="182.42509"
       x="91.135284"
       y="3.6077271"
       style="opacity:1;fill:#000000;fill-opacity:1;fill-rule:evenodd;stroke:#000000;stroke-width:7.37591696;stroke-miterlimit:4;stroke-dasharray:none;stroke-opacity:1"
       id="rect3059" />
    <path
       d="M 200.03518,113.36009 A 67.243507,71.764084 0 1 1 200.03532,113.21332"
       transform="matrix(0.620281,0,0,0.620281,49.01089,72.15799)"
       style="opacity:1;fill:#ff0000;fill-opacity:1;fill-rule:evenodd;stroke:#000000;stroke-width:8.10000038;stroke-miterlimit:4;stroke-dasharray:none;stroke-opacity:1"
       id="path3061" />
    <path
       d="M 200.03518,113.36009 A 67.243507,71.764084 0 1 1 200.03532,113.21332"
       transform="matrix(0.620281,0,0,0.620281,48.95899,-23.30833)"
       style="opacity:1;fill:#00ad2e;fill-opacity:1;fill-rule:evenodd;stroke:#000000;stroke-width:8.10000038;stroke-miterlimit:4;stroke-dasharray:none;stroke-opacity:1"
       id="path3063" />
    <rect
       width="80"
       height="182.42509"
       x="178.28746"
       y="3.6164036"
       style="opacity:1;fill:#000000;fill-opacity:1;fill-rule:evenodd;stroke:#000000;stroke-width:7.37591696;stroke-miterlimit:4;stroke-dasharray:none;stroke-opacity:1"
       id="rect3065" />
    <path
       d="M 200.03518,113.36009 A 67.243507,71.764084 0 1 1 200.03532,113.21332"
       transform="matrix(0.620281,0,0,0.620281,136.0206,72.02425)"
       style="opacity:1;fill:#ff0000;fill-opacity:1;fill-rule:evenodd;stroke:#000000;stroke-width:8.10000038;stroke-miterlimit:4;stroke-dasharray:none;stroke-opacity:1"
       id="path3067" />
    <path
       d="M 200.03518,113.36009 A 67.243507,71.764084 0 1 1 200.03532,113.21332"
       transform="matrix(0.620281,0,0,0.620281,135.9687,-23.44213)"
       style="opacity:1;fill:#ff7c00;fill-opacity:1;fill-rule:evenodd;stroke:#000000;stroke-width:8.10000038;stroke-miterlimit:4;stroke-dasharray:none;stroke-opacity:1"
       id="path3069" />
    <rect
       width="80"
       height="182.42509"
       x="265.5896"
       y="3.6131897"
       style="opacity:1;fill:#000000;fill-opacity:1;fill-rule:evenodd;stroke:#000000;stroke-width:7.37591696;stroke-miterlimit:4;stroke-dasharray:none;stroke-opacity:1"
       id="rect3071" />
    <path
       d="M 200.03518,113.36009 A 67.243507,71.764084 0 1 1 200.03532,113.21332"
       transform="matrix(0.620281,0,0,0.620281,223.3228,72.02099)"
       style="opacity:1;fill:#ff0000;fill-opacity:1;fill-rule:evenodd;stroke:#000000;stroke-width:8.10000038;stroke-miterlimit:4;stroke-dasharray:none;stroke-opacity:1"
       id="path3073" />
    <path
       d="M 200.03518,113.36009 A 67.243507,71.764084 0 1 1 200.03532,113.21332"
       transform="matrix(0.620281,0,0,0.620281,223.2709,-23.44535)"
       style="opacity:1;fill:#00ad2e;fill-opacity:1;fill-rule:evenodd;stroke:#000000;stroke-width:8.10000038;stroke-miterlimit:4;stroke-dasharray:none;stroke-opacity:1"
       id="path3075" />
    <rect
       width="80.435768"
       height="182.42509"
       x="352.82242"
       y="3.5713825"
       style="opacity:1;fill:#000000;fill-opacity:1;fill-rule:evenodd;stroke:#000000;stroke-width:7.39597845;stroke-miterlimit:4;stroke-dasharray:none;stroke-opacity:1"
       id="rect3077" />
    <path
       d="M 200.03518,113.36009 A 67.243507,71.764084 0 1 1 200.03532,113.21332"
       transform="matrix(0.620281,0,0,0.620281,310.5355,72.08533)"
       style="opacity:1;fill:#ff0000;fill-opacity:1;fill-rule:evenodd;stroke:#000000;stroke-width:8.10000038;stroke-miterlimit:4;stroke-dasharray:none;stroke-opacity:1"
       id="path3079" />
    <path
       d="M 200.03518,113.36009 A 67.243507,71.764084 0 1 1 200.03532,113.21332"
       transform="matrix(0.620281,0,0,0.620281,310.4836,-23.38103)"
       style="opacity:1;fill:#ff7c00;fill-opacity:1;fill-rule:evenodd;stroke:#000000;stroke-width:8.10000038;stroke-miterlimit:4;stroke-dasharray:none;stroke-opacity:1"
       id="path3081" />
  </g>
</svg>
