<?xml version="1.0" encoding="iso-8859-1"?>
<!-- Uploaded to: SVG Repo, www.svgrepo.com, Generator: SVG Repo Mixer Tools -->
<svg fill="#FFFFFF" height="800px" width="800px" version="1.1" id="Layer_1" xmlns="http://www.w3.org/2000/svg" xmlns:xlink="http://www.w3.org/1999/xlink" 
	 viewBox="0 0 512 512" xml:space="preserve">
<g>
	<g>
		<path d="M463.859,0H266.936H70.014c-5.439,0-10.938,3.775-10.938,9.213v137.846v137.846c0,5.438,5.499,10.48,10.938,10.48h196.922
			h196.923c5.438,0,8.756-5.042,8.756-10.48V147.059V9.213C472.615,3.775,469.297,0,463.859,0z M256,275.692H78.769V157.538H256
			V275.692z M256,137.846H78.769V19.692H256V137.846z M452.923,275.692H275.692V157.538h177.231V275.692z M452.923,137.846H275.692
			V19.692h177.231V137.846z"/>
	</g>
</g>
<g>
	<g>
		<polygon points="78.769,492.308 78.769,315.077 59.077,315.077 59.077,492.308 39.385,492.308 39.385,512 98.462,512 
			98.462,492.308 		"/>
	</g>
</g>
</svg>
