<?xml version="1.0" encoding="UTF-8" standalone="no"?>
<svg
   id="emoji"
   viewBox="0 0 72 72"
   version="1.1"
   sodipodi:docname="flippedcar.svg"
   inkscape:version="1.4.2 (2aeb623e1d, 2025-05-12)"
   xmlns:inkscape="http://www.inkscape.org/namespaces/inkscape"
   xmlns:sodipodi="http://sodipodi.sourceforge.net/DTD/sodipodi-0.dtd"
   xmlns="http://www.w3.org/2000/svg"
   xmlns:svg="http://www.w3.org/2000/svg">
  <defs
     id="defs8" />
  <sodipodi:namedview
     id="namedview8"
     pagecolor="#ffffff"
     bordercolor="#000000"
     borderopacity="0.25"
     inkscape:showpageshadow="2"
     inkscape:pageopacity="0.0"
     inkscape:pagecheckerboard="0"
     inkscape:deskcolor="#d1d1d1"
     inkscape:zoom="9.5277778"
     inkscape:cx="36"
     inkscape:cy="36"
     inkscape:window-width="1210"
     inkscape:window-height="933"
     inkscape:window-x="0"
     inkscape:window-y="0"
     inkscape:window-maximized="1"
     inkscape:current-layer="emoji" />
  <g
     id="color"
     transform="matrix(-1,0,0,1,72.008891,0)">
    <path
       fill="#d22f27"
       d="m 5.8542,50.6944 c 0,0 -0.4373,4.3055 1.1458,4.3055 1.5831,0 13.5313,-0.0625 13.5313,-0.0625 h 40.083 l 1.8339,-2 h 3.5872 v -9.4375 c 0,0 0,-7.5417 0,-7.5417 l -7.5598,-0.0331 c -0.7323,-0.0466 -1.466,0.0649 -2.1514,0.3269 v 0 c -1.0873,0.4157 -1.8217,1.4401 -1.8662,2.6034 v 0 c 0,0 5.2285,5.0625 5.2285,5.0625 l -3.9052,0.0195 c 0,0 -0.9391,-1.4902 -3.0821,-2.584 -6.5703,-3.3535 -11.167,-2.417 -11.167,-2.417 L 41,44.8252 c 0,0 -10.9347,-0.2853 -14.3498,0.1747 -1.9697,0.2656 -6.0826,1.0238 -10.3648,2.0189 -3.2286,0.75 -6.1623,1.959 -9.2854,2.9795 z"
       id="path1" />
    <path
       fill="#ea5a47"
       d="m 10.2197,53.376 c 0,0 -5.7822,1.084 -4.2197,-0.292 0,0 3.9688,-2.6465 13.6123,-2.8965 l -2.7998,3.3906 -4.0195,1.2158 z"
       id="path2" />
    <path
       fill="#ea5a47"
       d="M 41.5625,43.6875 42,39.8515 l 3.9629,0.6226 c 3.2865,0.5163 6.3508,1.9807 8.8169,4.2135 l 0.3451,0.3125 h -9.5 l -4.0625,-1.3125 z"
       id="path3" />
    <polygon
       fill="#ea5a47"
       points="55.7168,38 66.2768,38 66.1118,35.6982 55.8818,35.7701 "
       id="polygon3" />
    <circle
       cx="58.75"
       cy="52"
       r="2.8281"
       fill="#d0cfce"
       id="circle3" />
    <circle
       cx="21.5"
       cy="52"
       r="2.8281"
       fill="#d0cfce"
       id="circle4" />
  </g>
  <g
     id="line"
     transform="matrix(-1,0,0,1,72,0)">
    <circle
       cx="22"
       cy="52"
       r="3"
       fill="none"
       stroke="#000000"
       stroke-linecap="round"
       stroke-linejoin="round"
       stroke-width="2"
       id="circle5" />
    <circle
       cx="39"
       cy="42"
       r="3"
       id="circle6" />
    <circle
       cx="59"
       cy="52"
       r="3"
       fill="none"
       stroke="#000000"
       stroke-linecap="round"
       stroke-linejoin="round"
       stroke-width="2"
       id="circle7" />
    <polyline
       fill="none"
       stroke="#000000"
       stroke-linecap="round"
       stroke-linejoin="round"
       stroke-width="2"
       points="65.625 52 67 52 67 35 55 35 55 38 58.1875 41.1084"
       id="polyline7" />
    <path
       fill="none"
       stroke="#000000"
       stroke-linecap="round"
       stroke-linejoin="round"
       stroke-width="2"
       d="m 16,53 -1,1 H 5 v -4 c 0,0 13,-6 26,-6 h 20"
       id="path7" />
    <line
       x1="29"
       x2="53"
       y1="54"
       y2="54"
       fill="none"
       stroke="#000000"
       stroke-linecap="round"
       stroke-linejoin="round"
       stroke-width="2"
       id="line7" />
    <path
       fill="none"
       stroke="#000000"
       stroke-linecap="round"
       stroke-linejoin="round"
       stroke-width="2"
       d="m 41,43 v -4 c 0,0 10,0 14,5"
       id="path8" />
  </g>
</svg>
