<svg width="500" height="500" xmlns="http://www.w3.org/2000/svg">
<path d="M437.74246026841206,390.6195614340226 L451.8207983988494,411.67768882699943" fill="none" stroke-width="7" stroke="#fae44a"/>
<path d="M437.74246026841206,390.6195614340226 L451.8207983988494,411.67768882699943 L459.64209736000583,427.25374173340896" fill="none" stroke-width="7" stroke="#58fdff"/>
<path d="M451.8207983988494,411.67768882699943 L459.64209736000583,427.25374173340896 L460.7057940187302,440.10326023895226 L448.5045676387215,474.5620141546951 L450.757101740125,478.6808214408293 L459.2666750099201,481.26232741607805 L490.73958203003343,485.7872142940236 L496.9966211993143,487.29550991986804 L500.0,490.283095486722 L498.8737329497429,493.299686738617 L494.431235140247,496.316277990512 L485.9216618695627,498.6367327995669 L475.15955449925326,500.0 L461.08121636881594,500.0 L445.5637592295685,498.89778396555465 L408.52208734881305,495.5041188073016 L383.3062194970914,492.7485787213943 L359.27918908804884,488.51374869468367 L336.3158553377307,483.58278222533903 L283.3187335752201,468.81888850213994 L251.8458265551068,459.2470124142733 L245.9016393443789,456.2594268476255 L244.4625203355688,453.7939436129531 L244.83794268565453,451.3284603780747 L250.34413715476393,445.84638589150734 L252.2212489051925,442.4527207332543 L251.09498185493536,439.697180647347 L247.4033287447218,437.37672583829215 L187.0229007635624,413.44703561883165 L176.32336378389655,410.4594500521838 L155.92541609264563,405.7895347488269 L143.72418971352607,402.511892330738 L130.3966962832602,396.76876667818294 L122.95081967218945,390.6195614340226 L117.757477161633,384.32532776424483 L115.94293580273718,379.27833855432374 L116.13064697733545,362.65808098375715 L116.3183581528229,341.9480218120973 L116.3183581528229,338.815407819832 L112.25128269252359,336.34992458515967 L104.80540608145284,334.4355493675039 L91.85333500216186,333.4783617588821 L74.45876611159667,334.8416289591091 L64.44750344145866,335.24770855071426 L52.246277061449945,334.1454925164751 L41.859592041226215,331.97006613283156 L34.47628582168822,329.64961132377664 L27.781253910788905,326.77804849749907 L23.7141784504896,324.1675368372093 L18.145413589847436,318.97551920167075 L13.327493430265879,312.5652627915227 L7.821298961156466,304.6177050700769 L7.070454260985033,297.91739180869394 L0.0,269.3467919711237 L0.7508447001714328,253.88676180529058 L1.877111750428582,241.4433228911464 L5.193342509667273,227.78164520239267 L9.635840320052292,216.9915303399165 L14.078338130437311,208.49286460145413 L45.17582280046491,167.7688827009746 L50.36916531102136,164.05615500623946 L57.81504192209211,162.57686506543604 L65.57377049171582,162.0257570482134 L77.02415217066394,161.7357001971846 L85.90914779143398,160.7785125883567 L94.48129145276188,159.15419422193582 L103.74170942272845,155.9925745444234 L110.74959329218073,152.3088525349354 L117.06920285299432,147.26186332522042 L147.79126517293622,106.65390416511121 L159.99249155294493,84.63858916330645 L164.05956701324425,69.17855899747337 L165.93667876367283,53.31244924003505 L165.5612564135871,48.12043160449656 L163.68414466315852,42.66736280297022 L141.0962332620369,6.555284835765519 L140.34538856186546,4.379858452121994 L141.0962332620369,2.4654832346723197 L146.28957577259334,0.5511080170165883 L156.30083844362053,0.0 L162.62044800354496,0.6961364426340424 L167.06294581392999,2.3204548090548656 L168.5020648227401,3.6837220094879513 L171.13002127422928,11.747302471097953 L174.82167438355367,24.074718644665722 L176.32336378389655,28.164520245965036 L181.14128394436727,32.689407123704484 L197.40958578378613,43.47952198618066 L211.86334626430917,53.0513980738412 L284.82042297556296,114.31140503532208 L293.3299962462473,122.22995707152069 L401.451633087828,290.4049193641005 L405.89413089732386,297.36628379147123 L404.8304342385995,299.68673860073227 L400.0125140790179,301.4850910778116 L391.4403704168008,302.55830142700984 L385.9341759485806,304.35665390408917 L383.6816418471771,306.38705186211524 L384.05706419726283,308.997563522405 L403.7041671883423,338.11927137719795 L418.846201977504,362.04896159645233" fill="none" stroke-width="7" stroke="#db4a25"/>
<path d="M418.846201977504,362.04896159645233 L437.74246026841206,390.6195614340226" fill="none" stroke-width="7" stroke="#db4a25"/>
</svg>