<svg width="500" height="500" xmlns="http://www.w3.org/2000/svg">
<path d="M459.64209736000583,427.25374173340896 L460.7057940187302,440.10326023895226 L448.5045676387215,474.5620141546951 L450.757101740125,478.6808214408293 L459.2666750099201,481.26232741607805 L490.73958203003343,485.7872142940236 L496.9966211993143,487.29550991986804 L500.0,490.283095486722 L498.8737329497429,493.299686738617 L494.431235140247,496.316277990512 L485.9216618695627,498.6367327995669 L475.15955449925326,500.0 L461.08121636881594,500.0 L445.5637592295685,498.89778396555465 L408.52208734881305,495.5041188073016 L383.3062194970914,492.7485787213943 L359.27918908804884,488.51374869468367 L336.3158553377307,483.58278222533903 L283.3187335752201,468.81888850213994 L251.8458265551068,459.2470124142733 L245.9016393443789,456.2594268476255 L244.4625203355688,453.7939436129531 L244.83794268565453,451.3284603780747 L250.34413715476393,445.84638589150734 L252.2212489051925,442.4527207332543 L251.09498185493536,439.697180647347 L247.4033287447218,437.37672583829215 L187.0229007635624,413.44703561883165 L176.32336378389655,410.4594500521838 L155.92541609264563,405.7895347488269 L143.72418971352607,402.511892330738 L130.3966962832602,396.76876667818294 L122.95081967218945,390.6195614340226 L117.757477161633,384.32532776424483 L115.94293580273718,379.27833855432374" fill="none" stroke-width="7" stroke="#db4a25"/>
</svg>