<svg width="500" height="500" xmlns="http://www.w3.org/2000/svg">
<path d="M91.31225009121992,9.822763186037264 L215.376226826733,33.68567157815755 L255.61613958588845,40.99935938505064 L298.000727008553,46.28443305570727 L318.42966194137875,49.80781550287486 L371.1377680842702,60.11103993163016 L462.9952744455936,79.00918214823918 L481.9338422393445,84.29425581889575 L485.1690294440936,86.05594704257436 L486.87749909131327,88.08456117881093 L487.7499091238921,91.34102071323099 L487.9680116320368,94.33055733509315 L484.51472191914297,125.82746102925188 L484.95092693543234,128.6034593209539 L486.04143947667245,131.11253470009808 L495.7106506724653,138.37283792440377 L498.509632860925,140.40145206064028 L499.99999999999994,143.65791159525003 L499.99999999999994,146.70083279950995 L498.0734278446356,166.34635917158454 L495.0563431480312,183.96327140723292 L490.3307888042071,201.04633781776556 L484.95092693543234,216.4210975870173 L442.78444202091254,315.55626735004904 L392.2210105415301,425.5285073671415" fill="none" stroke-width="7" stroke="#db4a25"/>
<path d="M442.78444202091254,315.55626735004904 L392.2210105415301,425.5285073671415 L388.985823336781,433.05573350419473 L388.54961832049156,437.5934230195754 L389.20392584492566,441.3837283793009 L390.7306434024552,444.159726671003 L405.7797164670228,456.9720264789025 L407.2700836060977,459.000640615139 L407.4881861142424,462.25710014955905 L406.4340239914569,465.03309844126113 L403.8531443111419,468.2895579756812 L375.64521991994957,497.75784753360335 L372.84623773200644,499.519538757282 L370.4834605598361,500.0 L368.33878589632707,498.9856929319766 L363.177026535697,494.44800341659584 L362.30461650311815,491.45846679492337 L362.30461650311815,485.42600896861154 L375.20901490366015,345.9854793935969 L375.0272628134535,341.71471279096374 L373.7186477645852,337.7108691010782 L371.79207560870435,334.40102498407066 L368.7749909126165,331.4114883622085 L353.7259178480489,318.54580397191125 L348.34605597979066,311.76596199032355 L345.1108687750415,307.22827247494286 L341.8756815702924,298.68673926967654 L338.42239185739857,286.0879777921268 L335.0054525629593,278.560751654884 L331.115957833776,273.2756779842274 L326.82660850624137,269.4853726245019 L321.0105416211772,265.9619901773343 L274.51835696118474,256.139226991297 L269.35659760107126,253.89707452490038 L266.15776081426014,250.10676916517488 L264.6310432572472,247.5976937860307 L263.35877862580037,244.07431133886308 L257.3246092331081,218.18278881069597 L255.39803707774374,213.11125347000979 L252.3809523811393,208.36002562465865 L244.8564158488555,202.06064488578897 L210.43256997476422,176.38266068759225 L200.50890585237207,170.6171257742177 L186.11414031275515,165.8125133462791 L70.7742639040635,142.64360452703693" fill="none" stroke-width="7" stroke="#58fdff"/>
<path d="M186.11414031275515,165.8125133462791 L70.7742639040635,142.64360452703693 L68.41148673240976,141.41575912885338 L67.13922210096297,139.38714499261687 L66.04870956023944,136.13068545800712 L65.83060705209473,131.85991885556365 L63.9040348967304,90.80717488792556 L61.541257724560076,62.406576980614204 L60.668847691981256,59.150117446194145 L58.960378044245054,56.8545803972101 L56.59760087259131,55.359812086278964 L53.580516175986865,55.84027332918663 L50.34532897123772,59.89750160165971 L46.237731733909754,68.43903480673634 L43.87495456225601,70.94811018588052 L41.075972373796276,72.4428784968116 L37.877135586985155,72.22934016665147 L34.205743365946596,69.93380311766742 L29.91639403841194,67.15780482596534 L25.808796801083968,65.39611360247636 L6.252271901353582,62.406576980614204 L3.0170846966044382,60.911808669683126 L1.490367139591493,59.150117446194145 L0.21810250814470644,55.84027332918663 L0.0,52.58381379457694 L1.272264630930216,44.78966474496582 L4.071246819389947,34.48644031602089 L7.742639040428505,25.891522528356802 L13.12250090868669,15.588298099601502 L19.374772810040273,8.541533205266262 L27.335514358613484,2.9895366218621575 L34.64194838275258,0.2669229127475319 L41.73027989823039,0.0 L52.05379861897392,1.7616912236786106 L91.31225009121992,9.822763186037264" fill="none" stroke-width="7" stroke="#fae44a"/>
</svg>