<svg width="500" height="500" xmlns="http://www.w3.org/2000/svg">
<path d="M40.76750560680909,368.54917234681795 L20.333914776983427,302.3369036027079 L0.4236232245573756,243.2448880233415 L0.0,238.68062317454599 L0.8721654622589129,234.05550146081725 L9.867929230009267,201.3753651413482 L14.15399950165002,186.70886075949096 L18.71417891854053,173.25949367110707 L23.598305507101912,161.51411879263463 L28.45751308251913,151.47273612450607 L37.45327685026948,134.79795520936904 L56.915026164993996,102.96981499507189 L116.94492898084313,2.860272638884112 L119.46174931473337,0.8519961051719633 L122.85073511092678,0.0 L125.66658360329946,2.0082765337122055 L128.60702716174708,6.329113924072544 L131.84649887867712,14.605647516924137 L134.21380513334827,24.951314508421092 L134.6623473710498,33.836416748009356 L134.51283329183073,46.19036027278605 L135.0859705955629,52.76290165529383 L135.98305507105454,58.48344693262965 L138.49987540494476,66.51655306704606 L141.29080488412902,72.29795520931498 L146.15001245950197,78.01850048708326 L160.30401196115199,91.77215189883543 L175.3550959382051,105.28237585215243 L191.15375031148645,117.87974683536436 L206.030401196132,129.07740993203322 L217.24395713929016,136.5628042842136 L231.24844256167682,144.29162609526162 L245.1283329180328,150.31645569639824 L257.2140543234499,154.88072054519375 L273.43633192128857,159.50584225892248 L284.6498878644467,161.75754625106987 L297.6326937453554,163.52239532634684 L308.5472215300311,163.76582278478207 L322.70122103163686,162.67039922117493 L336.58111138799285,160.3578383640944 L350.5855968103795,156.03700097373405 L366.35933217047244,149.46445959122627 L395.71392972839465,133.6416747808288 L492.175429852991,75.46251217156748 L495.2653874906577,74.54965920146242 L497.93172190381125,75.70593963000272 L499.5514577622542,79.17478091519109 L500.0,82.88704965924717 L499.2524296037717,86.35589094443554 L497.4831796661097,89.21616358331966 L460.4535260403534,127.92112950349292 L383.17966608523176,209.10418695239622 L377.7224021928939,212.57302823758465 L371.66708198354695,213.42502434275656 L286.5686518814164,196.50681596875188 L282.88063792674046,196.50681596875188 L280.36381759285024,199.91480038943956 L278.89359581362646,207.40019474205235 L278.46997258911335,219.4498539434607 L279.1926239721089,234.66407010712157 L281.55993022678,246.95715676739758 L285.54697233989407,258.45910418700237 L290.5556939945304,269.0481986369345 L292.47445801145574,275.0730282376387 L293.19710939449556,281.4021421617112 L293.19710939449556,287.122687439047 L292.1754298529733,293.14751704018363 L289.65860951908303,301.4849074975359 L286.5686518814164,308.3617332034121 L282.7311238475214,314.38656280454865 L275.2055818589506,323.88023369044123 L234.21380513331286,367.4537487827784 L185.54697233992948,417.9649464459248 L181.11138798906964,421.67721518998087 L176.25218041365244,424.2332035054966 L171.8165960627926,424.8417721522333 L166.80787440820055,423.98977604706135 L162.52180413655978,422.5292112951528 L158.26065287815172,419.66893865626866 L154.12409668577433,415.3481012659083 L149.6885123349145,409.0798442067689 L144.23124844257663,398.42989289190365 L100.57313730378532,316.39483933782844 L97.33366558685526,312.0740019474681 L93.64565163222366,309.213729308584 L89.65860951906535,308.66601752678037 L85.69648641913973,309.213729308584 L82.28258160980216,311.83057448903287 L79.641166209837,316.0905550148925 L77.42337403438493,321.26338851042476 L76.25218041368785,327.2882181111289 L76.10266633442448,333.61733203520146 L76.82531771742005,340.7984420644459 L83.92723648143348,375.7911392405631 L85.69648641913973,381.5116845183314 L88.3379018191049,387.53651411903553 L92.17542985299986,392.70934761456783 L96.31198604537725,395.8739045763879 L105.15823573386425,401.29016553078776 L109.41938699227231,405.0632911393445 L112.68377772243507,409.9318403115084 L116.2222775978033,416.8086660178169 L127.28631946178662,441.7599805258056 L129.20508347871197,448.6368062316817 L129.92773486170753,453.505355404278 L129.62870670322508,458.67818889981027 L128.75654124096616,464.15530671871085 L126.09020682781257,469.57156767311074 L121.67954149018541,475.2921129504466 L105.3077498131276,493.97517039929585 L99.7009718415264,498.84371957189217 L95.86344380763146,500.0 L91.57737353603495,500.0 L86.56865188139865,498.29600778965613 L82.00847246450815,493.67088607592746 L77.87191627213075,487.09834469341973 L74.18390231749915,478.760954235635 L70.94443060056909,469.57156767311074 L40.76750560680909,368.54917234681795 Z" fill="none" stroke-width="3" stroke="black"/>
</svg>