<svg width="500" height="500" xmlns="http://www.w3.org/2000/svg">
<path d="M442.37905201986143,387.1411538106921 L397.43051179728695,433.1835274694041 L382.09759854368036,448.3169769786307 L378.35188685846583,450.24305237074964 L374.85122173210056,450.70164174996523 L371.52558986210954,450.24305237074964 L368.62003780721767,448.7297074200551 L365.71448575232586,446.3909015865118 L335.048659245237,415.665413188843 L330.07771476577597,411.3546730257154 L306.6582650703912,394.4785838758606 L302.52748022125286,392.55250848374163 L298.39669537211455,391.03916353304703 L293.3907442413538,390.3971384023407 L289.04991948466585,390.8098688434393 L283.2388153748821,393.19453361444795 L279.7381502485169,396.63395395758727 L277.25267800884853,400.34852792812563 L275.7823986557528,403.5586535816572 L275.39732549182895,407.915252682576 L275.99243856330236,412.2259928460295" fill="none" stroke-width="7" stroke="#db4a25"/>
<path d="M258.8041727928005,142.43786113893776 L266.4706294196038,130.33110153175198 L275.39732549182895,119.73768687493492 L286.5644472449975,108.27295239845546 L288.8398795771163,105.06282674492388 L290.52019883776165,101.80684215360111 L290.90527200168543,98.13812712085394 L289.68003920743894,94.01082270921705 L270.21634110481835,29.16628450885719 L269.79626128959484,24.213519214697442 L270.39137436119256,19.44418967235424 L271.861653714164,14.67486013001104 L274.13708604640715,10.134825277275638 L278.2678708954211,6.466110244854349 L283.2388153748821,3.210125653531577 L288.41979976201713,0.8713198199882868 L293.60078414902773,0.0 L300.0420079814602,0.18343575149071967 L306.2381852551677,1.5133449506946022 L313.72960862559677,4.310740163127605 L322.20121823142307,9.080069705470805 L328.2223622488807,12.748784737892095 L335.25869915278656,17.28881959095338 L342.71511587204026,22.470879574395042 L352.0618917593646,31.092359900976135 L391.82944759505284,69.15527836381335 L393.68480011194805,72.82399339623464 L394.31491983472114,75.6672475464589 L394.10487992717157,78.69393744817387 L392.0394875026024,81.26203797099913 L388.7138556326114,84.05943318343219 L386.0183434852691,86.44409795476668 L385.00315059857223,88.5994680361676 L385.2131905061218,92.49747775819668 L386.22838339281867,96.80821792165011 L400.7211370159783,145.05182059988005 L403.83672897854404,151.5179308447344 L406.1121613106628,154.13189030535085 L408.38759364278155,156.47069613856831 L411.503185605223,158.67192515808625 L415.2488972904375,159.7266807298911 L422.28523419446776,161.01073099130372 L452.32094097878354,164.9087407133328 L458.55212490366637,167.0641107950595 L462.47286984525516,169.44877556639403 L465.7985017152462,171.8334403374027 L468.70405377013805,175.96074474903958 L469.71924665683497,179.62945978178675 L470.97948610238114,183.94019994491435 L470.97948610238114,188.7095294872575 L469.92928656438454,193.89158947069922 L462.47286984525516,240.34669357050973 L462.2628299377056,248.6013023937835 L462.8929496603543,253.7833623772252 L464.5382622698243,259.1488581124835 L466.8487012532428,264.3767770337164 L496.25428831478547,305.879115839693 L499.15984036967734,312.11593139493954 L499.78996009232606,316.4725304961842 L500.0,320.553975969704 L499.3698802772269,324.86471613315746 L498.3196807393546,329.22131523440214 L496.25428831478547,333.1193249564312 L492.9286564446701,336.9714757406691" fill="none" stroke-width="7" stroke="#58fdff"/>
</svg>