<svg width="500" height="500" xmlns="http://www.w3.org/2000/svg">
<path d="M199.59606603406925,70.54570424523797 L195.2932911836044,43.38166983078975 L185.63400070244694,8.280486327144331 L181.858096241784,6.01849981824904 L172.3744292234779,3.1708203740661247 L160.25641025616227,1.393545259923883 L141.64032314712458,0.0 L122.93642430603725,0.6260855515589583 L110.55497014382068,1.9994345034189678 L97.91008078670315,3.837298541824623 L87.46048472084284,8.058326937867548 L82.27959255362553,13.85466736683992 L83.50895679670462,19.065314860452816 L88.33860203697138,23.26614694836013 L116.35054443226556,33.74803085999281 L131.36635054411562,38.69612634812944 L143.8356164383818,45.90620834508957 L148.66526167864856,50.450377670943965 L152.17773094441054,56.81221472714009 L151.21180189685634,61.740113907212844 L148.4018264837476,67.47586541177827 L139.0937829295407,73.49436523002731 L128.29293993672985,78.60403118310552 L113.54056901978076,84.7235125418893 L101.51036178389081,90.60063820333244 L96.24165788524782,97.04326049199938 L96.59290481219838,101.44605566104781 L96.59290481219838,104.83903542431898 L90.88514225455523,107.40396655489002 L82.27959255362553,109.6053641394501 L68.75658587975553,111.24126509671464 L39.60309097280792,113.07912913519203 L19.055145767413936,116.79524982834636 L9.483667017682164,120.14783697541793 L5.971197751920172,122.9955164196009 L1.2293642430790908,128.67067899990292 L0.0,135.1536939047694 L0.0,139.55648907381783 L1.931858095732337,144.4843882538188 L5.619950824969609,149.73542836370297 L15.806111696552898,156.29922850104026 L42.14963119039177,168.39681706187355 L59.975412714726616,177.66692248658785 L69.28345626955743,185.5434826513782 L73.32279592512134,192.57179787533283 L72.00561995061658,199.3375610938112 L70.1615735863099,203.4778042573834 L70.51282051263652,212.3641798279511 L72.88373726736904,214.8887183423226 L75.60590094842817,218.96837258148787 L86.84580259899133,226.27943611905442 L96.94415173852501,230.90439067737958 L110.64278187524636,235.8524861655162 L132.94696171414526,243.44629801669464 L147.96276782537137,249.20224582946747 L159.29048120798413,255.32172718825126 L171.14506498039881,264.551439996766 L174.92096944106174,271.3777921395795 L176.76501580599236,279.0523892232288" fill="none" stroke-width="7" stroke="#58fdff"/>
</svg>