<svg width="500" height="500" xmlns="http://www.w3.org/2000/svg">
<path d="M370.38988408814146,385.00222159385976 L250.8781173164405,310.31627418504956 L244.02880224776786,309.0439067738678 L238.14541622727336,308.8823363089262 L210.83596768525635,310.78078927173874 L203.45978222678178,310.3970594175204 L196.8739023530101,309.6901886334906 L191.78082191784242,308.21585814109596 L188.97084650473366,306.1558347134136 L193.80049174562436,300.3796905925768 L213.9093782926421,286.9491456961548 L216.01685985247366,284.9901038090071 L216.4559185108499,281.11241265098295 L208.55286266257343,270.4891545825443 L181.7702845097344,236.96328311182822 L179.4871794870515,230.15712727715032 L173.86722866145794,227.9153370763907 L146.1187214610647,225.57256533502465 L133.03477344557095,223.8154865290898 L122.76080084256198,221.9170335662772 L108.79873551093968,217.17090115928175 L101.33473832103947,212.42476875228624 L100.10537407796038,206.64862463144954 L103.88127853862332,202.1650442299303 L109.76466455911782,199.55972048308797 L128.90762205795744,193.33925758369776 L135.84474885805574,189.94627782042664 L139.0937829295407,186.41192390034956 L137.07411310113483,181.01950963365942 L127.15138742507644,171.91097467381502 L115.12118018981042,167.87171305084928 L107.48155953643493,166.498364099061 L89.12890762167423,163.7718625035484 L79.90867579889301,162.2975320111537 L73.05936073022038,160.66163105381742 L67.96628029505267,156.521387890317 L69.45907973303272,139.01118875472963 L72.26905514551753,135.19408652096894 L89.91921320700104,130.34697257343873 L103.88127853862332,128.2667528376207 L136.81067790623388,125.76241063131306 L146.29434492453998,124.67180999313672 L157.70987003857843,120.75372621884128 L163.85669125397388,112.99834390272122 L169.47664207894348,106.83846992773795 L182.20934316811062,98.05307589770496 L191.6930101857928,92.6000727067514 L198.54232525446542,83.55212667124215 L200.82543027714834,77.43264531245842 L199.59606603406925,70.54570424523797" fill="none" stroke-width="7" stroke="#db4a25"/>
<path d="M199.59606603406925,70.54570424523797 L195.2932911836044,43.38166983078975 L185.63400070244694,8.280486327144331 L181.858096241784,6.01849981824904 L172.3744292234779,3.1708203740661247 L160.25641025616227,1.393545259923883 L141.64032314712458,0.0 L122.93642430603725,0.6260855515589583 L110.55497014382068,1.9994345034189678 L97.91008078670315,3.837298541824623 L87.46048472084284,8.058326937867548 L82.27959255362553,13.85466736683992 L83.50895679670462,19.065314860452816 L88.33860203697138,23.26614694836013 L116.35054443226556,33.74803085999281 L131.36635054411562,38.69612634812944 L143.8356164383818,45.90620834508957 L148.66526167864856,50.450377670943965 L152.17773094441054,56.81221472714009 L151.21180189685634,61.740113907212844 L148.4018264837476,67.47586541177827 L139.0937829295407,73.49436523002731 L128.29293993672985,78.60403118310552 L113.54056901978076,84.7235125418893 L101.51036178389081,90.60063820333244 L96.24165788524782,97.04326049199938 L96.59290481219838,101.44605566104781 L96.59290481219838,104.83903542431898 L90.88514225455523,107.40396655489002 L82.27959255362553,109.6053641394501 L68.75658587975553,111.24126509671464 L39.60309097280792,113.07912913519203 L19.055145767413936,116.79524982834636 L9.483667017682164,120.14783697541793 L5.971197751920172,122.9955164196009 L1.2293642430790908,128.67067899990292 L0.0,135.1536939047694 L0.0,139.55648907381783 L1.931858095732337,144.4843882538188 L5.619950824969609,149.73542836370297 L15.806111696552898,156.29922850104026 L42.14963119039177,168.39681706187355 L59.975412714726616,177.66692248658785 L69.28345626955743,185.5434826513782 L73.32279592512134,192.57179787533283 L72.00561995061658,199.3375610938112 L70.1615735863099,203.4778042573834 L70.51282051263652,212.3641798279511 L72.88373726736904,214.8887183423226 L75.60590094842817,218.96837258148787 L86.84580259899133,226.27943611905442 L96.94415173852501,230.90439067737958 L110.64278187524636,235.8524861655162 L132.94696171414526,243.44629801669464 L147.96276782537137,249.20224582946747 L159.29048120798413,255.32172718825126 L171.14506498039881,264.551439996766 L174.92096944106174,271.3777921395795 L176.76501580599236,279.0523892232288" fill="none" stroke-width="7" stroke="#58fdff"/>
<path d="M175.79908675781422,286.0807044472552 L172.02318229715127,292.48293411965085 L164.99824376500337,301.0259724521997 L160.6954689145385,303.9948297451247 L156.7439409904003,306.7011350325017 L157.6220583065288,309.14488831440246 L160.8710923780138,311.6290342125744 L169.5644538109931,314.3555358080871" fill="none" stroke-width="7" stroke="#fae44a"/>
<path d="M178.9603090972496,316.1530072302932 L201.1766772040989,320.0306983883174 L212.1531436597611,322.9187704487716 L222.33930453072045,326.8974431474022 L237.17948717909522,341.51957022253526 L237.35511064257048,345.29627984002474 L230.68141903737313,349.65868239287363 L216.2802950473746,355.4348265137104 L168.77414822629024,375.28779739066374 L157.2708113802022,381.4072787494475 L148.05057955742097,388.4961828977373 L144.62592202308466,393.5048673102808 L143.22093431653028,398.0288403279996 L147.34808570414378,408.38954639089025 L159.72953986636037,418.6896635295174 L167.8082191781121,424.9707153532428 L175.9747102212895,431.00941147955575 L186.59992975062508,438.50224179019955 L202.93291183697988,446.45958718746067 L226.9055145767102,455.87106676898094 L243.85317878429257,461.0211253382586 L265.10361784296373,466.95883992403697 L294.87179487176286,474.29009976973913 L333.421145064967,481.6213596154413 L369.5995785034386,486.8320071091259 L445.2932911839164,498.14193965338694 L466.19248331563693,500.0 L480.0667369158336,499.1719513672999 L492.2725676151988,497.515854101828 L500.0,494.64797834958114 L499.2975061467228,491.618532132321 L479.452054794606,472.69459142867413 L441.4295749912038,433.59453891826246 L421.6719353705127,418.60887829704666 L403.31928345637596,406.2285414226014 L370.38988408814146,385.00222159385976" fill="none" stroke-width="7" stroke="#fae44a"/>
</svg>