<svg width="500" height="500" xmlns="http://www.w3.org/2000/svg">
<path d="M370.38988408814146,385.00222159385976 L250.8781173164405,310.31627418504956 L244.02880224776786,309.0439067738678 L238.14541622727336,308.8823363089262 L210.83596768525635,310.78078927173874 L203.45978222678178,310.3970594175204 L196.8739023530101,309.6901886334906 L191.78082191784242,308.21585814109596 L188.97084650473366,306.1558347134136 L193.80049174562436,300.3796905925768 L213.9093782926421,286.9491456961548 L216.01685985247366,284.9901038090071 L216.4559185108499,281.11241265098295 L208.55286266257343,270.4891545825443 L181.7702845097344,236.96328311182822 L179.4871794870515,230.15712727715032 L173.86722866145794,227.9153370763907 L146.1187214610647,225.57256533502465 L133.03477344557095,223.8154865290898 L122.76080084256198,221.9170335662772 L108.79873551093968,217.17090115928175 L101.33473832103947,212.42476875228624 L100.10537407796038,206.64862463144954 L103.88127853862332,202.1650442299303 L109.76466455911782,199.55972048308797 L128.90762205795744,193.33925758369776 L135.84474885805574,189.94627782042664 L139.0937829295407,186.41192390034956 L137.07411310113483,181.01950963365942 L127.15138742507644,171.91097467381502 L115.12118018981042,167.87171305084928 L107.48155953643493,166.498364099061 L89.12890762167423,163.7718625035484 L79.90867579889301,162.2975320111537 L73.05936073022038,160.66163105381742 L67.96628029505267,156.521387890317 L69.45907973303272,139.01118875472963 L72.26905514551753,135.19408652096894 L89.91921320700104,130.34697257343873 L103.88127853862332,128.2667528376207 L136.81067790623388,125.76241063131306 L146.29434492453998,124.67180999313672 L157.70987003857843,120.75372621884128 L163.85669125397388,112.99834390272122 L169.47664207894348,106.83846992773795 L182.20934316811062,98.05307589770496 L191.6930101857928,92.6000727067514 L198.54232525446542,83.55212667124215 L200.82543027714834,77.43264531245842" fill="none" stroke-width="7" stroke="#db4a25"/>
</svg>