<svg width="500" height="500" xmlns="http://www.w3.org/2000/svg">
<path d="M48.516069506249856,358.90091237007107 L92.80332154393726,467.16528750262466 L97.4934645550313,478.5699130065922 L102.18360756557902,485.1474644599976 L112.79409503287903,495.11988117978615 L118.25311394709973,497.93125397849207 L126.09564816248816,499.94695523034824 L133.8612947871815,500.0 L142.3958173150015,498.8860598344857 L146.8552975551029,497.4008062804666 L160.69506381684607,489.3380012730421 L174.15039212675276,479.896032251279 L179.4556358601296,477.40292807142606 L186.37551899100117,475.8646297475667 L193.37228971256786,475.599405898554 L203.52145163733627,477.66815192025035 L225.049976933624,485.9961807766876 L242.11902198981034,490.4519414385564 L254.80547439659034,492.52068746025276 L266.41550053800967,493.47549331643484 L277.02598800530967,493.8468067049396 L292.63416884484514,492.67982176958503 L304.55174534795214,491.03543390623366 L319.23727510351705,487.6936134096907 L333.00015377511147,482.65436028014466 L346.60925726586197,475.91767451740697 L357.6041826849985,468.597496286992 L366.29248039366234,460.7999151283918 L372.75103798254867,453.4797368979768 L378.1331693060743,445.25779758122 L399.2003690603768,401.28368342889 L408.1193295400333,379.21705919796466 L423.34307242773224,341.7674517291998 L441.9498692907182,293.9210693824898 L474.62709518644,215.52089963927335" fill="none" stroke-width="7" stroke="#fae44a"/>
<path d="M441.9498692907182,293.9210693824898 L474.62709518644,215.52089963927335 L486.39089650924944,187.24803734344732 L494.6947562660768,167.4092934435506 L498.53913578334914,158.17950350095998 L500.0,152.3445788245641 L499.0773489154831,146.88096753648455 L496.92449638585435,143.1678336516253 L492.2343533753067,138.76511775940827 L483.7767184376354,135.05198387436053 L473.9351068734621,132.45279015482714 L459.71090265988244,130.59622321230324 L417.19206520053365,125.29174623374445 L400.58434568633254,124.12476129857833 L390.28140858072027,124.6021642265751 L377.67184376408903,125.71610439208945 L365.75426726098203,127.94398472311809 L355.22066738437707,131.86929768714987 L345.2252806393599,135.58243157219755 L335.229893894889,140.78081901126438 L325.6189451022546,147.51750477400208 L312.4711671534893,158.07341396127947 L269.26034138061635,194.93952896236704 L243.88743656760263,217.64269043062149 L222.28202368116612,237.0570761723617 L198.60064585579593,256.6836409928975 L186.14485622000853,267.6108635688681 L176.53390742737415,275.8328028856249 L169.84468706749522,280.5007426268546 L162.38659080394328,283.4182049650526 L151.77610333664327,285.8052196054135 L140.08918960452885,286.76002546140705 L122.55881900635728,286.4948016125828 L110.87190527424288,285.27477190757645 L101.5685068427499,283.4182049650526 L93.26464708592252,281.0311903246917 L79.04044287234287,276.15107150428946 L71.96678456117374,272.17271377041743 L67.2766415500797,268.2474008061972 L62.74027371982952,262.57161043913356 L59.280332154393726,254.88011882021382 L54.97462709513618,243.5285380860866 L51.437797939551615,233.13176320814142 L46.670767338308806,214.03564608525426 L45.74811625379196,206.13197538716202 L45.97877902478459,198.12221514957776 L48.977395048235124,192.0220666241691 L53.82131324017302,188.94546997663895 L57.204367214913724,187.8315298111246 L61.4331846840225,186.92976872478278 L67.19975395993093,186.50541056643777 L73.27387359698075,187.46021642261985 L79.65554359517199,189.05155951613096 L96.87836383220217,197.32654360272795 L103.79824696307375,199.92573732226134 L109.18037828714569,201.35794610644024 L114.9469475625078,202.1005728834498 L120.25219129643096,202.3657967324625 L126.09564816248816,201.88839380427726 L134.09195755817413,200.03182686175342 L143.54913116996465,195.0986632716993 L148.85437490388782,190.1124549119935 L151.6992157464945,184.64884362391393 L152.16054128847975,179.9809038828726 L151.0072274335166,174.5703373646333 L147.77794863907343,170.32675578193698 L140.3967399662166,163.48398047951883 L133.70751960633763,159.24039889663408 L110.10302937111622,144.65308720564434 L97.95479009701656,135.84765542121033 L89.5740427494941,127.99702949276985 L83.49992311244426,117.49416507533266 L78.80978010135023,104.44515170801384 L76.65692757172145,96.5414810099216 L75.5036137167583,89.43348185867916 L76.27248961988496,83.59855718228329 L79.88620636616461,79.62019944822282 L82.88482238961514,77.2331848078619 L87.72874058100673,76.22533418202806 L91.72689527912287,75.58879694451053 L96.87836383220217,76.11924464234761 L102.87559587855691,77.6575429662069 L131.70844225755272,98.3980479524455 L156.62002152858116,115.79673244214109 L160.9257265878387,118.02461277316968 L170.2291250193317,122.10906004672222 L178.7636475471517,124.49607468708308 L185.83730585886715,125.82219393158147 L194.52560356753102,126.72395501792329 L202.59880055336575,127.30744748560056 L211.90219898485873,127.36049225544082 L226.5108411502749,126.034373010754 L237.65954174970892,123.75344791007353 L249.50023066266718,119.45682155734858 L261.494694755923,113.30362826228816 L268.18391511580194,107.73392743471658 L275.3344610176662,101.47464459997565 L294.4794710133325,82.43157224692874" fill="none" stroke-width="7" stroke="#db4a25"/>
<path d="M275.3344610176662,101.47464459997565 L294.4794710133325,82.43157224692874 L315.62355835778374,60.046679397338835 L339.53559895414656,35.59304052605256 L341.0733507609462,32.728622957694824 L341.4577887127827,29.333757691500125 L339.99692449613184,25.99193719495719 L337.2289712436739,22.384892849401467 L331.92372751029706,19.255251432219495 L319.3910502843609,15.117759388826755 L301.16869137321146,10.927222575782196 L264.1857604182321,2.1217907913481895 L256.9583269256728,0.9017610863418213 L247.7318160848749,0.0 L229.12501922188892,1.2730744748466236 L212.82485006882928,3.023551877689954 L177.1490081502033,7.850625928252043 L165.30831923724503,10.396774877945177 L141.78071659217238,16.60301294284585 L130.17069045075309,19.838743899708277 L102.49115792726674,29.28071292165987 L91.49623250813023,34.00169743254145 L82.11594648594216,39.306174411100244 L72.58188528345654,44.875875238671824 L64.8162386587632,50.6577551452275 L57.89635552843794,57.44748567780539 L51.59157311984916,66.09378315290718 L46.51699215746495,75.32357309568624 L38.52068276177897,94.15446636956074 L29.832385053115107,117.86547846383746 L24.065815777206684,140.1973265435871 L14.14731662288457,164.01442817735585 L7.765646624693339,181.94356036488847 L2.2297401197775444,194.35603649468976 L0.38443795183649226,203.37364735829635 L0.0,215.62698917876537 L1.0764262648143867,230.1612561001033 L3.6137167462796524,241.03543390623366 L7.919421805537199,253.71313388504774 L15.377518068542818,271.9605346912449 L37.13670613582318,329.77933375774353 L48.516069506249856,358.90091237007107" fill="none" stroke-width="7" stroke="#1bce20"/>
</svg>