<svg width="500" height="500" xmlns="http://www.w3.org/2000/svg">
<path d="M316.5443379269002,472.4989305139172 L233.7852007189967,481.543726700398 L228.84212103056797,483.40768807674453 L228.05572198921567,495.11092098022783 L225.5841821450013,496.9748823565743 L212.21539844217898,498.5027195502938 L196.67465548232883,500.0 L183.04373876573902,499.51109209795766 L166.11743559018012,495.11092098022783 L154.09676452966409,487.99119965768597 L90.54823247453811,424.7387398399126 L56.171360095868714,391.55411599340164 L45.8358298382314,378.4147161278046 L39.54463750749637,369.4615901729296 L36.54883163571382,364.0224897635226 L29.43379269024066,347.27739412085174 L26.175853804674023,329.31002872329213 L27.261833433196237,315.7733911874757 L30.257639304978785,301.1978243597649 L38.45865787897415,287.47784636073686 L46.62222887956705,279.0136283076871 L49.91761533851953,276.1412943836768 L49.91761533851953,273.78842510550504 L45.27411623726074,272.0772474485739 L41.4544637507567,269.7243781701851 L42.01617735171073,266.82148750237855 L45.27411623726074,263.94915357815114 L47.183942480521075,260.55735500830224 L46.09796285201549,253.80431461218356 L40.36848412223449,241.42883334344629 L35.46285200719161,232.9646152906136 L28.34781306171845,226.02823443128335 L22.356201318153353,220.95581494829958 L19.098262432586715,215.02780663685024 L10.635110844823886,193.66864266944168 L5.991611743565095,185.7238892622305 L0.26213301378409104,181.84318279033926 L0.0,179.1236325857443 L4.905632115042882,176.74020656355924 L13.630916716589804,172.61504614064683 L18.274415817848595,167.84819409649378 L18.274415817848595,163.11189879613698 L15.278609946082677,157.36723094789926 L1.6102456560737648,141.78329157252472 L0.5242660275681821,137.47479068618355 L0.0,108.01808959236558 L1.348112642306304,96.49819715209384 L6.815458358303217,91.67023162013123 L18.798681845416777,85.92556377189351 L32.16746554823912,79.14196663197862 L37.37267825045194,72.6944936746907 L37.07309766326537,64.90252398711198 L35.46285200719161,60.25789891836098 L19.098262432586715,35.720833587894276 L17.450569203110472,27.592739717688573 L18.536548831632686,19.28130538405418 L24.26602756141369,11.82545987888534 L32.99131216297724,5.40854366561075 L46.09796285201549,1.3444967302907571 L60.29059316955932,0.0 L75.569203115642,0.4889079018252005 L90.54823247453811,5.225203202399143 L105.00299580586604,13.200513353189478 L113.72828040742958,22.33697977149319 L116.19982025164396,33.001283383299324 L115.11384062312175,42.65721444722453 L109.12222887957327,52.80205341319214 L100.09736369083979,62.54965470872315 L95.45386458958099,67.28595000907995 L50.44188136608771,102.15119476872582 L28.085680047934357,123.51035873613432 L26.175853804674023,127.2382814886102 L27.823547034150266,132.46348469100934 L37.37267825045194,138.0553688198317 L69.54014379869106,152.01980077009807 L82.64679448771268,159.1395220924228 L88.37627321749369,165.06753040387218 L91.10994607549215,171.14832243473688 L91.10994607549215,201.399498869428 L92.72019173158253,207.32750718087732 L97.92540443379536,214.26388803999043 L105.5647094068367,221.44472285034192 L113.72828040742958,227.03660697916428 L124.9251048532075,231.28399437747873 L138.03175554224575,233.97298783849453 L198.3223487118051,233.97298783849453 L208.6578789694424,231.10065391426713 L219.2929898142663,227.37273116179125 L224.4982025164791,226.5171423333257 L229.1417016177379,229.08390881872236 L245.5062911923428,244.30116726767372 L265.9526662672358,266.5770335513574 L270.03445176752393,272.16891768017973 L275.2396644697534,276.90521298053653 L284.78879568603844,280.6331357330124 L294.03834631517014,281.64150828089333 L329.50119832236174,278.76917435666587 L346.4275014979041,278.9525148200946 L363.6159376872471,282.64988082877426 L375.07489514679247,289.67793191949323 L380.542240862806,296.12540487678115 L400.16476932296086,364.29750045834 L402.0745955662212,372.6700482795669 L404.54613541043557,376.73409521488685 L411.62372678250625,377.25355986072543 L421.99670461354606,372.4867078163553 L428.25044937089524,371.47833526869147 L470.26662672258936,368.26987716183703 L474.08627920911005,370.8060869034375 L482.2872977831054,387.91786347253156 L491.0125823846689,410.3465134754135 L499.17615338526184,440.13933875207556 L499.99999999999994,447.9313084398714 L493.18454164171334,452.8509442034398 L482.54943079688945,454.3787813971593 L316.5443379269002,472.4989305139172" fill="#CD0027" stroke="none"/>
</svg>