<svg width="500" height="500" xmlns="http://www.w3.org/2000/svg">
<path d="M177.88835328878534,114.54458178326865 L268.0765044315986,195.06780271211716 L282.8098273988472,203.76815072602818 L293.0337428081817,206.70826833073033 L420.2301352825296,218.28873154926578 L425.16715907323135,216.78867154686912 L431.5814025816189,212.1684867394705 L436.8682942002517,206.40825633026168 L440.25034986785863,196.86787471499576 L441.10558233564365,187.80751230049833 L440.1337272589165,166.2666506660329 L436.4795521693399,136.98547941918008 L425.43927849464865,89.70358814352801 L422.4459648579535,79.62318492740246 L420.42450629798554,71.28285131405119 L419.33602861176394,61.082443297730265 L419.33602861176394,48.00192007679817 L421.20199035925674,18.900756030245248 L424.42854921494086,7.440297611905294 L428.86020836578865,0.5400216008595748 L432.59213186132666,-5.684341886080802e-14 L435.974187529486,1.3800552022144643 L439.70611102502403,8.040321612869263 L441.727569584992,12.12048481939496 L443.67127973899863,16.26065042602511 L447.16995801610005,20.820832833319344 L455.2169180535438,26.941077643101266 L461.98102938875763,29.821192847712325 L470.45560566009385,28.561142445693292 L474.8095164049803,31.261250450017883 L477.0253459804042,36.06144245770304 L478.3081946820817,43.74174966998595" fill="none" stroke-width="7" stroke="#db4a25"/>
<path d="M118.44969678104191,285.19140765630925 L109.9751205102581,353.47413896556725 L92.52060332773169,490.87963518541153 L91.54874825045216,493.75975039002265 L90.26589954932709,496.27985119404735 L87.85569895844728,498.9799591983719 L84.97900793014183,500.0 L81.44145545005972,499.87999519981787 L79.80873892100352,498.85995439817646 L75.72694759753439,490.87963518541153 L71.64515627461769,481.9392775711096 L68.61296843438947,471.7988719548797 L65.34753537572466,466.8186727469214 L49.95335095614695,447.7979119164806 L42.29513294961501,436.8774750990135 L37.513605971388515,429.7371894875902 L34.55916653712168,423.31693267731293 L31.565852899874155,407.6563062522518 L31.99346913376666,400.33601344054193 L32.84870160155167,394.7557902316196 L34.94790856803349,388.2755310212513 L33.85943088181189,384.1953678147123 L29.97201057379866,382.1552862114561 L22.81915720712061,378.37513500539904 L16.67703312070278,372.3148925957082 L9.135437723665357,364.15456618265677 L3.304307261645514,356.2342493699829 L1.2051002957161239,349.5739829593281 L0.23324521843659887,340.21360854434874 L0.0,331.99327973119284 L5.9088788679812305,316.4526581063272 L29.73876535536206,250.63002520101617 L60.41051158447051,165.60662426497782 L65.85290001557854,150.2460098403987 L70.94542061875546,142.98571942877987 L73.0446275852373,140.34561382455968 L80.04198413944013,138.18552742109472 L86.22298242883865,144.06576263051238 L94.03669724784581,152.4660986439547 L126.18566319408767,204.48817952718758 L129.06235422184068,206.76827073083473 L131.4336806097398,205.86823472938875 L133.6495101851637,199.38797551902047 L146.32250038891118,161.10644425777468 L163.27165293103124,116.8246729869158 L166.38158917722086,109.68438737549246 L169.37490281446838,108.00432017280929 L174.77841704259572,111.72446897876199" fill="none" stroke-width="7" stroke="#58fdff"/>
</svg>