<svg width="500" height="500" xmlns="http://www.w3.org/2000/svg">
<path d="M54.09434212262148,423.93547176898716 L74.33417251900948,436.22209716757123 L84.66940506153543,440.25511161153895 L97.12468530543029,440.0675295441917 L180.89969524298013,435.00281373114683 L193.61998144931073,444.8508722568821 L208.2615608850658,458.45057212556424 L229.39578640496865,477.7715250423402 L241.28792897827566,486.96304633302645 L250.82814363302361,493.43462764984304 L264.01219027420524,498.2179703622002 L283.19199681990875,500.0 L307.5394196366399,491.37122491102235 L330.0980522058706,476.36465953856856 L369.9151980918511,441.94335021599835 L398.23771034841366,414.0874132432519 L415.56247515565474,393.26580378936376 L437.72359878099644,366.44156818602767 L452.8620643963773,343.6503470269925 L466.1123625280502,320.01500656556107 L469.59056578778495,306.50909773021937 L469.7561945140131,298.06790470825575 L466.7748774343749,290.0956668543271 L461.9716443619907,282.4985931344266 L451.3714058565583,262.23972988191383 L448.953226447508,248.5462389795581 L448.3900887769201,229.31907709645571 L450.97389691266926,214.40630275767558 L456.9696568171912,203.15137872816865 L467.2386378692259,200.15006565361125 L478.50139128098306,197.6177077470888 L485.22591758279174,192.17782779968258 L490.3272823637988,179.5160382667372 L500.00000000000006,138.43556556000317 L499.6024910556403,132.24535734387428 L495.16364118189944,127.55580566485753 L492.48045580994267,124.0855374225984 L491.38730621401254,117.61395610578182 L496.09116205113065,75.87694616399875 L498.04558102532997,54.86775464276343 L497.38306611900526,48.489964359287285 L494.4017490393671,43.05008441188107 L483.4702530805369,41.36184580742173" fill="none" stroke-width="7" stroke="#58fdff"/>
<path d="M462.63415926831544,39.29844306893426 L66.38399363981748,0.0 L61.05074864162027,3.5640592759327774 L59.924473300444554,14.25623710373111 L61.74638929366137,27.57456387172556 L68.07340665158105,41.83080097545667 L84.23877037240081,69.03020071282089 L90.86391943800186,80.09754267498056 L99.87412216787834,83.00506471586436 L110.40810918234877,76.90864753340912 L141.1819265932072,40.04877133732367 L151.3184046642594,30.388294878935653 L161.42175698959522,30.01313074457437 L171.35948058823217,32.82686175211768 L180.70094077103562,37.14124929643992 L194.48125082805072,52.24160570256731" fill="none" stroke-width="7" stroke="#fae44a"/>
</svg>