<svg width="500" height="500" xmlns="http://www.w3.org/2000/svg">
<path d="M494.4017490393671,43.05008441188107 L483.4702530805369,41.36184580742173 L66.38399363981748,0.0 L61.05074864162027,3.5640592759327774 L59.924473300444554,14.25623710373111 L61.74638929366137,27.57456387172556 L68.07340665158105,41.83080097545667 L84.23877037240081,69.03020071282089 L90.86391943800186,80.09754267498056 L99.87412216787834,83.00506471586436 L110.40810918234877,76.90864753340912 L141.1819265932072,40.04877133732367 L151.3184046642594,30.388294878935653 L161.42175698959522,30.01313074457437 L171.35948058823217,32.82686175211768 L180.70094077103562,37.14124929643992 L194.48125082805072,52.24160570256731" fill="none" stroke-width="7" stroke="#db4a25"/>
<path d="M17.3247648072411,420.3714124930544 L25.473698158377598,415.77565184771123 L34.550152378274575,413.8060401425642 L42.334702530767714,416.8073532171216 L74.33417251900948,436.22209716757123 L84.66940506153543,440.25511161153895 L97.12468530543029,440.0675295441917 L180.89969524298013,435.00281373114683 L193.61998144931073,444.8508722568821 L208.2615608850658,458.45057212556424 L229.39578640496865,477.7715250423402 L241.28792897827566,486.96304633302645 L250.82814363302361,493.43462764984304 L264.01219027420524,498.2179703622002 L283.19199681990875,500.0 L307.5394196366399,491.37122491102235 L330.0980522058706,476.36465953856856 L369.9151980918511,441.94335021599835 L398.23771034841366,414.0874132432519 L415.56247515565474,393.26580378936376 L437.72359878099644,366.44156818602767 L452.8620643963773,343.6503470269925 L466.1123625280502,320.01500656556107 L469.59056578778495,306.50909773021937 L469.7561945140131,298.06790470825575 L466.7748774343749,290.0956668543271 L461.9716443619907,282.4985931344266 L451.3714058565583,262.23972988191383 L448.953226447508,248.5462389795581 L448.3900887769201,229.31907709645571 L450.97389691266926,214.40630275767558 L456.9696568171912,203.15137872816865 L467.2386378692259,200.15006565361125 L478.50139128098306,197.6177077470888 L485.22591758279174,192.17782779968258 L490.3272823637988,179.5160382667372 L500.00000000000006,138.43556556000317 L499.6024910556403,132.24535734387428 L495.16364118189944,127.55580566485753 L492.48045580994267,124.0855374225984 L491.38730621401254,117.61395610578182 L496.09116205113065,75.87694616399875 L498.04558102532997,54.86775464276343 L497.38306611900526,48.489964359287285 L494.4017490393671,43.05008441188107 L483.4702530805369,41.36184580742173" fill="none" stroke-width="7" stroke="#58fdff"/>
<path d="M180.70094077103562,37.14124929643992 L194.48125082805072,52.24160570256731 L307.50629389139425,236.35340461464767 L312.7070359081382,245.35734383798666 L315.0920895719429,252.86062652421356 L315.52272426107754,261.7707747138789 L312.40890420045685,273.96360907912253 L307.27441367420414,282.12342900039846 L301.9080429307613,292.34665166016185 L294.38849874117466,312.5117238793341 L292.20219954931446,330.9885574940471 L294.15661852398455,352.46670418331746 L294.4216244864203,368.50497092484835 L292.89784020135556,392.8906396550025 L289.48588843258284,406.20896642299687 L284.7820325954647,418.8707559559423 L279.54816483347514,427.1243669105586 L270.60421359456063,440.3489026448794" fill="none" stroke-width="7" stroke="#fae44a"/>
<path d="M270.60421359456063,440.3489026448794 L260.93149595835945,447.19564809605725 L251.2256525769126,452.7293190771371 L236.91533059502603,453.5734383795334 L225.68570292804375,448.4149315328149 L212.53478203257853,433.4083661603611 L145.81953093936332,331.55130369542246 L136.24619053936974,316.8261114239896 L131.34358023030714,314.66891765149524 L125.71220352442855,313.5434252487445 L120.08082681854997,315.4192459202179 L112.9256658276067,321.1404989683118 L106.89678017736837,329.7692740576227 L100.73539154614757,342.4310635905681 L94.308996952491,353.3108234853805 L85.89505763891876,356.8748827613133 L78.30926195837012,355.09285312318025 L70.16032860723362,345.05721253043095 L62.50828143619373,327.6120802851284 L55.55187491719494,310.07315700615214 L47.73419901945617,300.22509848075003 L39.684642904527294,296.09829300310867 L29.97879952308046,300.4126805477641 L21.06797402941161,307.5407990996297 L13.747184311769455,315.2316638528706 L8.049556114928881,329.58169199027543 L3.2794487877902734,350.6846745451844 L0.0,372.44419433514247 L0.9606466144768465,391.5775651849044 L2.583808135749171,404.1455636841762 L5.266993507235216,412.77433877348705 L10.732741486885672,420.3714124930544 L17.3247648072411,420.3714124930544 L25.473698158377598,415.77565184771123" fill="none" stroke-width="7" stroke="#fae44a"/>
</svg>