<svg width="500" height="500" xmlns="http://www.w3.org/2000/svg">
<path d="M326.609817426461,97.69195612445901 L325.51656280750154,92.5502742231717 L327.0471192740739,87.92276051193193 L330.98283590249287,81.58135283386702 L334.6999016070812,77.12522851930976 L346.2884005685075,66.04204753208137 L375.91560074339554,35.64899451564622" fill="none" stroke-width="7" stroke="#db4a25"/>
<path d="M393.8996392259967,17.19606946985192 L405.1601618016769,5.655850091740831 L409.2598666229204,1.3139853751072224 L415.32742975839767,0.0 L422.70689843666514,1.5996343693074664 L427.84519514595894,4.7989031079222855 L431.5622608505472,9.826325411691926 L432.3275390838577,15.482175503026781 L432.4915272767307,20.166819013025417 L433.0928173171681,23.994515539611427 L436.1539302503613,28.564899451686415 L439.7070077621251,32.049817184907454 L446.3211982070821,39.07678244970242 L450.80354214498084,45.3039305302496 L452.5527495353839,49.0744972580768 L454.79392150430897,51.30255941535546 L458.34699901607274,52.04524680084438 L462.44670383731625,51.13117001826697 L465.50781677050946,48.731718464711776 L466.437083196693,45.3039305302496 L464.41456215155006,42.390310786240946 L459.2216027112986,39.5338208409911 L443.86137531432627,24.79433272426519 L441.6748660763103,21.252285192285285 L441.62020334535265,17.82449725782311 L442.822783426276,15.196526508420618 L444.4626653547637,12.739945155700582 L451.6781458401581,9.940585009209599 L462.8293429539715,7.769652651095782 L468.8969060894488,6.055758683864724 L475.12845741775055,4.170475319951095 L483.76516890785047,1.8852833639136293 L493.16715863126086,1.3711151738660874 L498.14146714773017,3.25639853777966 L500.0,9.083638025797029 L498.25079260959694,43.132998172135785 L491.3086257789424,78.15356489981076 L484.09314529354805,100.43418647178515 L476.0577238438855,116.31627056693577 L462.28271564449176,134.4835466181239 L446.4305236689489,149.85146252282107 L423.47217666997557,168.761425959904 L390.6198753689727,183.9579524683246 L371.05061768884156,191.21343692896687 L333.33333333333337,204.52468007347386 L307.9698261725133,211.15173674614493 L270.52585547174493,217.83592321757487 L246.41959112275737,220.69241316282472 L233.62851208045626,222.5205667275735 L231.4420028424403,225.3199268740645 L231.2780146496158,227.77650822678447 L230.5127364163054,230.63299817203432 L228.87285448781768,233.43235831811933 L223.46124412373547,234.86060329074422 L215.8084617907282,235.8318098720805 L207.3357384935013,232.17550274217695 L202.68940636272953,231.94698354673557 L135.23559637036936,238.63117001857142 L101.72734229801999,242.28747714806906 L70.8975620422086,245.94378427797258 L62.37017601397551,246.9149908593088 L56.68525199520199,247.65767824520367 L52.58554717390993,250.85694698381852 L46.135344921825975,260.4547531992572 L40.66907182683463,269.76691042049555 L38.37323712690331,274.6229433275826 L36.296053350802715,279.07906764173396" fill="none" stroke-width="7" stroke="#58fdff"/>
<path d="M38.37323712690331,274.6229433275826 L36.296053350802715,279.07906764173396 L34.38285776757517,285.70612431440503 L32.36033672243226,297.2463436929221 L32.19634852955921,317.0132541134176 L32.46966218429907,321.9264168192635 L34.38285776757517,325.2970749545609 L38.209248934078815,328.5534734919346 L46.681972231305686,333.23811700193323 L52.36689625012776,337.18007312644295 L54.82671914288357,341.4076782451529 L55.81064829997619,347.52056672777644 L65.43128894716872,389.56809872024644 L67.89111183992453,396.93784277881235 L68.65639007323497,399.2801645340146 L68.4377391494528,402.4223034734647 L65.97791625669699,404.93601462534946 L60.56630589261477,407.7925045705993 L55.15469552858111,409.79204753203067 L53.89745271674864,412.64853747728046 L54.93604460479894,418.64716636198034 L61.11293320214303,432.30118829985236 L66.74319449000743,442.584552102427 L72.48278123973863,450.69698354688774 L82.32207281076188,461.32312614282745 L94.67585000545009,470.74954296158353 L103.7498633431629,474.69149908609324 L113.91713129988369,478.290676416832 L119.00076527821982,480.0045703840631 L121.569913632891,482.17550274217695 L124.52170110416884,488.8596892140128 L123.10047009946332,492.4017367459927 L118.50880069969779,494.4584095065888 L98.11960205529851,498.51462522861624 L86.74975401770293,499.88574040248227 L79.26095987756867,500.0 L72.59210670165399,499.2573126145111 L68.38307641849512,496.85786106054996 L65.81392806382394,494.8583180987127 L65.70460260195712,490.17367458871405 L64.72067344481596,486.40310786129277 L62.75281513063073,481.77559415005305 L51.27364163111978,471.09232175494856 L42.85558106480204,460.86608775153877 L36.296053350802715,453.21069469836664 L29.353886520148176,438.69972577708205 L13.993659123175895,398.3089579526784 L9.784628840065576,385.2833638027776 L6.832841368739178,371.34369287029944 L3.0064502022355284,351.0054844609975 L0.0,324.5543875686661" fill="none" stroke-width="7" stroke="#fae44a"/>
<path d="M3.0064502022355284,351.0054844609975 L0.0,324.5543875686661 L0.0,307.3011883000553 L0.9839291570926156,294.104204753472 L2.8971247403201654,280.3930530164352 L6.286214059259464,270.8523765997554 L10.112605225763113,262.2829067644119 L11.971138078032983,257.02696526520094 L12.900404504216468,252.39945155396114 L12.463102656603565,245.37248628916618 L12.299114463730522,241.0306215725326 L14.157647316048939,238.4597806218889 L18.913304908687525,236.74588665465785 L30.501803870113836,234.63208409530284 L40.83306001965913,234.28930530193782 L54.990707335708066,232.97531992683065 L74.72395320871226,231.090036563323 L92.21602711269426,228.7477148081207 L136.71149010603256,218.86425959807588 L161.58303268833055,213.72257769678856 L184.3773914944794,210.92321755029764 L200.01093254619155,209.95201096896136 L212.20072154805524,206.6384826328288 L247.45818301080766,194.01279707505188 L262.9277358696953,189.2138939671296 L285.50344375206197,185.38619744054358 L304.3620859297918,183.38665447911222 L322.34612441239295,181.10146252307476 L332.4587296381561,178.41636197450742 L344.75784410188663,172.58912248649006 L355.41707663712947,164.19104204782906 L361.42997704164907,157.10694698386925 L364.10845085818704,149.68007312613855 L363.6711490106227,141.9104204754487 L361.9219416202196,134.59780621604756 L358.095550453716,126.54250457034561 L353.0119164753313,118.88711151757946 L345.0311577566265,114.20246800758082 L337.37837542361916,108.77513711168734 L333.6613097190309,106.3185557589673 L330.21755766918244,103.6905850091589 L326.609817426461,97.69195612445901" fill="none" stroke-width="7" stroke="#db4a25"/>
</svg>