<svg width="500" height="500" xmlns="http://www.w3.org/2000/svg">
<path d="M16.275759638612893,317.56895314259714 L30.78779627451058,218.7019378651545 L37.378550652889885,177.25315287602297 L38.09022835573506,175.56136573350534 L40.13243393771931,174.58730646978063 L42.669719660870605,174.35660822312332 L45.79491305157531,174.58730646978063 L48.734451389342375,174.71547216242868 L51.45739216537634,174.58730646978063 L53.31394269447792,173.7414128985218 L54.76824060896372,172.53665538795764 L55.13955071478404,171.46006357004154 L55.13955071478404,170.25530605965952 L44.86663778699704,147.64687788360402 L43.41233987251123,141.4949246384994 L42.855374713808246,135.93253357935737 L43.59799492544887,129.88311288826196 L47.43486601894379,100.4050035886732 L48.92010644222505,95.58597354659872 L50.74571446253117,91.10017430537278 L53.499597747360596,86.28114426329824 L57.15081378797284,81.07761714346162 L61.358994987288064,76.00225571609093 L67.57843925984706,70.31169896430083 L73.98353858528871,65.62083461487441 L82.61649854570724,60.28914180238968 L91.96113620891597,55.572644314506476 L102.38876168079018,51.24064390438542 L113.55900736430503,47.49820568022693 L126.18355096230569,43.858300010259825 L138.8390370691018,41.320619296483414 L152.76316603750104,39.039269968185295 L168.51290302615143,37.45001537985905 L184.63395012067713,36.60412180860021 L247.44724302245098,33.47687890904331 L324.37031994556173,30.81103250280097 L328.9498112506973,30.580334256143658 L331.3323844297064,29.836973238894075 L333.34364750295015,28.63221572851205 L335.88093322604647,23.428688608493246 L336.99486354356236,21.993232851453968 L338.82047156381356,21.019173587547073 L341.94566495451824,20.429611401584452 L352.3732904263925,19.327386445211573 L363.7291911628449,17.89193068799017 L379.85023825731565,14.867220342442408 L451.8225137694156,0.8458935710766582 L458.04195804197457,0.0 L463.9210347175087,0.0 L469.58351383130974,0.6151953244193464 L473.6060399777423,1.563621449687389 L477.47385358003265,2.8965446528995926 L481.1250696206449,4.357633548577837 L485.70456092578047,7.25417820147743 L488.2727891577272,9.535527529957676 L490.09839717803334,12.329539628848124 L491.0266724426116,15.456782528405029 L494.1209233244659,35.271198605570135 L500.0,69.10694145391881 L499.81434494706235,72.13165179946651 L498.8860696825391,74.07977032709817 L497.43177176805324,75.77155746943367 L495.0491985890441,76.97631497999782 L490.65536233679126,78.66810212233327 L443.5918064236678,93.4071567723098 L405.3159230150501,105.83922895516713 L381.49019122468417,113.45227109594998 L369.948635435349,117.32287501275653 L356.95278173152803,122.62893468678448 L347.6081440683193,126.75586998870506 L339.56309177545415,130.85717215216886 L297.79070487036637,151.64564749305862 L268.1477814221122,167.23059571411181 L205.48920106442554,199.11822003482888 L167.7702828145108,218.34307392584913 L162.6338263506173,221.36778427139689 L160.62256327742853,223.29026966057177 L160.2512531716082,225.21275504974665 L160.2512531716082,227.51973751668362 L161.55083854200677,232.5950989438722 L161.9221486478271,235.36347790412373 L161.9221486478271,239.36224751357838 L161.36518348906915,241.5410642878673 L159.87994306578787,244.30944324811884 L157.68302493966144,247.56485184032383 L154.0318088990492,250.84589357116772 L149.08100748809335,254.22946785602082 L143.41852837429232,256.9978468162724 L138.8390370691018,259.0484978980953 L136.4564638900927,260.6377524864216 L134.6308558697866,262.7909361222538 L132.95996039356768,266.7897057315263 L129.12308930007276,285.04050035882176 L125.10056315364021,304.4960524966815 L93.97239928215973,478.955193273814 L92.67281391176114,485.23531221156674 L91.40417105021298,488.1574900031053 L88.83594281826623,491.1565672100141 L85.33943932174121,493.59171536959917 L81.31691317530866,495.7705321438881 L75.65443406150762,497.9237157797203 L69.43498978894863,499.25663898275036 L62.28727025186634,500.0 L56.22253852344953,499.74366861470384 L50.56005940959353,499.0259407360931 L43.969305031269194,497.5648518404149 L37.56420570577256,495.8730646980794 L32.799059347754344,493.95057930890454 L27.105637725102884,491.41289859531025 L20.70053839966122,487.41412898585565 L16.306702147408352,483.79985645434533 L12.469831053913436,479.9292525375388 L9.158982610326055,475.34092074230364 L6.064731728471772,470.2655593151151 L3.6821585494076965,465.0620321950963 L2.56822823194675,460.6018660925093 L1.2995853703985865,453.83471752280315 L1.1139303174609463,447.06756895309695 L0.928275264578271,440.6592843226962 L0.37131010582031543,427.97088075454263 L0.0,416.8460986362586 L0.37131010582031543,404.77289039270664 L2.7538832848843904,388.95724392481407 L11.727210842272806,338.9213575309928 L16.275759638612893,317.56895314259714 Z" fill="none" stroke-width="3" stroke="white"/>
</svg>
