<svg width="500" height="500" xmlns="http://www.w3.org/2000/svg">
<path d="M262.22422156156847,285.2718513419453 L320.3332811766443,356.2456985548398 L349.9647942418995,392.93702684112253 L351.8228759192574,393.9693737095092 L353.5636050696252,393.75430144516014 L354.95227663902267,392.54989676517187 L355.7541855734522,390.7002752924419 L356.1062431544226,388.2914659324655 L356.5756532624004,363.3430832759153 L357.0255046158596,358.09532002756976 L357.7296197778003,355.25636613889503 L359.00093882020764,352.20233998617687 L360.97637302455564,348.3310392291155 L363.7537161633506,344.50275292510725 L366.98091065560476,341.6637990364326 L370.46236895634036,340.0292498280517 L374.04162102956485,339.64211975210105 L378.109841965251,340.0292498280517 L381.806446565483,342.0509291120776 L384.7011422312506,344.88988300075226 L387.12642778907525,348.54611149346454 L391.7618526052108,356.6758430832324 L396.2799248943735,363.3430832759153 L401.48255359097567,369.6231933929532 L407.03723986856556,374.6988988300029 L412.474573619148,378.57019958706434 L418.2639649507007,381.19408121138997 L423.9360037552807,383.2157604954158 L430.4295102487741,384.033035099759 L437.25551556875394,384.033035099759 L442.69284931935374,382.8286304197708 L448.03238929744725,380.76393668269174 L453.3523705210396,377.92498279432266 L458.67235174463184,374.4838265656538 L463.1904240337946,370.44046799729654 L466.08511969956226,367.6015141086218 L468.62775778437697,365.57983482459593 L471.0530433421842,364.37543014460766 L473.49788765451007,364.1603578802586 L476.04052573930744,364.9776324846018 L478.465811297132,367.2143840329768 L480.55859802847016,370.2253957329474 L481.94726959786766,373.27942188566556 L482.74917853229715,376.3334480383838 L483.4532936942552,379.9896765314017 L483.9031450477144,385.0223675153982 L483.9031450477144,391.34549208518365 L483.218588640275,395.99105299384075 L482.18197465184784,400.4645560908963 L480.6759505554603,405.1101169992477 L479.2872789860628,408.379215416315 L468.15834767641655,431.6930488644843 L464.4617430761846,439.994838265548 L460.8824910029601,449.11390227126066 L457.2836801752344,459.8675154853541 L455.66030355185666,466.1476256020864 L454.97574714441726,469.97591190640026 L454.62368956344693,473.63214039911253 L454.97574714441726,477.28836889182486 L455.7776560788468,480.5574673088921 L456.931622594264,483.78355127321186 L458.9070567986121,487.6548520302733 L461.4496948834268,491.09600825863646 L464.9311531841624,494.9242945629503 L468.5104052573869,497.76324845162503 L472.1092160851126,499.3977976600059 L475.33641057736673,500.0 L478.58316382412215,499.7849277356509 L481.94726959786766,498.58052305566264 L485.07667031763293,496.77391603568026 L488.18651228289696,494.53716448730535 L490.5140040682153,492.08534067458123 L492.5872320450522,489.46145905025566 L494.32796119542,486.2353750859359 L496.18604287277793,482.57914659322364 L497.6920669691655,477.89057123181897 L498.8460334845828,474.06228492781077 L499.5305898920222,469.8038540951043 L499.8826474729925,465.54542326209224 L500.0,461.6741225050308 L499.7652949460024,376.7205781143344 L499.7652949460024,370.8275980729415 L499.5305898920222,366.39710942863354 L499.08073853856297,362.3107364075287 L497.92677202314576,356.6758430832324 L496.6358942262545,350.7828630418395 L495.14942888436815,346.309359944784 L493.17399468000275,341.6637990364326 L490.63135659520543,336.9752236750279 L487.7366609294204,332.11459050232736 L484.60726020965507,328.07123193397 L481.8299170708775,325.01720578125185 L479.1699264590727,322.78045423257123 L476.6077296197741,320.9738472125889 L455.7776560788468,307.9834824501205 L430.9967141292408,292.9714384033206 L407.15459239555565,278.77666896086396 L378.7943983727078,261.95801789408165 L353.5636050696252,246.55884377133114 L350.43420434985995,244.3220922229562 L347.5395086840749,241.69821059863057 L326.35737756219464,218.38437715076697 L322.52386168048866,214.12594631806053 L320.6853387576146,210.85684790099322 L314.6612423720817,196.05987611823684 L313.03786574870395,193.6510667582603 L310.7299327178695,191.4143152098854 L308.4024409325511,190.81211286989122 L306.68127053668456,190.81211286989122 L304.82318885932665,192.23158981422858 L303.31716476293906,194.03819683421096 L295.2198404005518,206.21128699233617 L293.479111250184,208.23296627666764 L291.50367704583596,208.83516861666175 L289.43044906899905,208.23296627666764 L266.3902362697435,194.46834136260355 L193.57299327177958,150.85168616654124 L164.1566265060207,133.00068823106665 L76.29870129869956,80.4800412939465 L55.8011265842587,68.13489332421977 L53.72789860740443,66.50034411553332 L51.98716945703662,64.26359256715835 L51.06790799561697,62.241913282826886 L50.01173525268859,59.8331039228504 L48.857768737288715,56.779077770132176 L48.0558598028418,53.72505161741401 L43.420434986688946,36.089125946288505 L42.149115944298956,32.647969717619674 L40.8777969018916,28.776668960558254 L38.902362697543566,24.733310392200963 L37.063839774669525,20.259807295145436 L35.2057580973116,17.033723330825694 L31.606947269585877,11.74294562973256 L28.14504772335151,7.312456985424603 L25.01564700358623,4.258430832706381 L21.416836175860507,1.806607019982323 L18.189641683606364,0.3871300756449614 L16.09685495226822,-5.684341886080802e-14 L13.788921921451099,0.6022023399941077 L11.461430136115359,1.806607019982323 L9.622907213258687,3.6562284927122732 L7.764825535900767,6.28011011703785 L6.7282115474910045,8.30178940106373 L6.0240963855329595,10.968685478136877 L0.5867626349505609,36.69132828628267 L0.0,40.13248451464585 L0.0,41.767033723332304 L0.46941010796044874,44.00378527170727 L1.5060240963875828,45.63833448039372 L3.129400719747906,46.41259463168376 L6.258801439513184,46.24053682038783 L17.133468940695355,43.401582931713165 L20.26286966046063,43.401582931713165 L23.392270380208537,44.00378527170727 L26.052260992013366,45.81039229168965 L27.910342669371285,48.26221610441371 L29.53371929274898,51.10116999308843 L30.452980754186004,53.72505161741401 L31.372242215605652,57.166207845777194 L31.72429979657599,60.00516173414627 L31.8416523235661,62.456985547175975 L31.606947269585877,65.68306951119007 L30.570333281176115,75.6194081209403 L30.570333281176115,78.07123193397001 L30.92239086214645,80.69511355798994 L31.606947269585877,83.14693737101965 L32.99561883898335,85.16861665504553 L35.08840557032149,88.00757054372019 L47.58644969488136,99.96558843749625 L57.77656078860673,109.08465244320888 L67.02785166639383,115.36476256024679 L75.1447347832823,120.8275980729415 L79.31074949147472,124.3117687543579 L83.82882178062009,128.1400550583661 L88.67939289625193,133.43083275976488 L95.0555468627726,140.3131452167969 L103.50492880613017,151.23881624218626 L110.21358159911992,159.15347556760503 L114.37959630729496,165.86373021334117 L120.05163511187496,175.36992429439317 L122.49647942418343,178.20887818306784 L125.8410264434277,181.26290433578606 L138.35862932247144,192.4036476255245 L142.1725864496935,194.85547143824857 L145.1846346424513,195.24260151419924 L147.96197778124625,194.64039917420507 L150.7393209200412,193.0488644182662 L153.28195900483854,190.38196834119304 L155.02268815520634,187.54301445282397 L156.88076983256425,183.49965588446662 L158.48458770144072,180.27357192014688 L160.57737443279623,177.60667584307373 L162.6506024096331,176.40227116308546 L164.9780941949515,175.80006882309135 L167.99014238772665,175.80006882309135 L171.11954310749192,176.18719889873637 L173.8968862462695,177.60667584307373 L175.61805664215342,179.45629731580368 L188.13565952119717,194.85547143824857 L204.68236582694198,215.33035099774315 L223.43921139101502,237.4397797659242 L241.4919417931474,259.93633860975024 L262.22422156156847,285.2718513419453 Z" fill="none" stroke-width="3" stroke="black"/>
</svg>