<svg width="500" height="500" xmlns="http://www.w3.org/2000/svg">
<path d="M333.2529103082457,447.9870495498303 L298.811749804001,462.485923423609 L213.4929730382078,499.29617117144767 L207.61203932689463,500.0 L203.691416852668,494.36936936958114 L197.086675915352,474.09909909897294 L176.18674226434624,429.3355855859426 L153.50744918272784,378.23761261294095 L135.68369624226088,333.12218468488436 L119.42819229148455,288.64020270267486 L92.82827673563953,196.72015765763598 L85.49972857232072,172.22691441421364 L74.25055793477527,143.3699324325667 L56.939501779389175,109.79729729716888 L28.19832317993013,64.04842342326515 L1.5984076241386873,21.889076576828586 L0.0,16.258445945909614 L0.18095180652749332,10.27590090096453 L3.226973882618265,7.319819819844611 L10.19361843298924,5.349099099097941 L31.968152482077304,1.3372747748995266 L53.74268653116537,0.0 L76.24102780625627,0.35191441452616345 L97.65365824239649,3.659909909672251 L122.47421436757533,9.994369369143499 L198.3231799264357,33.22072072087161 L232.94529223720792,40.470157657510924 L307.73870559140494,45.46734234258281 L313.83074974364007,48.77533783772884 L317.5704204113928,55.39132882902112 L318.987876229004,62.71114864886573 L318.62597261594897,70.38288288273645 L316.66566137886247,77.63231981987582 L309.18632004346415,94.59459459483787 L303.275227697703,105.8558558556756 L292.38796067315894,121.12894144171202 L280.4451414440051,131.4048423421765 L265.9689969238414,139.00619369384208 L250.25634839254045,143.01801801804055 L233.85005126968466,141.3288288291149 L170.12485674650557,125.07038288270519 L161.5598045720495,126.75957207213094 L154.59316002173207,130.70101351362416 L148.53127450389144,137.38738738762163 L143.16303757765914,146.3260135136867 L139.7852705229614,156.95382882867733 L137.97575245795434,168.5670045045414 L137.6440074793474,179.19481982003214 L138.69955968395718,190.80799549539609 L140.6598709210437,199.39470720743498 L171.54231256411677,284.9802927930026 L176.72959768382157,293.9893018017728 L184.93274624527623,302.22409909928547 L194.40255745220907,305.60247747763685 L203.5104650461405,304.2652027027373 L213.13106942520636,297.9307432432661 L219.042161770914,290.32939189210055 L225.10404728875466,278.36430180171027 L230.8040291935939,266.7511261263463 L236.896073345829,256.82713963990795 L244.19446287475336,248.87387387371618 L252.75951504915588,240.85022522531926 L264.7324929127577,233.88231982000087 L277.21816756138685,229.58896396398143 L376.10832981486703,226.2809684683353 L452.1684058145958,223.3248873872153 L460.190602569523,223.60641891903634 L468.03184751797625,227.97015765776098 L474.4857952832128,235.5715090089265 L479.64292176852314,245.84740990989104 L483.56354424274974,259.4313063065017 L499.09524096752324,342.4127252254756 L500.0,350.01407657664106 L499.09524096752324,355.6447072070599 L497.31588153691064,360.0084459462847 L491.25399601907,367.6097972974502 L483.2317992641428,375.2111486486157 L472.85722902467967,383.5163288288336 L461.09536160205334,391.46959459452535 L447.16207250136495,398.7894144143699 L333.2529103082457,447.9870495498303 Z" fill="none" stroke-width="3" stroke="black"/>
</svg>