<svg width="500" height="500" xmlns="http://www.w3.org/2000/svg">
<path d="M146.39165390525858,270.40935672515513 L17.228177641663798,283.39181286550263 L11.294027565120938,282.80701754386143 L5.934150076542861,279.5321637427015 L2.249234303655489,274.79532163742556 L0.23928024509867224,268.3625730994237 L0.0,261.11111111111893 L2.1535222052079748,253.50877192983455 L7.178407350919941,247.7777777777918 L13.973966309409978,245.14619883041914 L21.918070444509656,247.07602339183268 L36.657733538099365,253.50877192983455 L41.58690658536382,252.5146198830418 L45.75038284844854,247.4853801169582 L47.090352220593054,241.34502923976396 L45.75038284844854,233.2748538011822 L41.347626340265144,225.08771929825656 L31.29785604952129,210.0584795321776 L27.038667687989058,200.8771929824593 L24.263016845932583,190.00000000001506 L22.923047473788063,179.0643274853989 L22.923047473788063,166.66666666666669 L25.36370597297843,136.14035087721135 L29.287901990964475,121.81286549709154 L35.461332312606004,107.19298245613805 L41.68261868313126,97.77777777778402 L51.25382848435785,87.19298245614743 L61.303598775101705,79.12280701756566 L71.83192955604291,74.3859649122897 L130.98200612593664,50.81871345030555 L175.2488514549094,29.532163742688567 L204.87174578874001,13.859649122822418 L223.9663093416294,3.2748538011858273 L230.57044410390446,0.0 L235.49961715184898,0.23391812866168493 L239.75880551338122,3.508771929847512 L241.29019908106062,10.058479532167212 L249.5214395101427,66.14035087719213 L254.54632465517457,95.0292397660935 L261.6290199083271,130.05847953216306 L266.7974732006902,143.5672514620059 L272.5880551299018,153.21637426902168 L282.54211332287827,162.9239766082094 L292.4004594180872,169.35672514621126 L302.21094946373245,172.33918128656347 L311.83001531384275,172.8654970760328 L322.78905053609753,170.8187134503014 L333.98736600277095,165.4970760234101 L341.93147013787063,158.53801169591299 L357.43683001496004,138.2456140350887 L365.04594180719357,132.6315789473898 L377.00995405804673,127.60233918130615 L387.20329249612183,127.19298245615471 L397.2530627868657,128.8304093567346 L405.38859111750025,132.92397660819745 L412.6627105661876,140.00000000001245 L499.52143950980263,260.9356725146291 L500.0,266.84210526316167 L497.99004594144316,273.5672514619971 L483.20252679896976,314.0935672514737 L478.7519142419026,317.89473684210293 L473.487748851092,319.41520467836494 L394.19027565082683,325.02923976608986 L319.72626339937864,335.6725146198984 L278.9050535988746,343.85964912282395 L275.0287136290922,347.71929824562505 L273.7844563553952,354.093567251481 L277.23009188386396,361.228070175442 L306.3265696786135,380.87719298245304 L312.6914241957899,388.7134502923991 L317.14203675353707,400.29239766082844 L319.3912710565125,412.3391812865551 L319.0562787136464,429.5321637427093 L317.14203675353707,443.976608187147 L314.50995405813177,458.07017543860513 L307.5708269523105,476.08187134503635 L297.1860643187005,494.50292397661894 L291.49119448725634,498.8888888888894 L286.03560490023074,500.0 L279.8621745785892,498.5964912280818 L274.93300153132475,494.67836257310876 L183.95865237350876,403.1578947368628 L177.59379785633234,400.29239766082844 L169.41041347613398,399.70760233918713 L160.46133231243599,402.4561403508777 L127.29709035236918,423.2163742690253 L118.44372128643862,426.60818713450305 L107.91539050549741,428.3625730994268 L98.67917304781702,428.24561403510893 L81.45099540615321,424.4444444444538 L69.72626339971865,418.5380116959213 L62.11715160816516,411.1695906432726 L51.92381317009007,394.7953216374474 L48.33460949497014,382.51461988305897 L47.80819295588907,375.0292397660925 L52.0673813174213,366.6081871345051 L61.207886677334265,361.988304093573 L421.99464012231556,280.99415204679167 L427.16309341467866,275.43859649123874 L430.94372128601356,264.7953216374302 L429.0294793259043,255.9064327485455 L422.4732006125129,247.60233918130203 L411.705589586473,245.5555555555706 L146.39165390525858,270.40935672515513 Z" fill="none" stroke-width="3" stroke="black"/>
</svg>