<svg width="500" height="500" xmlns="http://www.w3.org/2000/svg">
<path d="M132.62774288596142,447.76351211430904 L94.98332945679134,458.5317871195219 L88.12126851208578,459.25657486026444 L79.86353415517787,459.25657486026444 L72.49748003448644,456.5645061089612 L67.4575482674656,454.13129012228774 L60.78933085232442,449.26485814875684 L55.98201132067063,444.34665562226326 L52.29898426004945,438.75543590817375 L49.54640614144744,432.180575688528 L47.25905249302861,425.5539449161035 L47.02644025766155,418.5131497205289 L47.25905249302861,410.4369434666192 L48.18950143449684,404.32801822327025 L49.7790183768145,398.477945744551 L52.764208730783565,393.35266100639035 L56.912460262138865,388.95216400915626 L66.10064356051501,384.3445848002551 L74.59099015278997,384.3445848002551 L81.22043886212847,387.2437357630414 L83.97301698073048,390.6605922550872 L85.83391486421789,394.33630151176266 L86.02775839378225,399.46158624973936 L84.67085368683165,406.7612342099437 L81.91827556822965,417.73659142682357 L81.22043886212847,422.39594118868746 L82.84872450969787,427.05529095055135 L86.72559509988344,431.9217229240822 L93.39381251447368,434.8208738870524 L100.72109792991336,433.11244564093755 L104.63673722590158,430.2132946779674 L107.15670310968748,425.3468627044365 L109.44405675755537,420.4286601781268 L111.7314104059742,413.853799958665 L113.12708381817656,406.5541519984606 L113.59230828891067,398.21909297992124 L112.42924711207539,391.17829778416274 L108.7462200514542,383.3609442948828 L106.22625416766832,378.4945123213519 L98.66635651741251,367.9850900807688 L78.46786074297552,343.3423068958898 L62.88284097117888,320.14909919231195 L50.011630612181555,304.30731000208516 L33.96138636909986,283.54731828536467 L28.921454602079017,273.76268378552413 L26.5953322478575,266.7218885897656 L10.079863534592622,211.32739697665858 L4.807319532204721,194.70904949254253 L0.23261223591799463,178.3495547732402 L0.0,174.20791054045185 L2.054741413051773,170.79105404840607 L6.20299294440707,168.82377303784546 L13.29766612392875,170.32511907229326 L20.66372024517111,175.9163387865667 L26.827944483224556,181.76641126528597 L33.03093742763163,189.32491199012003 L41.75389625527365,199.57548146607343 L49.313793905529444,212.2592669288842 L62.650228735811815,238.86933112450782 L80.52260215547636,274.7463242907125 L86.2603706291493,284.7380410022201 L91.99813910227132,292.5553944916839 L98.43374428204545,299.64796024022127 L105.99364193230126,304.30731000208516 L114.05753275964479,307.72416649413094 L122.31526711655269,309.6396769517288 L131.92990617986027,309.6396769517288 L140.42025277213523,307.72416649413094 L148.67798712904315,304.30731000208516 L156.93572148595103,298.40546697040315 L164.76700007792752,291.1058190101988 L170.93122431598096,282.82253054462217 L177.59944173057121,266.4630358251359 L187.9119175005309,241.56139987581105 L192.29278126725325,234.00289915097693 L196.86748856353998,228.87761441300023 L202.60525703666198,224.99482294465776 L211.09560362893697,220.8014081590906 L219.12072575047782,220.07662041834806 L226.02155540043512,220.8014081590906 L232.2245483448422,223.49347691039384 L237.72970458259715,227.63512114299823 L241.6065751727827,231.3108303996737 L245.05698999748589,235.71132739690785 L262.03768318203583,273.29674880922744 L266.18593471339113,278.422033547388 L271.225866480412,280.13046179331894 L276.03318601206576,279.1468212881306 L280.41404977933905,277.1795402775699 L297.39474296333805,251.5531165873186 L299.68209661175683,246.427831849158 L299.68209661175683,241.82025264025685 L298.2864231990036,237.16090287839296 L256.7651391796479,156.6576931041102 L230.8288749320889,108.82170221583726 L202.37264480129494,55.13563884866119 L198.4957742111094,53.686063367176075 L194.58013491512114,54.87678608403144 L190.89710785449998,58.55249534052302 L186.5550127935803,64.14371505479647 L182.406761262225,69.99378753369962 L178.5298906725904,72.94470904944865 L173.683802434583,74.65313729537957 L168.64387066756214,73.6694967901912 L163.6039389005413,68.5442120522145 L157.63355819205222,60.98571132738044 L154.64836783753222,54.87678608403144 L152.82623866039845,49.28556636975799 L151.8957897189302,40.950507351402564 L152.3610141896643,33.392006626568445 L153.5240753664996,26.092358666364078 L155.57881677900045,19.258645682272572 L161.08397301730633,10.975357216695897 L166.35651701969425,6.316007454832061 L173.683802434583,2.6402981983404743 L181.51508102655944,0.7247877407425563 L187.71807397096651,0.0 L195.27797162122232,0.46593497611280554 L205.12522291989694,3.1580037274160304 L211.56082809967108,6.316007454832061 L218.22904551481227,10.457651687620341 L227.37846010683478,20.24228618764488 L235.4423509341783,33.184924414901445 L322.6331705047959,185.44212052177755 L377.0256648831488,279.1468212881306 L405.2492827791267,327.96645268177576 L430.02248584929947,372.1267343135571 L462.8208110410131,427.9871609029609 L497.9452585869482,486.5914267964467 L500.0,491.71671153460727 L499.767387764633,496.5831435079542 L496.78219741011293,500.0 L491.97487787845915,499.5340650238872 L482.08885787398185,494.14992752128074 L476.3510894003089,489.49057775941685 L469.9542529268884,484.1582108097732 L402.7293168953408,379.4263822737615 L399.7441265408208,377.51087181616356 L394.2389703030658,376.993166287088 L309.9945723811656,399.7204390143691 L132.62774288596142,447.76351211430904 Z" fill="none" stroke-width="3" stroke="black"/>
</svg>