<svg width="500" height="500" xmlns="http://www.w3.org/2000/svg">
<path d="M428.5048595393414,304.7072553978766 L408.40101184928534,327.3033780716546 L297.863134070032,449.10199053358224 L261.6162960990524,482.8827076443363 L251.36466515776718,491.1495817934255 L243.11010517906846,495.5585813394836 L233.45759552656213,498.4763016273704 L223.4056716815341,500.0 L214.15257622154212,499.5461323996569 L203.9009452802569,498.1521104843998 L195.24697110903645,495.8827724826845 L187.55824790307622,492.2194125657121 L181.03448275861865,486.3839719899386 L179.07069631207256,484.1146339882233 L169.21847956330905,471.2766647214755 L158.20130475302815,459.8002982557569 L146.38530155771858,450.3339168774693 L138.29716415923664,444.53089541592374 L129.24377579550185,438.5657783830081 L113.26720809479511,428.7752058612892 L77.61949141259441,403.26136289962443 L74.05804819597617,401.89976009859527 L69.13193982159812,401.5755689553944 L64.23911596325308,402.9695908708818 L49.26108374383959,411.07436944814026 L44.135268273196985,412.14420022042685 L39.00945280255438,411.8200090774563 L34.682465716947846,410.7501783051697 L28.55811476501199,407.2489139595674 L22.067634136602187,403.26136289962443 L13.979496738120238,396.84237826613537 L8.088137398481951,389.96952603253357 L3.927572893092191,382.9345782273314 L0.3994141925217331,374.991895221443 L0.0,371.78240290481364 L0.9985354812932469,368.5729105881843 L3.927572893092191,365.525513842925" fill="none" stroke-width="7" stroke="#fae44a"/>
<path d="M297.46371987751024,4.733190689258947 L388.2971641592292,0.0 L404.44015444015275,0.5835440574851987 L416.8552789242412,3.047396745028891 L424.9434163227232,6.256889061658228 L434.59592597523687,12.967645723889916 L440.68699241113234,20.61855670103563 L445.61310078551037,30.247033650923754 L452.5362801224823,46.58626726304351 L459.625882039671,62.63372884642064 L463.75316202902036,80.36698437402788 L465.51724137930927,91.51915969654556 L467.8804420183697,118.55670103083997 L468.878977499663,141.63911041941935 L470.44334975369475,150.65162419759423 L476.16828651310885,159.08059391805358 L486.9857542271326,170.84873241251483 L491.5457329250441,177.55948907474647 L491.3460258287795,182.61687090697603 L489.348954866193,188.54956882566375 L474.0047929703056,212.86390455813012 L473.00625748901234,222.6544770796187 L475.36945812808017,229.65700577059295 L480.8946877912371,235.6221228035086 L496.07242710690775,248.29799649865592 L499.60058580747824,254.13343707442945 L499.99999999999994,261.00628930826156 L497.43709226467496,267.26317836991984 L488.183996804683,274.1360306035216 L476.3679936093734,279.1934124359815 L460.19171881240953,284.83433832592664 L447.6101717481043,289.2757569862126 L438.7232059645862,294.4628152758147 L428.5048595393414,304.7072553978766" fill="none" stroke-width="7" stroke="#58fdff"/>
<path d="M11.017174810280896,358.7823380664654 L119.7909732392527,273.844258574779 L144.22180801490794,255.04117227511554 L149.31433896951015,251.50748881528528 L158.20130475302815,248.00622446991332 L168.8190653707873,246.4825260972837 L177.5063240580482,246.3204305259136 L189.52203434962232,246.93639369762676 L223.00625748901237,249.983790442886 L234.05671681533366,250.76184918619964 L245.47330581813628,251.05362121494224 L258.4875515909963,249.983790442886 L270.30355478631327,248.1683200415138 L280.9213154040724,244.6346365816835 L350.2862468379681,211.63197821424313 L354.8129410198392,209.81650781310123" fill="none" stroke-width="7" stroke="#db4a25"/>
</svg>