<svg width="500" height="500" xmlns="http://www.w3.org/2000/svg">
<path d="M150.851987971925,53.0233561679766 L106.27575453835915,4.962511462250575 L105.80242788729245,2.8048977830611648 L107.77926272411352,0.890015642560229 L111.89998886288895,0.0 L116.49404165273106,0.7821349586773749 L131.16716783604602,5.340093856127908 L166.77803764338097,15.885430713578103 L183.9013253146084,22.385241922452337 L201.72068159035592,30.53023356164141 L217.70241675018138,38.783105884904955 L230.37086535249054,47.30567991797136 L298.44637487470317,97.38928744808118 L303.23532687381385,100.19418523114234 L311.4489364071552,103.34969523696645 L326.1220625904702,109.20222234196888 L332.55373649625903,113.13986730666204 L337.98307161152024,118.47996116298157 L341.4634146341451,123.33459194134934 L343.77436240115856,128.78256648136005 L345.7511972379796,138.84244026105011 L346.89274974940633,142.40250283186595 L348.86958458625213,145.69286369268724 L352.6561977948352,150.00809105125768 L386.29023276532433,183.20837154096307 L407.70130304041106,204.29904525586346 L413.63180755094845,212.17433518524967 L417.4184207595315,218.02686229025215 L421.87325982847454,227.4394519660704 L448.7415079630072,285.29046874149196 L489.9487693506872,373.13231565894927" fill="none" stroke-width="7" stroke="#fae44a"/>
<path d="M448.7415079630072,285.29046874149196 L489.9487693506872,373.13231565894927 L499.4988306047238,394.2499595447724 L500.0,397.675171260591 L498.99766120947237,401.4779653702869 L495.7122173961408,404.52559469222814 L490.92326539703004,407.08776093640927 L484.82570442140883,409.11052376079306 L481.2061476779096,411.26813743998247 L478.72814344581235,413.80333351304915 L476.75130860896655,417.63309779385946 L477.0854215391342,421.43589190355533 L485.3268738166603,444.198716219885 L485.15981735157646,448.1363611845781 L483.85120837509066,451.69642375539394 L479.3963693061476,455.63406872008704 L474.1062479117855,458.304115648151 L380.19267178972785,498.35481956949354 L374.26216727919046,499.8921193161172 L368.3316627686778,500.0 L362.0670453279728,498.86725281836806 L356.9439803986944,496.5747882841814 L353.3244236551952,493.2844274233601 L351.84875821360083,489.9670963914244 L351.5146452834332,486.40703382060855 L353.3244236551952,483.0897027886728 L356.6098674685268,479.6644910728542 L361.39881946763745,477.26414585459315 L402.43902439023367,461.62144667989514 L406.8938634591767,458.8165488968339 L409.34402494708917,456.0116511137727 L410.3463637375921,452.7212902529514 L409.8451943423407,448.64879443326106 L392.86112039201225,417.87582933273956 L387.59884174183486,405.30772965090557 L375.570776255701,366.52462376619224 L369.6402717451636,344.27423269854546 L368.3316627686778,340.4714385888496 L365.3524891413291,336.39894276935087 L361.39881946763745,333.08161173741513 L355.46831495710006,329.5215491665993 L348.86958458625213,326.8515022385354 L341.63047109922894,325.0714709530316 L334.0294019378534,324.316306165277 L309.4721015703094,323.29143966771954 L300.0890967813566,323.93872377139974 L291.5135315736629,325.44905334690895 L282.79875264504534,327.7415178812872 L275.6988528789212,330.68126651915406 L267.4574006013951,335.3740762716018 L262.1951219512177,340.0668860240495 L256.4316739057641,346.8094287718038 L233.18298251475542,382.67975618957314 L212.41229535581925,414.5854684719182 L207.95745628687618,419.5479799341688 L202.6951776366988,422.97319164998737 L195.4560641496756,425.50838772324573 L188.18910791846767,426.77598575968324 L181.45116382669593,426.9108366146805 L174.68537699073943,426.02082097192863 L168.92192894531058,424.3756405416138 L159.3440249470892,420.5458762608035 L153.07940750638417,418.90069583048864 L145.50618108919335,418.14553104273404 L137.9329546720025,418.65796429141693 L131.0001113709622,420.03344301192897 L125.06960686044953,422.59560925611004 L121.28299365184175,425.50838772324573 L116.66109811781487,429.4460326877472 L78.60006682256743,466.31425643234286 L74.81345361398438,468.4718701117239 L70.1915580799575,470.00916985815593 L64.59516649961247,470.76433464591054 L58.33054905890744,470.52160310703044 L52.901213943646226,468.9843033604068 L27.174518320515542,457.4141000053991" fill="none" stroke-width="7" stroke="#58fdff"/>
<path d="M52.901213943646226,468.9843033604068 L27.174518320515542,457.4141000053991 L12.028065486133883,450.563676573762 L8.241452277526104,447.51604725182074 L4.287782603834507,443.82113382600767 L1.976834836845799,440.2610712551919 L0.33411293016763793,436.0537245806959 L0.0,431.7384972221255 L1.141552511401975,426.5332542208032 L3.7866132085830495,422.0831760072355 L7.23911348702319,416.3654997572303 L12.362178416301521,407.70807486916664 L21.244013810002873,397.9179027994711 L30.988974273308077,389.39532876640465 L45.801314177522094,379.11969361875737 L70.52567101012514,364.23215923181397 L85.03174072835628,357.24688494517954 L97.3939191446578,352.7968067318035 L161.01458959795212,332.3264469496605 L170.23053792179638,328.7663843788447 L178.97315959459866,324.5590377043487 L187.04755540704096,319.866227951901 L193.95255596389651,314.76886563465314 L200.38422986968536,309.4287717783336 L208.95979507740384,299.66556987975247 L215.8926383784194,290.2529802039342 L231.70731707316108,268.515022385162 L234.49159149124122,263.79524246179153 L236.16215614210412,258.7248503154665 L236.46842632808702,252.35988996158943 L234.82570442140886,246.64221371158425 L225.44269963245605,231.75467932464085 L215.22441251808414,215.35681536218817 L202.8622341017826,194.88645558004515 L199.7160040093501,187.28086736065342 L196.7646731261614,178.24586007871244 L194.95489475442415,169.85813690045165 L193.7854994988127,162.73801175901167 L190.16594275531347,129.80743297910914 L190.83416861564874,127.64981929972811 L192.97805991757835,126.11251955329607 L196.26350373090995,125.60008630442155 L201.8598953112797,126.11251955329607 L207.6511861008933,126.11251955329607 L211.6048557745849,125.60008630442155 L214.22207372758123,123.82005501910947 L214.8902995879165,121.79729219472569 L213.24757768123834,119.1272452666617 L192.97805991757835,98.65688548451868 L164.57846085308182,67.91089055492 L150.851987971925,53.0233561679766" fill="none" stroke-width="7" stroke="#db4a25"/>
</svg>