<?xml version="1.0" encoding="utf-8"?>

<!DOCTYPE svg PUBLIC "-//W3C//DTD SVG 1.1//EN" "http://www.w3.org/Graphics/SVG/1.1/DTD/svg11.dtd">
<!-- Uploaded to: SVG Repo, www.svgrepo.com, Generator: SVG Repo Mixer Tools -->
<svg version="1.1" id="_x32_" xmlns="http://www.w3.org/2000/svg" xmlns:xlink="http://www.w3.org/1999/xlink" 
	 viewBox="0 0 512 512"  xml:space="preserve">
<style type="text/css">
	.st0{fill:#000000;}
</style>
<g>
	<path class="st0" d="M243.627,92.96c-57.791,0-110.304,23.484-148.145,61.38c-37.886,37.842-61.381,90.355-61.37,148.135
		C34.1,360.276,57.596,412.79,95.482,450.63c37.842,37.876,90.354,61.381,148.145,61.37c57.78,0.012,110.304-23.494,148.145-61.37
		c37.886-37.84,61.38-90.354,61.37-148.156c0.01-57.78-23.484-110.293-61.37-148.135C353.93,116.444,301.406,92.96,243.627,92.96z
		 M363.3,422.16c-30.695,30.652-72.875,49.55-119.674,49.56c-46.81-0.01-88.99-18.909-119.675-49.56
		c-30.652-30.695-49.56-72.887-49.56-119.685S93.3,213.496,123.952,182.8c30.685-30.652,72.865-49.55,119.675-49.572
		c46.798,0.022,88.979,18.92,119.674,49.572c30.652,30.696,49.55,72.876,49.573,119.675
		C412.851,349.273,393.952,391.465,363.3,422.16z"/>
	<rect x="184.438" y="0" class="st0" width="118.366" height="55.241"/>
	<polygon class="st0" points="477.888,133.664 416.865,72.653 385.476,104.042 446.499,165.054 	"/>
</g>
</svg>