<svg width="500" height="500" xmlns="http://www.w3.org/2000/svg">
<path d="M426.97962222001684,267.0418347844387 L457.82543965759373,336.5895094501942 L493.9052758911246,419.40964111287997 L497.20852330926533,428.169462731201 L499.0462454642745,437.30091314526106 L500.0,445.5298364835238 L499.9302130828969,453.59949033784454 L499.395180050451,459.8110002123385 L495.1847027079868,484.1792312596199 L493.18414441240935,490.55001061805586 L490.27635619250833,495.38118496530365 L487.8338140879502,497.98258653660844 L483.43723829921663,500.0 L479.43612170872285,499.73455086034807 L475.0395459199893,496.97387980472405 L470.9453801060302,490.9216394141721 L466.781427374968,479.13569760057516 L445.4964176049756,417.9231259291695 L441.47203870878076,411.4992567425013 L438.00595515073286,409.4287534508776 L432.77193635477886,407.7298789553701 L421.76886573042503,407.57060947142804 L416.2324369590354,404.5975791040071 L412.3243695913457,399.4478657888752 L409.37005676004264,392.70545763432295 L407.97431841467534,386.12231896371276 L403.01944728779483,350.8706731790089 L400.94910207511424,341.84540242103594 L397.64585465697354,334.0942875345993 L393.80757420704805,328.83839456375756 L388.9690146086727,324.59120832442306 L384.0141434817922,322.8392440010606 L371.2198753138312,322.46761520494437 L365.3112496512252,320.34402208546567 L361.26360844866815,316.73391378227655 L357.076393411905,310.6816733913474 L354.0057690520968,302.2403907412877 L352.1215222856856,293.63983860690865 L351.26081697210304,285.517094924733 L351.3073415835051,277.7659800382964 L352.0982599793235,271.1828413676862 L358.37908253446824,239.01040560649045 L359.3328370708549,232.4803567637352 L359.49567321142325,223.87980462935622 L358.82106634411,218.19919303454327 L357.1694426353702,209.97026969628052 L354.70363822444995,202.96241240169917 L349.98139015524083,196.69781269897305 L344.235600632542,190.8579316202181 L337.4197450449513,184.4340624335499 L331.41807015887997,179.92142705456348 L326.95170745304335,177.58547462328784 L320.6708848978986,175.62115098737394 L313.5526193355334,175.408791675577 L307.94640364770186,175.83351029954815 L303.27068018989485,178.1694627308238 L299.4789243513714,181.19558292647702 L293.57029868810423,185.92057761726045 L287.3592630500625,192.4506264600157 L280.2177351819963,203.38713102567033 L274.6347817998658,214.482905075267 L251.16311528802652,267.78509237629396" fill="none" stroke-width="7" stroke="#db4a25"/>
<path d="M251.16311528802652,267.78509237629396 L249.95347538826738,270.8643023998021 L246.208244161146,272.51008706745466 L211.9196054712222,278.29687831835463 L209.7096864243355,277.7659800382964 L207.36019354258147,274.7929496708754 L206.40643900619477,269.7494160118306 L205.98771750291516,265.5022297728733 L200.7769610126622,225.3663198130667 L193.82153159020422,149.97876406893346 L192.49558016193996,136.12231896371276 L192.16990788146444,129.1144616691314 L192.542104773342,121.89424506275304 L193.2864985577583,114.40857931634554 L194.868335349395,106.65746442990888 L196.6595328930021,98.95943937132722 L202.19596166373057,75.17519643233624 L202.77751930757853,71.51199830129212 L202.35879780429892,68.16733913775488 L201.31199404510812,65.088129114624 L199.52079650150102,62.80526651082607 L197.45045128882046,61.58420046714468 L195.44989299324297,61.84964960717383 L193.17018702925316,64.71650031850777 L191.28594026218082,69.81312380540743 L183.2139201640901,95.93331917605127 L176.65394993921072,115.62964536002693 L172.37368567964344,127.30940751753678 L168.83781520449244,135.0074325761185 L165.79045314972416,139.891696750844 L160.5564343537702,147.6428116372806 L155.04326788874275,153.16415374815148 L149.27421606034287,156.40263325560164 L139.2248999723757,159.16330431084845 L129.7106169161933,159.90656190270374 L122.54582674242606,158.8978551708193 L119.2891039356874,157.5706094714281 L114.00856052833137,155.39392652371725 L104.65711361337844,150.4565725207596 L94.1890760214705,143.13017625829417 L87.58258118518906,137.3964748356263 L81.79026705108815,130.86642599287103 L76.43993672662904,123.38076024646352 L70.78719642673428,113.87768103628724 L64.94835768123133,101.77320025480617 L61.08681492494367,91.20832448489057 L57.62073136689576,79.63474198346779 L49.060202847100044,36.95052028021138 L44.47752861275826,18.26290082812011 L42.151298036705256,10.777235081712604 L38.98762445343185,5.255892970841728 L34.84693402807072,1.751964323739685 L29.892062901190215,0.0 L23.960174932221992,0.26544914002914766 L18.470270772895578,1.751964323739685 L13.096678142735447,3.9817370993054624 L7.862659346781474,8.016564026465801 L3.58239508721419,14.121894244872635 L1.0002791477887425,21.87300913130929 L0.0,29.464854533803873 L0.30240997477449444,39.02102357183509 L1.4655252631315745,46.13506052250358 L3.16367358327341,53.302187301027004 L6.071461803174379,59.30133786372397 L11.817251325873237,69.38840518143627 L19.005303805341487,80.59035888712003 L26.030520144902557,92.11085156068788 L34.939983250874825,104.74623062222724 L45.1288731737093,117.75323847950557 L55.5503861542152,129.96389891707372 L67.20480134018125,140.3695052026701 L77.626314320026,150.35039286467247 L88.32697496960536,157.99532809502205 L105.70391737256924,169.25037162893796" fill="none" stroke-width="7" stroke="#58fdff"/>
<path d="M105.70391737256924,169.25037162893796 L124.82553270707702,183.21299638986858 L147.97152693777963,198.39668719485775 L170.93142272287403,211.9876831600493 L186.81957755634417,222.2871097899358 L207.36019354258147,236.99299214272168 L212.05917930608953,239.2227649182874 L216.73490276389657,239.48821405831654 L221.6897738901159,237.73624973457692 L226.50507118279026,235.241027818982 L235.1819112310911,228.97642811625587 L243.16088210637773,221.49076236984837 L249.86042616546328,213.73964748378899 L256.79259328222025,203.65258016569948 L269.7496975900884,180.93013378644787 L287.4988368849298,149.9256742407013 L292.4304457061093,142.2807390103518 L295.94305387555926,137.66192397527823 L299.1532520702347,133.68018687635004 L301.4329580348857,131.13187513290018 L302.66586024034586,130.91951582072596 L304.2942216433846,132.1936716926395 L308.2953382338784,138.88299001933683 L311.17986414807837,143.39562539832326 L313.5293570298324,144.66978126985958 L315.7392760773803,143.8734338501494 L318.34465432250676,140.63495434269925 L322.62491858207403,133.36164790846595 L327.4402158740872,126.88468889356562 L332.8138085049085,122.63750265460828 L339.37377872912674,121.57570609486896 L345.49176514370316,122.21278403063712 L351.95868614511727,124.70800594623199 L358.42560714653143,129.43300063701548 L363.9155113058578,134.37035463997313 L370.8011538105516,143.13017625829417 L376.98892714289224,153.90741134000672 L383.3395366151401,167.17986833731425" fill="none" stroke-width="7" stroke="#fae44a"/>
<path d="M426.97962222001684,267.0418347844387" fill="none" stroke-width="7" stroke="#db4a25"/>
</svg>