<svg width="500" height="500" xmlns="http://www.w3.org/2000/svg">
<path d="M307.5769534333969,184.99257057941554 L320.15259142343297,195.07535555075378 L322.65193370182726,196.82657609851145 L325.2828203103289,196.82657609851145 L327.30860299921534,195.34069199745227 L332.4651407525066,189.82169390785782 L338.5161799527707,181.330927616145 L342.883451723175,173.5831033749618 L347.2507234939532,163.34111653567982 L350.51302288883915,156.60157079172467 L353.4859247567413,152.5684568031894 L356.7482241516273,150.07429420509067 L359.24756643002166,149.06601570786256 L362.82557221791285,149.06601570786256 L366.8771375953119,151.08257270213022 L369.9815837936953,154.05434090424853 L372.4809260720896,158.35279133929384 L373.8752959749656,161.32455954141216 L375.26966587746773,165.09233708343749 L376.53249144986256,169.3377202292939 L378.40042094187254,172.8401613244322 L380.5840568272616,174.32604542549137 L382.74138384625536,174.32604542549137 L429.3080768220056,156.33623434502618 L432.2809786899078,154.58501379745707 L434.1489081822916,152.8337932498879 L435.54327808479377,150.55189980892175 L462.79926335181665,92.8146890256894 L486.7666403579321,42.24156230105439 L495.948434622601,21.757588622301967 L499.71060247301625,9.764381235450855 L500.00000000000006,6.739545743955148 L499.5527492765136,3.9800466991578674 L498.4477769009953,2.4941625980987396 L497.05340699811927,0.7429420505295639 L495.50118389911455,0.0 L493.79110760323334,0.21226915732108864 L491.4496185217155,1.2205476543606437 L441.6206261510793,29.02780725965414 L406.89292291526874,46.00933984289122 L368.58721389119313,62.247930375598685 L322.8097868983299,78.27425175117367 L294.159431728431,86.55274888556534 L267.6664035778998,93.29229462952048 L189.66061562762033,108.3103375078673 L180.9523809524593,111.06983655266458 L179.8474085765671,112.29038420721378 L179.37384898705923,114.78454680531246 L179.53170218356186,116.80110379958012 L180.63667455945406,119.5606028443774 L185.76690344635,129.53725323714934" fill="none" stroke-width="7" stroke="#58fdff"/>
</svg>