<svg width="500" height="500" xmlns="http://www.w3.org/2000/svg">
<path d="M100.28939752690901,408.24665676072755 L145.4354117337618,471.0252600297233 L157.90581425933811,486.2555720653912 L167.56116811351487,496.28528974735207 L171.13917390140605,499.25705794947044 L172.53354380428206,500.0 L174.08576690328678,499.52239439598037 L175.4801368061628,498.03651029492124 L176.4272559851785,495.5423476968225 L176.90081557468636,493.26045425585636 L176.74296237818373,490.5009552110591 L166.92975532750438,441.25451071953955 L162.56248355710008,418.4886436000095 L161.79952644023456,411.48376140935585 L161.64167324373193,405.4871577159303 L161.79952644023456,398.4822755252767 L162.56248355710008,391.95499893864263 L163.9568534596022,383.72956909362836 L166.14048934499127,376.7246869029747 L168.481978426883,370.46274676285066 L171.74427782176895,363.93547017621665 L175.32228360966016,359.4247505836617 L180.16311496957232,354.17108894076574 L206.47198105757948,325.6739545743201 L217.23230728764844,313.89301634460156 L219.54748750314482,309.9129696454437 L221.5732701920313,305.1369136063788 L223.28334648791252,301.1568669072209 L224.7040252564361,295.63786881762644 L225.78268876630685,290.91488006793895 L228.5977374377064,277.1704521333302 L230.46566692971638,272.6597325407753 L232.8071560116081,267.4060708978793 L235.91160220999146,263.9036298025525 L238.41094448838578,261.6217363615863 L244.61983688515247,257.37635321591847 L249.46066824506462,253.13097007006203 L252.24940805044275,249.3631925280367 L253.98579321234544,245.64848227557732 L255.53801631135016,240.60708978981393 L256.14312023171306,234.61048609638834 L257.09023941072877,224.3684992571064 L257.56379900023666,217.84122267028386 L258.4846093132309,210.62407132230913 L259.74743488562575,205.37040967941311 L261.29965798463047,200.3290171938383 L263.32544067351694,195.34069199745227 L265.50907655890603,190.82997240489738 L268.771375953792,185.8416472086999 L272.50723493818583,181.065591169635 L276.5588003155849,177.0855444702886 L280.89976322034164,173.8484398216603 L284.6619310707569,172.3094884312237 L287.76637726914026,172.09721927409117 L290.26571954753456,172.3094884312237 L294.31728492493363,174.32604542549137 L320.15259142343297,195.07535555075378 L322.65193370182726,196.82657609851145 L325.2828203103289,196.82657609851145 L327.30860299921534,195.34069199745227 L332.4651407525066,189.82169390785782 L338.5161799527707,181.330927616145 L342.883451723175,173.5831033749618 L347.2507234939532,163.34111653567982 L350.51302288883915,156.60157079172467 L353.4859247567413,152.5684568031894 L356.7482241516273,150.07429420509067 L359.24756643002166,149.06601570786256 L362.82557221791285,149.06601570786256 L366.8771375953119,151.08257270213022 L369.9815837936953,154.05434090424853 L372.4809260720896,158.35279133929384 L373.8752959749656,161.32455954141216 L375.26966587746773,165.09233708343749 L376.53249144986256,169.3377202292939 L378.40042094187254,172.8401613244322 L380.5840568272616,174.32604542549137 L382.74138384625536,174.32604542549137 L429.3080768220056,156.33623434502618 L432.2809786899078,154.58501379745707 L434.1489081822916,152.8337932498879 L435.54327808479377,150.55189980892175 L462.79926335181665,92.8146890256894 L486.7666403579321,42.24156230105439 L495.948434622601,21.757588622301967 L499.71060247301625,9.764381235450855 L500.00000000000006,6.739545743955148 L499.5527492765136,3.9800466991578674 L498.4477769009953,2.4941625980987396 L497.05340699811927,0.7429420505295639 L495.50118389911455,0.0 L493.79110760323334,0.21226915732108864 L491.4496185217155,1.2205476543606437 L441.6206261510793,29.02780725965414 L406.89292291526874,46.00933984289122 L368.58721389119313,62.247930375598685 L322.8097868983299,78.27425175117367 L294.159431728431,86.55274888556534 L267.6664035778998,93.29229462952048 L189.66061562762033,108.3103375078673 L180.9523809524593,111.06983655266458 L179.8474085765671,112.29038420721378 L179.37384898705923,114.78454680531246 L179.53170218356186,116.80110379958012 L180.63667455945406,119.5606028443774 L185.76690344635,129.53725323714934 L196.71139173894304,155.8055614518177 L203.52538805569876,172.09721927409117 L211.31281241786553,194.12014434290307 L211.7863720073734,197.35724899171993 L211.31281241786553,202.08023774140742 L210.2078400419733,205.37040967941311 L208.18205735346072,207.8645722777004 L206.47198105757948,208.60751432804147 L203.20968166269353,209.35045637857104 L188.73980531425218,207.33389938430338 L187.3191265457286,206.11335172994274 L186.08260983935526,204.09679473567508 L184.84609313335574,201.60263213757634 L183.7411207578374,198.10019104224955 L180.79452775595666,184.09042666094223 L179.53170218356186,178.57142857134778 L177.50591949467537,173.5831033749618 L168.00841883700124,156.60157079172467 L166.61404893449912,154.58501379745707 L164.90397263861792,153.31139885371897 L163.19389634311054,152.8337932498879 L153.85424888193904,151.3479091488287 L151.9863193895552,151.56017830614985 L150.88134701403686,152.8337932498879 L149.8026835041661,155.06261940128815 L149.32912391465825,158.08745489278385 L149.9605367006687,161.5898959881107 L168.00841883700124,215.8777329653936 L175.32228360966016,239.8641477392843 L175.95369639567065,246.39142432591836 L175.79584319916802,252.86563362336352 L175.190739279179,258.11929526644803 L174.4014732966659,263.372956909344 L172.37569060777943,273.13733814479485 L169.56064193637985,283.90999787728526 L167.69271244399602,288.1553810231417 L164.58826624561266,292.1354277222996 L161.01026045772147,295.16026321379536 L146.2246777162749,306.8881341541364 L143.25177584837272,308.1617490978745 L140.305182846492,308.4270855443845 L134.85924756621694,307.6841434938549 L129.70270981329952,306.41052855011685 L124.73033412253231,303.6510295053196 L119.28439884225726,299.88325196348285 L114.4435674823451,294.8949267670968 L111.18126808745913,290.64954362124047 L108.99763220207004,284.17533432379525 L92.02841357523438,242.6236467840816 L78.79505393316643,213.59583952442745 L77.0849776372852,210.62407132230913 L75.05919494877261,209.08511993206105 L72.40199947387566,208.1299087242104 L70.06051039198395,208.34217788153148 L66.79821099709798,209.88112927196806 L62.90449881620154,212.10995542336826 L59.64219942131557,214.338781574957 L4.972375690393327,256.1558055613692 L1.867929492009978,259.87051581401715 L0.6314127860104787,263.372956909344 L0.0,267.1407344511808 L0.6314127860104787,269.900233495978 L1.867929492009978,272.3943960942653 L3.420152591388588,274.888558692364 L32.07050776091358,315.16663128833966 L100.28939752690901,408.24665676072755" fill="#CCAC93" stroke="none"/>
</svg>