<?xml version="1.0" encoding="utf-8" ?>
<svg baseProfile="full" height="200px" version="1.1" width="1000px" xmlns="http://www.w3.org/2000/svg" xmlns:ev="http://www.w3.org/2001/xml-events" xmlns:xlink="http://www.w3.org/1999/xlink"><defs /><path d="M 0 28.0 L 27.254071255530075 35.0 L 29.486782611709835 35.0 L 31.228620721271373 35.0 L 32.43911648747973 35.0 L 38.15061366421124 35.0 L 41.19043273779744 35.0 L 43.320432737748774 35.0 L 46.451981875204275 37.0 L 50.531994130068384 37.0 L 55.48660814125453 37.0 L 64.35872175641992 37.0 L 69.26415751685508 28.0 L 75.2766278910221 28.0 L 86.0557651477757 28.0 L 92.87998671507981 10.0 L 96.69010482349387 10.0 L 102.14212279851334 10.0 L 104.51532738304708 10.0 L 107.21912101422971 0.0 L 110.27513148543112 0.0 L 112.76575389756968 0.0 L 114.94375757065963 12.0 L 121.72372807211867 12.0 L 123.10452494349909 12.0 L 124.61928565067366 12.0 L 126.51928565067278 12.0 L 132.29366007567893 12.0 L 137.38366007568874 12.0 L 140.16463112911788 12.0 L 141.76575573384923 8.0 L 143.06413934433326 8.0 L 149.11083265556013 12.0 L 150.705887513584 12.0 L 152.76241371080337 12.0 L 188.11467530748786 33.0 L 199.64006033361179 37.0 L 202.83396077036883 37.0 L 204.63120866649348 37.0 L 206.10338392778112 43.0 L 207.48342015918996 43.0 L 209.07640477930204 43.0 L 213.1259109220127 43.0 L 216.32530148898638 43.0 L 219.00845262153757 31.0 L 232.4959320005637 31.0 L 243.71841390073197 25.0 L 249.43022622260432 25.0 L 252.1954567735636 26.0 L 253.96836399054897 26.0 L 263.41374910707964 14.0 L 264.9696411341472 14.0 L 271.9238484937634 14.0 L 273.51435155879915 14.0 L 275.15681921448004 14.0 L 280.60773656847755 14.0 L 284.54842178807775 10.0 L 290.1868080820636 15.0 L 292.41626990051844 15.0 L 295.57199485685396 15.0 L 299.8914971430153 15.0 L 356.7122336746361 49.0 L 360.20916089723863 49.0 L 361.7718828814686 49.0 L 363.24062383889867 49.0 L 366.4377788241462 49.0 L 368.9313104562207 49.0 L 371.281310456185 49.0 L 407.6650389622055 44.0 L 416.2538048805693 44.0 L 419.30183703259826 42.0 L 423.5217185475034 42.0 L 500.8385504795284 36.0 L 502.5392856146819 36.0 L 504.00819677603687 36.0 L 505.3882330074681 36.0 L 507.4396227802786 36.0 L 509.07011350397823 36.0 L 513.8389393552687 36.0 L 515.2303415257576 36.0 L 516.2360253727036 36.0 L 517.934554147846 36.0 L 524.3112696032831 30.0 L 525.5179592899668 30.0 L 526.9001676678816 30.0 L 528.5101676679024 30.0 L 551.1376951510291 28.0 L 578.7871020162665 28.0" fill="none" stroke="blue" stroke-width="3" /></svg>