<svg xmlns="http://www.w3.org/2000/svg" viewBox="0 0 36 36"><path fill="#E0E7EC" d="M36 32c0 2.209-1.791 4-4 4H4c-2.209 0-4-1.791-4-4V9c0-2.209 1.791-4 4-4h28c2.209 0 4 1.791 4 4v23z"/><path fill="#DD2F45" d="M34 0h-3.277c.172.295.277.634.277 1 0 1.104-.896 2-2 2s-2-.896-2-2c0-.366.105-.705.277-1H8.723C8.895.295 9 .634 9 1c0 1.104-.896 2-2 2s-2-.896-2-2c0-.366.105-.705.277-1H2C.896 0 0 .896 0 2v11h36V2c0-1.104-.896-2-2-2z"/><path fill="#66757F" d="M23.688 19h-.5c-1.085 0-1.538-.731-1.538-1.5 0-.792.565-1.5 1.538-1.5h2.015c.972 0 1.515.701 1.515 1.605V30.47c0 1.13-.558 1.763-1.53 1.763s-1.5-.633-1.5-1.763V19z"/><g fill="#F3AAB9"><circle cx="33" cy="10" r="1"/><circle cx="33" cy="7" r="1"/><circle cx="30" cy="10" r="1"/><circle cx="30" cy="7" r="1"/><circle cx="27" cy="10" r="1"/><circle cx="27" cy="7" r="1"/></g><path fill="#66757F" d="M8.799 28.809l4.542-3.721c1.986-1.62 2.762-2.511 2.762-3.835 0-1.346-.89-2.077-2.145-2.077-1.004 0-1.712.434-2.602 1.392-.228.251-.639.503-1.187.503-.89 0-1.598-.708-1.598-1.598 0-.388.16-.799.411-1.096 1.278-1.484 2.785-2.351 5.204-2.351 3.31 0 5.501 1.94 5.501 4.93v.046c0 2.67-1.369 3.994-4.2 6.185l-2.602 2.009h5.569c.845 0 1.53.685 1.53 1.529 0 .844-.685 1.507-1.53 1.507H9.781c-1.096 0-1.895-.616-1.895-1.666 0-.685.32-1.278.913-1.757z"/></svg>
