<svg width="500" height="500" xmlns="http://www.w3.org/2000/svg">
<path d="M243.80320480728776,280.1162040025779 L391.962944416722,270.6907682375121 L399.7871807710713,269.4641704324771 L405.6710065099476,266.591349257554 L409.7396094142626,262.6210458360387 L410.4907361041805,258.68302130404817 L408.299949925105,254.5513234344507 L384.5768652980099,207.23047127174397 L380.5082623936949,202.06584893483313 L374.93740610909936,198.2569399612854 L365.6735102655925,194.60942543570525 L357.91186780192146,192.80180761784953 L315.9113670505256,186.6688185926747 L301.95292939414236,183.3440929631443 L291.5623435153139,180.0193673337286 L282.1732598900058,175.85539057460642 L275.1001502255744,171.94964493225524 L269.8422633952595,168.68947708200358 L263.45768653006786,161.52356358940074 L261.14171256874636,156.06843124596486 L260.9539308962669,150.12911555839696 L263.5202804207461,143.09231762423695 L268.2774161243007,135.70045190450253 L278.73059589380745,116.88185926401025 L282.4236354531635,102.93737895413307 L282.79919879812246,93.02775984504996 L280.92138207332766,84.44157520980525 L269.34151226849934,40.28405422854672 L261.64246369550654,12.459651387956512 L260.14021031567074,9.231762427344222 L258.70055082651317,6.617172369306786 L254.25638457679446,3.93802453199055 L246.68252378560288,1.0006455777886458 L242.11316975452772,0.2582311168856677 L236.85528292465762,0.0 L231.84777165750046,0.38734667521384836 L226.46469704582913,1.3879922530024942 L222.45868803219238,3.2924467397763806 L220.01752628951442,5.067785668107376 L216.95042563871982,8.037443511948652 L207.74912368544645,20.884441575233666 L198.98597896869975,39.477081988365 L124.87481221842114,143.18915429304042 L95.95643465213419,183.3440929631443 L79.93239859803191,205.745642349938 L67.91437155712164,223.11168495803435 L55.39559338989593,244.67398321500696 L28.918377566286942,284.37701743061825 L3.6930395593560457,320.142027114239 L0.7511266899179059,323.62814719173696 L0.0,326.24273724988905 L0.7511266899179059,327.75984506133443 L3.5678517775548095,329.2769528727797 L9.952428642746522,329.37378954158316 L33.55032548804037,328.05035506774476 L38.74561842767698,328.05035506774476 L42.93940911379322,330.40671400901124 L56.33450175273807,354.2930923176109 L59.08863294925197,358.7798579728975 L67.53880821216269,368.6894770819806 L75.23785678515549,375.7908327953047 L91.8252378566962,387.1207230471444 L110.72859288955837,397.4499677210807 L134.5142714073317,407.03679793411413 L235.35302954437705,444.3834732085736 L258.3249874811095,453.13105229178586 L276.41462193293074,459.1994835377966 L300.575863795663,466.526791478367 L321.2944416626417,472.14331826988507 L354.78217326000384,479.72885732734113 L385.39058587905083,486.1846352485657 L430.89634451687846,496.28792769525575 L450.3630445671791,499.9677211103606 L461.316975463446,500.0 L472.8968452678296,498.9025177534079 L483.4752128195823,496.02969657848473 L489.1086629944113,493.4796642994967 L492.86429644489033,490.9619109102627 L496.61992989492467,487.24983860551845 L498.74812218332187,483.6346029696923 L500.0,480.2775984506372 L498.99849774692433,474.72562943839785 L496.61992989492467,470.69076823760383 L493.23985978984933,466.78502259525266 L488.2949424138152,463.2989025177547 L481.284426640062,460.1355713363065 L472.5838758139936,457.3918657198262 L463.38257386072024,455.48741123305234 L449.9874812217754,454.58360232406716 L343.82824236373693,450.5810200129125 L330.7461191790728,449.7740477727308 L325.112669003799,449.1930277597953 L319.1662493742445,448.19238218200667 L262.14321482226677,431.47191736600985 L256.3845768651917,429.4383473207931 L252.50375563335618,427.1142672691661 L248.37255883836295,422.14331826986216 L235.10265398121933,392.99548095543355 L235.97896845293846,390.7036797934458 L239.0460691037331,389.1542930923611 L243.67801702548653,388.54099418978626 L290.99899849787545,385.2162685603705 L296.56985478202625,384.1187863137784 L300.13770656002583,383.2472562944326 L303.8933400100601,381.4396384764622 L307.6489734600944,378.11491284704647 L308.5252879318135,374.0154938669737 L308.65047571361475,353.8411878631183 L305.2078117178612,350.3873466752597 L300.95142714062195,348.32149774051834 L294.504256384752,347.15945771464743 L285.67851777688236,346.25564880566225 L277.97946920388955,345.7714654615303 L267.7140711068623,345.61007101356273 L257.5738607911916,345.96513879925186 L158.80070105142045,353.09877340221533 L150.2879318978315,353.3892834086257 L139.45918878336585,353.1956100710188 L128.88082123205788,352.3240800516729 L121.61992989470228,351.19431891544144 L116.80020030046938,349.12846998058535 L111.792689033757,346.6107165913514 L84.68953430158658,323.49903163329407 L70.66850275408031,312.8792769528327 L67.72658988464217,309.74822466102387 L65.66099148736792,305.5842479019017 L64.97245868812826,302.0335700452396 L64.84727090632703,297.7727566171993 L66.34952428660759,294.86765655263684 L69.97996995484064,292.76952872825603 L74.48673009523759,291.7043253711886 L84.81472208294306,290.8327953518428 L243.80320480728776,280.1162040025779 Z" fill="none" stroke-width="3" stroke="black"/>
</svg>