<svg width="500" height="500" xmlns="http://www.w3.org/2000/svg">
<path d="M61.072700607594115,228.45059076263965 L63.37733081918213,221.93877550996558 L67.35805573013789,210.5934479052583 L117.117117117116,69.4817400641142 L138.4174872546961,11.14393125672575 L143.23625951532026,4.6992481198865335 L149.76604511488682,1.0741138557423824 L156.88944758712998,0.0 L163.4890704658149,1.6111707838520601 L169.70458830924034,6.5789473680319475 L174.03449961591193,12.822234156412662 L176.33912982749993,20.609559613287615 L176.51372302534236,29.26960257792348 L170.33312382149163,46.119763694920266 L152.5595362804584,96.87164339389227 L146.83287939101652,120.50214822737951 L144.52824917942849,145.1396348012513 L145.75040156435637,168.23308270662886 L143.89971366714622,177.63157894735588 L139.53488372093094,183.94199785157144 L130.8052238284694,192.2663802360791 L121.4121097842129,196.62996777631446 L95.46756058385105,208.51235230913142 L88.79810042601676,214.41997851738398 L86.98233116838128,223.1471535983316 L86.7379006913895,231.00161117056444 L89.42663593826803,238.99033297542093 L94.45492003630926,244.69656283569196 L100.74027515888406,247.71750805589159 L110.37781968013232,247.44897959159823 L157.90208813464076,229.6589688505287 L179.9706683427709,224.82545649849556 L199.00132690830668,224.08700322240435 L215.83211118094746,225.56390977410973 L231.75501082477055,228.71911922645603 L243.10356868496126,232.814178302875 L261.68028493611916,237.4462943069267 L278.82533696487013,239.1917293234024 L290.97702353518554,236.23791621903763 L305.60793351493135,231.74006444665565 L323.20692785809115,221.33458646602105 L343.87876248341996,205.4914070889318 L357.88113695091454,197.7040816325338 L370.3470912773401,193.47475832444513 L386.79377051472136,191.32653061200642 L399.7485857950995,191.66219119213457 L453.76772120959976,195.55585392057208 L466.2336755360253,198.91245972042287 L477.7917452336331,205.69280343691327 L485.9976255325364,213.95005370558613 L491.27034010756944,222.7443609023686 L496.4033801243347,232.814178302875 L499.1270340107569,244.4280343713986 L499.99999999999994,256.7132116001786 L499.02227809206386,268.72986036514226 L496.0192750890442,280.94790547808736 L489.5244081290833,294.2400644467749 L464.6972553949563,333.9822771211677 L455.54857182766057,351.6380236305676 L434.80689992318236,404.2024704618501 L424.85508764579293,408.29752953826915 L412.5637265172408,409.97583243843303 L400.79614498221594,409.3045112781767 L386.9334450729891,406.5520945217934 L372.54696557023505,400.7787325456875 L357.1478455199392,392.1186895810517 L341.8884000279421,379.3635875404738 L332.4603673441109,367.07841031169386 L330.74935400516847,359.55961331911226 L332.2508555066938,351.6380236305676 L338.11718695440345,341.70247046173085 L346.49766045114916,335.3920515575153 L358.82394021930696,330.08861439320725 L379.8798798798953,326.19495166476975 L400.16760946993367,320.22019334020536 L418.6744884419422,311.8958109556977 L428.9056498358981,303.4371643395204 L432.7816188281298,293.3002148227022 L433.30539842168804,282.2234156818113 L429.9881276625582,271.21374865723214 L421.4330609679701,261.2110633725606 L413.750960262594,258.0558539202143 L373.83895523431227,252.34962405994327 L333.6476010894641,252.48388829208994 L290.94210489561084,258.52577873248913 L254.83623158041146,269.19978517694005 L232.48830225574588,277.45703544561286 L207.83574271946125,288.19817400637567 L184.2656610098368,299.94629430704595 L165.06040924645862,313.30558539204526 L158.0068440533648,316.8635875403546 L152.97855995529258,315.7223415683004 L148.26454361339248,308.0692803435721 L143.23625951532026,296.9253490868463 L136.3223688805252,291.89044038683164 L127.45303442979592,291.4876476903916 L118.79321181648375,296.25402792706694 L114.18395139324568,303.57142857119004 L112.05391437950007,311.4258861438999 L114.18395139324568,327.40332975313584 L133.5288777149226,459.922126745479 L133.9479013897568,468.7835660580963 L131.8178643760112,477.8464017186951 L128.39583769815732,485.4994629429464 L125.07856693902752,490.40010741129146 L116.87268664012421,496.9119226639655 L108.108108108119,499.2615467239088 L70.95467560583417,500.0 L63.37733081918213,499.53007518820215 L52.34304071513257,497.51611170791006 L40.924645575792496,493.15252416767476 L31.531531531536,488.11761546718304 L19.030658565535777,476.57089151449424 L10.894615545781837,463.8157894739164 L5.342551854182373,452.8732545651722 L1.2919896640772377,438.1041890438253 L0.0,425.14769065526593 L1.1523151058095142,404.00107411386864 L4.5743417836323585,388.9634801287054 L58.174453523298496,236.3721804511843 L61.072700607594115,228.45059076263965" fill="#80FF80" stroke="none"/>
<circle r="25" cx="62.95830714434795" cy="229.12191192241903" fill="red"/> 
</svg>