<?xml version="1.0" encoding="utf-8"?>
<!DOCTYPE svg PUBLIC "-//W3C//DTD SVG 1.1//EN" "http://www.w3.org/Graphics/SVG/1.1/DTD/svg11.dtd">
<svg version="1.1" id="Qatar" xmlns="http://www.w3.org/2000/svg" xmlns:xlink="http://www.w3.org/1999/xlink" x="0px" y="0px"
	 width="1039.353px" height="987.397px" viewBox="0 0 1039.353 987.397" enable-background="new 0 0 1039.353 987.397"
	 xml:space="preserve">
<rect fill-rule="evenodd" clip-rule="evenodd" fill="#C7EDFF" width="1039.353" height="987.397"/>
<polygon fill-rule="evenodd" clip-rule="evenodd" fill="#E1E1E1" points="601.32,987.392 601.771,983.653 600.785,981.474 
	601.296,979.972 603.412,980.506 604.276,981.762 602.466,987.392 "/>
<path fill-rule="evenodd" clip-rule="evenodd" fill="#E1E1E1" d="M586.539,987.392l-0.334-1.242l0.855-2.568l3.766-3.537
	l0.971-1.486l4.777,2.006l0.721,1.098l-1.758,2.526c0,0,1.586,3.204,1.648,3.204h-2.531l-1.309-1.299l-2.586,0.217l-1.156,1.082
	H586.539z"/>
<path fill-rule="evenodd" clip-rule="evenodd" fill="#E1E1E1" d="M0.006,392.261l2.197-0.07l3.32,1.27l1.523,1.473l0.078,1.675
	l-3.006,1.242l-1.115,1.529l2.927,2.815l0.84,5.385l1.155,1.819l2.244,1.126l6.797,5.889l2.271,5.184l2.676,3.176l2.719,6.51
	l6.455,5.399l3.754,8.099l4.699,0.981l1.664,0.015l2.811,3.623l3.319,1.848l1.051,1.574l-0.382,0.592l-2.729-0.535l-0.736,1.068
	l0.447,2.151l3.018,5.298l0.434,2.035l3.084,1.01l1.247,1.271l-0.027-2.801l-1.509-2.54l0.276-1.906l-1.982-10.524l-2.639-6.48
	l-4.868-1.631l0.684,2.525l1.181,0.606l1.155,2.411l-0.735,0.822l-0.472,0.23l-4.344-4.85l-0.316-2.382l1.536-6.54l-1.011-3.939
	l-2.783-4.014l-1.797-2.252l-2.73-0.896l-1.352-3.739l0.289-2.252l0.971-0.576l6.693,0.273l1.352-1.761l0.185-2.743l3.384,3.421
	l2.299,3.884l0.76,3.363l-0.523,2.136l-2.127-1.01l-2.008-0.015l0.407,4.201l2.835,1.949l3.504,4.951l3.15,1.356l3.855,5.933
	l6.393,4.967l5.499-0.145l1.063,0.621l8.267,6.063l4.687,5.297l3.646,2.237l7.219,8.172l0.551,1.804l-1.035,3.565l0.562,6.338
	l4.789,4.056l2.271,7.146l0.959,2.975l-0.447,3.32l7.533,14.406l3.202,10.697l-1.431,4.98l0.119,0.52l1.705,7.881l-5.656,11.926
	l0.301,4.662l0.133,2.035l1.771,5.774l2.623,5.081l3.965,3.913l2.82,1.516l5.435,7.058l2.559,12.242l-1.339,11.073l-4.502,3.694
	l-1.245,2.238l0.55,1.935l2.559,7.218l2.703,6.756l1.091,8.979l0.276,3.48l1.783,4.46l2.888,4.013l-3.911,3.955l0.08,6.814
	l2.387,2.656l4.764,2.642l2.927,0.273l0.761-1.082l-1.718-2.714l-3.11-4.375l0.893-2.612l-0.552-6.567l0.866-1.415l2.506-0.173
	l1.287,0.98l1.219,3.971l2.482,1.818l0.549,0.419l2.967,5.197l4.883,4.907l2.572,6.757l4.186,3.926l2.494,6.323l1.877,4.764
	l3.398,3.047l4.279,3.839l2.872,5.067l0.774,1.357l1.182,4.807l2.992,3.146l0.604,0.649l2.729,5.082l0.735,3.724l-0.919,12.617
	l4.737,10.524l1.745,1.357l3.321,0.446l4.895-1.184l4.448,2.975l2.611,4.604l2.822,1.271l1.155,1.343l0.433,1.688l-0.604,2.916
	l-0.079,0.404l1.682,4.1l-0.947,4.158l1.168,5.398l2.154,4.359l5.314,5.516l0.629,3.349l-0.879,5.183l-0.656,3.854l1.207,8.502
	l1.852,6.497l2.283,3.638l0.523,2.41l2.18,2.916l2.061,3.047l-0.604,4.994l1.155,2.801l1.299,3.119l3.072-3.985l0.34-0.924
	l0.433-1.198l6.458-6.625l2.283-0.059l4.685-0.093c1.827,2.988,21.194,34.679,22.862,37.774c1.75,3.25,32.5,67,32.5,67
	l31.25,22l50.5,16.5l13.419-1.737l86.599-4.916l49.891-55.076l-2.228-15.192l0.033-0.017l-0.680-0.952l1.929,2.699l2.862-0.75
	l3.2,0.346l1.825,2.094l1.902-3.768l-0.761-2.166l0.958-0.562l4.147,0.361l5.196,8.17l-0.645,1.66l0.788,3.768l-1.863,4.07
	l0.747,2.643l1.379,1.242l2.271-0.636l1.232-1.401l-0.497-2.756l4.986-0.578l2.269-0.26l1.747-2.686l1.955,1.733l0.919,4.691
	l2.27,3.291l1.287,0.521l1.811-1.256l2.875,3.088l0.182,1.56l-3.635,2.382l-3.792,0.116l-1.588,1.256l0.276,4.142l-1.471-0.475
	l0.066-1.43l-3.189-0.592l-1.943,1.371l-1.744-0.896l-1.549,0.318l-4.213-0.997l-4.736,6.785l-0.46,6.9l-3.714,1.313l-0.748-2.771
	l-2.112-0.418l-2.651,1.342l-1.458,0.91l-2.505,4.445l-1.443,4.374l1.508,5.067l-2.914,6.106l-4.803,2.107l-2.795,5.63l-0.865,1.415
	l-2.626,0.52l-2.704,3.133l-1.666,4.475l-2.453-1.385l-1.771-0.058l-3.255,1.688l-2.835,3.84l-7.506,5.255l-6.482,6.958
	l-1.879,3.045l-1.469,5.789l-1.092,4.254L0,987.397L0.006,392.261z"/>
<path fill-rule="evenodd" clip-rule="evenodd" fill="#FFFFEA" d="M242.964,810.973l6.484-1.387l1.696-0.884l11.992-6.247
	l6.402-4.245l-0.944-4.792l2.493-8.531l0.814-2.815l0.104-0.361l0.38-1.312l-0.537-1.805l-0.564-0.723l-4.488-5.744l-1.916-8.648
	l1.982-2.93l-0.04-3.104l1.575-5.457l-1.878-5.543l3.019-5.875l-3.004-7.854l0.405-1.775l-3.95-7.752l0.355-1.415l0.171-0.707
	l-0.907-1.588l-11.508-10.105l-1.248-6.481l-0.668-1.371l-0.577-1.17l-5.669-6.121l-5.039-7.42l-0.855-3.479l0.814-4.158
	l-1.09-3.594l0.486-5.14l1.129-2.007l0.275-1.803l0.303-1.879l2.44-2.799l4.37-3.104l-1.771-9.354l-2.691-6.28l-0.248-4.07
	l-3.019-2.945l-1.075-2.612l-1.168-2.83l-7.232-6.034l-2.35-1.141l-1.771-5.066l1.233-6.698l0.659-3.599l0.051-0.27l0.877-10.842
	l-1.352-7.449l-2.137-4.836l-1.746-10.898l1.271-2.845l-1.889-5.413l1.404-8.33l-1.496-6.48l-0.184-2.656l-0.499-7.637l1.051-3.783
	l-0.8-5.875l0.785-2.728l1.852-2.339l0.17-0.736l0.629-2.699l-1.744-10.798l-0.119-2.238l-0.523-9.715l-0.316-1.804l-0.195-0.117
	l-1.325-0.764l-0.198-1.791l0.895-2.367l0.42-6.67l-0.238-1.14l-1.141-5.717l1.088-4.864l-3.688-5.342l1.641-3.666l0.066-2.383
	l-1.615-1.949l-1.783-0.533l-0.447-1.328l2.901-5.891l-0.749-3.002l1.077-3.84l1.417-5.053l0.052-0.346l1.522-9.527l2.152-5.934
	l0.092-0.26l0.197-0.55l-0.406-1.27l-1.299-4.042l-0.5-1.545l-0.223-0.101l-0.957-0.419l-1.812,0.549l-0.551-1.674l2.559-2.889
	l3.988-4.504l1.208-1.356l5.25-4.085l0.249-0.188l0.328-0.101l3.162-0.996l3.098,0.549l1.404,1.978l3.439,4.851l1.875,10.437
	l2.836,0.909l0.708,1.56l0.999,2.194l-0.211,1.892l-0.276,2.757l1.588,7.55l0.106,0.491l4.133,1.905l4.094-1.198l0.723-0.78
	l1.98-2.136l-0.184-1.791l-1.508-1.947l-2.822-1.633l-2.416-3.65l0.75-1.301l2.873-0.158l0.499-0.562l0.735-0.838l-0.447-0.636
	l-4.947-7.058l1.484-2.325l-0.907-2.165l-1.272-1.487l-0.919-1.083l-1.575-3.752l-1.705-0.174l-1.404-0.145l-1.154-1.588
	l1.863-2.453l1.811-5.327l2.033-0.059l2.338-4.735l0.576-1.168l-1.232-3.133l1.496-2.108l-0.172-2.626l-4.251-10.986l0.656-2.382
	l-0.563-1.083l-4.543-0.477l-5.234,3.552l-2.391-0.304l-3.24-4.027l1.535-1.849l1.193-1.415l1.418-4.144l2.035-0.188l3.045-1.948
	l1.271,1.819l1.312,0.043l2.494-3.638l3.95-0.13l3.767,3.97l6.915,7.275l0.735-0.692l-2.191-4.1l-3.07-1.732l-1.982-2.656
	l-1.628-2.18l0.015-0.967l2.139,0.679l1.903,0.606l3.608,4.705l0.156-1.891l1.562,0.03l1.852,2.656l0.42-2.613l-4.476-3.42
	l-4.554-2.281l-0.184-0.087l-2.205-3.493l-0.105-0.722l1.93-0.679l0.59-0.953l0.144-0.231l-0.642-3.233l0.748-1.531l2.9,4.591
	l1.535,0.505l1.575-1.04l2.86,0.419l1.403,1.689l0.656,2.886l1.654,1.098l1.089-0.563l-0.197-2.396l0.84-0.101l1.234,0.924
	l0.893,0.664l-2.927,16.023l-1.982,4.215l-0.301,0.606l-2.952,2.916l-1.207,5.212l1.232,2.786l0.723,0.116l2.859,0.461l0.801,4.086
	l0.039,0.23l-2.151,8.777l3.031,7.376l-0.064,2.382l2.257,0.636l0.918,3.104l3.005,0.563l1.128,0.952l1.418-1.111l0.368-4.144
	l-1.614-0.288l0.25-0.909l0.957-0.91l1.863-0.174l0.893,1.185l-0.525,1.53l-0.498,1.458l2.887,4.014l-1.324,2.958l-2.191,1.502
	l-2.572-2.67l-1.443,0.447l-4.922,7.521l0.551,2.164l2.113,1.474l-1.745,3.666l2.072,3.609l1.431,0.158l1.365-2.006l0.275-1.906
	l1.456-1.516l4.528,0.924l2.441,3.147l1.783,0.158l0.395-1.545l-3.267-3.998l0.261-0.822l3.871,3.291l1.091-0.693l-4.751-7.361
	l4.607-3.018l1.232-1.516l1.824-2.224l-2.493-6.611l-1.183-0.274l-0.512,1.312l1.26,3.119l-1.443,0.217l-2.309-3.639l0.879-2.006
	l2.664-0.188l2.348-2.439l-2.191-3.162l-2.729-0.562l-0.459-1.083l1.784-3.768l-0.224-1.126l-0.092-0.448l1.143-2.468l-0.539-2.05
	l2.219-2.324l0.668-2.613l-0.26-0.592l-1.209-2.786l3.137-5.413l1.969-1.733l-1.154-1.588l-0.643-3.002l2.807-1.833l1.248-2.599
	l0.576-3.681l1.168-0.202l1.746,3.868l3.332,0.693l1.72,2.685l0.288,2.743l4.385,1.443l4.028-2.628l2.167-2.714l0.76-2.05
	l-1.707-4.907l2.323-3.464l1.327-1.979l-0.408-1.631l-1.391-0.043l-2.18,2.945l-1.168,0.187l-7.361-2.079l-0.484,0.679l2.965,1.487
	l-0.473,0.447l-1.613-0.058l-3.414-2.179l-3.096,1.588l-1.456,0.909l-2.966-1.039l-1.839-2.916l-4.015-1.544l-0.945-1.343
	l-5.053-7.305l-1.666-8.762l-1.942-3.522l1.876-2.93l-1.496-11.39l-0.131-0.476l-1.613-5.544l3.359-4.085l0.484-0.592l1.812-5.197
	l1.575-0.549l1.52-1.519l2.549-2.551l0.118-3.523l-1.562-0.938l-3.556-10.019l0.656-6.308l1.508-2.584l3.27-1.573l2.229-2.339
	l3.689-7.78l1.102-1.04l3.098,0.809l2.939,2.107l3.24,3.912l0.671,1.934l1.759,1.357l1.561,4.475l-1.076,2.05l-1.706,3.248
	l0.067,1.791l-1.471,1.155l-0.065,2.497l3.411-2.165l4.424,0.115l0.814-3.321l5.354-2.583l1.01-2.007l-1.232-3.147l0.184-2.381
	l3.831-3.955l0.42-2.367l-1.731-2.324l0.904-2.354l-1.063-5.428l-1.495-1.573l-1.889-0.895l-6.733,0.52l-1.197-1.277l-0.312-0.311
	l-1.641-1.603l0.25-4.417l1.455-5.327l-0.84-3.97l1.839-1.385l2.151-4.359l-0.199-0.399l2.391,0.984c0,1.75,1.25,2.5,3.25,1
	s3.75-4.25,3.25-5.25s-1.25-1.75-2.5-2s-4.873-0.988-3.661-1.857l0.449-0.275l2.257-3.392l-0.078-1.443l2.926-1.588l3.478-4.562
	l1.063-7.854l-1.168-9.701l0.367-8.95l-2.086-2.569l-0.761-6.958l1.062-3.551l2.179-0.895l1.731,4.417l0.395,1.025l-0.538,2.136
	l1.51,1.833l1.665,0.52l0.552,1.935l1.063,0.389l1.392-2.237l3.647-1.92l2.835-2.671l0.341-7.637l4.238,2.988l0.854,3.494
	l-2.534,4.707l0.539,0.433l0.172,0.13l1.639,1.299l3.832-3.595l0.224-1.876l0.079-0.621l-0.959-2.194l-1.062-2.411l0.67-2.613
	l-2.718-1.386l-0.577-1.097l1.129-10.12l1.759-2.699l0.236-3.812l-0.564-1.688l1.548-3.422l-0.171-3.768l-3.2-1.067l0.025-0.736
	l4.881-2.021l11.43-4.808l3.676-2.281l1.168-3.075l1.221-0.924l1.758-2.338l1.432,0.289l2.336,2.454l1.693-0.548l4.684-4.288
	l2.114-1.962l2.321,2.454l0.184,1.919l1.891,1.126l2.18-0.649l2.676-0.996l5.617-3.061l2.48-2.554l2.111-2.555l-0.668-1.573
	l1.522-2.831l-0.251-3.58l1.931-4.489l9.854-6.596l0.211-0.145l0.709-0.967l1.418-1.963l-0.539-1.919l0.944-3.567l1.222-0.678
	l0.525,2.411l1.192,0.505l6.733-0.275l5.234-1.862l2.352,1.501l3.148-0.506l2.992-3.724l2.033-3.523l1.955-0.895l5.906-0.418
	l3.924,5.371l0.382-0.578l3.568,1.184l2.81,2.353l6.994,0.708l0.249,0.029l1.155,0.115l2.809,2.483l4.869,1.949l1.036,1.574
	l9.802,5.327l12.352,8.877l-1.771,3.046l0.549,1.689l-0.682,6.077l1.521,1.603l-1.889,6.741l1.023,5.659l0.525,0.562l5.17,5.587
	l-0.184,1.79l1.365,2.786l4.384,5.745l3.911,1.559l3.988,3.002l0.827,8.272l-1.353,4.489l1.471,2.917l-0.538,5.832l2.179,3.06
	l0.54,0.27l9.146,4.696l3.635,2.989l4.895,0.88l11.267-1.677l6.7-1.095l7.925-0.405l6.789,1.384l4.586,3.616l2.75,2.75l4.625,3.75
	l3.113,0.916l8.164,3.031l2.951,1.473l0.838,1.32l1.018-1.657l1.855-1.641l1.228,1.474l3.833-3.333l1.5,0.917l4.834-1.333l2,2.25
	l-1.5,1.333l-1.5-1.667l-2.167,1.583l-1.083-1.167l-4.167,2.833l1.167,1.583l2.916-1.667l2.334,3.25l-3.75,2.083l1.166,2.167
	l-3.083,6.583l-5.083,0.333c0,0-0.083,4,0,4.75s1.249,3.833,2.166,5s2.433,3.744,2.433,3.744l0.71,1.808l1.627,4.141l0.223,5.14
	l1.537,5.529l0.682,10.148l1.156,2.699l2.348,5.514l-0.078,7.507l-1.117,1.401c0,0-1.129,3.508-1.879,4.508s0,3.75-0.25,5.75
	s-1.25,1.75-2.5,2s-2.5,1.25-3.25,2.5s-1,1.75-3.25,1.25s-2.25-2.25-2.25-3.25s1.25-2,2.5-3.25s0.5-2.5-1.324-3.402
	c-1.826-0.902-1.426-0.348-2.176,0.652s-1.5,3-2.5,4s0,4.5-1,5.5s0,4.168,0,4.168l-3.353-0.823l-1.168-1.212l-0.171-2.512
	l-1.443,0.433l0.025-1.069l-2.205-2.8l-1.706,1.501l-3.216-0.909l-0.943-5.601l-1.379,7.449l0.67,1.689l1.852,0.606l2.887,1.66
	l0.773,2.281l1.627,1.833l1.93-0.304l6.104,4.447l2.1,2.324l0.432,1.559l1.287,0.606l1.154,0.26l2.52,2.425l0.959-0.332l0.039-1.198
	l1.221-0.924l-0.316-1.559l-2.965-1.386l1.719-1.27l0.025-1.04l-0.236-2.396l0.815-1.703l-0.46-1.271l4.408,1.849l1.223,0.504
	l0.42,5.5l2.203,2.107l0.301,1.574l-4.055,9.297l-1.324-0.015l-0.867,1.401l-0.184,6.915l-3.084,3.739l-1.416-0.751l-1.878-1.357
	l-1.784,0.231l-6.641,0.896l-1.024-1.329l1.064-1.067l2.546-0.881l0.592-0.202l2.611,0.131l0.234-2.498l-1.023-1.876l-0.223-0.419
	l-2.18-0.836l-0.642-1.184l1.614-1.04l0.891-0.578l-0.746-0.664l-1.077,0.058l-2.585,0.144l-0.537-0.692l-3.479,0.505l-1.889-1.111
	l-5.065,1.53l-4.517,2.599l-0.328,0.044l-2.531,0.39l-2.822,2.439l0.576,0.967l5.197,2.757l3.229-0.273l1.418,0.75l-1.982,2.93
	l0.631,2.989l1.811-0.693l0.865-1.559l0.092-2.8l2.547-1.04l2.219,0.419l-0.42,2.079l-2.441,2.107l-0.984,2.541l-0.604,4.865
	l0.484,4.561l1.156,1.574l1.758,1.241l0.484-0.346l-2.255-5.428l1.128-1.992l1.471-1.155l1.639,1.228l4.66,0.13l0.904,2.165
	l-1.613,2.339l-0.079,3.104l0.944,3.464l-1.246,2.223l-1.404,6.843l-1.232,0.981l-2.52,2.007l-5.238,1.184l-1.68-3.364l0.172-2.063
	l-1.364-0.506l0.497-1.328l-4.055,0.622l0.078,1.659l-1.916,4.721l1.089-0.679l1.681,0.158l-0.789,2.729l-1.928,0.418l-8.242,2.988
	l-2.822,7.911l1.248,2.079l-1.063,3.42l0.866,6.613l1.771,0.764l1.576-0.779l0.053,2.151l0.294,5.154l-3.833,0.417l0.333,2.083
	l5.75-2.083l0.333,1.166l-6.5,2.584l-0.083,1.333l-0.249,0.916l0.083,0.556l-0.58,0.217l-2.479,4.777l-2.585,2.96l-1.812,8.575
	l-0.027,0.836l3.007,3.205l1.548,0.289l3.451,4.172l-0.131,7.998l2.822,1.168l1.455-0.678l5.264,3.883l1.051,4.216l2.4,3.306
	l2.266,5.508l0.099,0.681c0,0-0.5,1-0.667,1.583s0.333,2.25,0.333,2.25s1.75-1.333,1.917-1.667s0.667-1.416,1.25-1.5
	s0.667,0.667,0.75,1.5s1.833,5.084,2.167,5.75s-0.417,2.75-0.417,2.75s-0.333,1.25-0.333,1.917s-0.25,3.417-0.25,3.417
	s0,0-0.584-0.084s-0.333-1.25-0.25-1.666s0.167-4,0.167-4.667s-0.333-1.333-2.917-1.583s-2.833,0.833-3.083,1.583
	s0.333,2.75,1.417,2.833s2.083-1,2-1.833s1.083-0.5,1.416,0.417s-0.166,4.25-0.166,4.5s-3.334-0.084-4.167-0.084
	s-2.083-0.833-2.833-2s-0.667-2.916-0.417-4.166s-0.833-0.834-1.5-0.584s-0.667,0.75-0.667,1.084s-0.083,1.166-0.5,1.833
	s0.083,1.5,0.75,1.833s1.083,1.25,1.167,2s0.583,1.084,1.167,1.084c0.583,0,9.333,0.416,9.333,0.416s-0.417,1.167-0.75,2.167
	s0.083,2.25,0.75,3.583s0.417,1.667-0.25,2.417s-0.833,2-0.917,2.833s0.744,2.409,0.744,2.409s0.257,0.341,0.507,0.508
	s0.166,0.667-0.25,0.917s-1,1.416-1,1.666s-0.417,0.75-0.834,0.5s-0.833,0.167-1.083,0.417s0.667,1.5,0,1.667
	s-0.5,0.583-0.417,0.833s0.667,0.667,1,0.833s0.834,2.167,1,2.917s-0.583,1.75-0.916,1.917s-0.667,0.583-1,1s-0.75,2-0.75,2
	l2.25,0.25c0,0,0.333,1,0.75,1.833s-0.084,1.083-0.334,1.083s-0.916,1-1,1.25s-0.333,1.25-0.75,1.584s-1.666,1.083-2.25,1.583
	s-0.25,2.667,0,3s1.25,1.25,1.917,1.333s1.917,0,2.583-0.333s1.75-0.25,2-0.083s1,1.833,1.834,3s-0.417,1.416-1.167,2.083
	s-1.833,1.5-2.083,2.083s-1.75,1.084-2.25,1.25s-1.334,0.584-2.25,1.167s-2,1.917-2.084,2.167s-0.166,1.166-0.833,2.25
	s0.333,3.083,0.917,3.916s2.583,2.084,3.5,2.084s1.666-0.584,1.75-0.834s1.333,0,1.75,0.417s1.083,0.25,1.333-0.083
	s0.25-1.584,0.417-1.917s0.583-0.833,1-0.833s1.083,0.833,1.083,0.833l1.083-0.083c0,0-0.583-0.917-0.25-1.25s1,0.25,1.084,0.583
	s0.75,2.25,1.083,2.75s-0.417,0.75-0.583,1.167s0.833,1.5,1.25,1.916s1,0.75,1.583,0.75s1.167,0.667,1.583,0.75s2-2.416,2.084-2.666
	s1-0.334,1.5-0.667s0.583-0.583,1.333-0.833s0.25-1.25,0.25-1.25c0-0.416,0.75-0.167,1.167,0.25s0.583,0.583,1.083,1.083
	s0.833,0.25,1.75,0s0.417-2.417,0.417-2.417l1.5-0.25c0,0,0,2.084,0,2.75s0,1.25,0.333,1.917s1.167,2.083,1.667,3
	s0.833,0.667,0.916,0.333s0.667-2,0.667-2l-1.167-3.5l2.084-0.666l1.25,1.083l1,2.333l3-3.583l0.75-2.583l2.583-0.667l10.167,25.083
	l-3.167,1.084l-2.5-3.667l-1.583,1.083l1.25,3.417l-7.934,4.406l0.479,2.898l0.976,5.885l7.074,7.016l0.643,0.649l-0.156,5.255
	l0.461,2.688c0,0-0.543,2.286-0.543,3.119s-0.667,4.667-1.167,5.5s-1.706,3.446-1.706,3.446l-0.799,4.014l-0.092,0.446l0.603,3.479
	l3.884,5.038l0.158,2.383l-0.486,1.674l-0.721,2.469l0.537,4.966l0.551,5.11l0.527,2.396l-0.814,3.623l-0.172,0.766l-0.209,2.627
	l0.865,3.668l0.184,0.778l-1.652,3.177l-0.786,2.236l-2.101,2.195l-0.631,4.764l0.355,3.709l1.127,1.949l1.144,6.183
	c0,0,1.067,0.07,1.567-0.096s1.667-0.5,5.083-0.5s6,1.833,6,1.833l0.417,1.75l-2.25-0.583l1,4.416l-2,1.167
	c0,0-0.083,1.917-0.083,2.25s-3.667,1.417-3.667,1.417l0.583,2.583l-1.313,0.609l-1.149,4.436l-0.657,2.512l-5.697,10.322
	l-8.227,0.433l-1.59,1.371l-3.556,6.813l2.44,1.587l3.166-4.666l3.25,1.083l-4.166,5.25l0.75,0.75l-0.861,1.641l-6.259,9.34
	l-6.626,13.744l-7.416,8.357l-1.994,3.146l-4.765,7.607l-7.532,4.765l-2.1,2.438l-3.398,9.788l-2.627,4.39l-2.65,4.402l-1.705,5.196
	l0.289,5.978l-5.106,10.927l0.717,6.856l0.006,0.218l-1.103,4.979l-13.124,20.817l-7.126,26.388l-3.268,6.093l-3.477,1.198
	l-2.77,4.691l-0.484,2.107l-4.778-0.722l-4.686,1.991l-6.022-0.793l-1.037,6.771l-2.258,3.753l-0.366,4.402l2.073,2.541
	l-3.164,5.904l0.395,2.281l-1.378,2.454l-2.546,2.063l-5.656,2.57l-5.854,6.958l-1.285,1.53l-1.759-0.418l-0.288-2.397l0.865-4.979
	l-0.512-2.527l-3.084-3.796l0.027-4.778l-2.207-1.617l2.691-2.656l1.784-0.303l2.679,1.631l4.002-6.02l2.18-3.262l1.664-11.693
	l-0.812-1.098l-1.287,0.391l-1.26,5.932l-2.217,2.701l-1.404,4.012l-1.26-0.693l1.497-3.002l1.481-15.678l-3.004,0.751l-1.549,1.66
	l-0.578,4.678l-1.076,0.39l-1.272-0.693l-0.604-0.332l-1.588-0.852l-0.932,0.779l0.196,2.18l-3.268-0.057l-2.678-2.657l-1.469-0.476
	l-0.315,3.189l-1.063-0.042l-3.924-6.149l-1.876,1.688l-3.269,8.646l-0.801-1.097l0.066-2.354l1.771-1.861l1.01-4.865l1.799-0.822
	l-1.404-12.646l-1.627-0.13l0.248,4.808l0.947,2.583l-1.091,0.23l-0.748-1.356l-1.063-0.245l-0.865,7.016l-2.639,5.572l-0.052-6.337
	l-1.128-1.704l-1.786,0.072l-4.815,2.47l-0.156,0.302l-1.104,2.051l-4.686-2.181l-3.004,1.227l-1.747,3.047l-2.612,0.158l-0.996,1.4
	l-1.482-1.717l1.547-3.913l-0.393-1.067l-4.016,5.485l-0.459,3.449l-2.311,1.604l2.088,1.978l0.17,2.267l-1.087,0.923l5.456,3.624
	l0.854-1.039l2.441,1.747l2.951,0.316l2.639-0.866l1.859,0.369l0.884,0.181l1.509,0.303l4.33-2.498l1.771,0.535l1.682,3.276
	l4.553-3.508l0.827,0.88l-1.561,2.08l0.537,2.785l2.296,1.154l2.139-0.36l1.223,1.545l1.548,5.097l3.491-1.56l0.604-4.159
	l1.062,0.029l1.143,1.344l1.548,3.752l-3.767,2.874l-3.332,8.488l1.431,11.505l-0.827,3.782l0.524,5.991l-2.848,3.594l-0.472,0.592
	l-0.04,1.213l-0.013,0.578l1.392,4.576l1.561,1.472l0.407,0.39l0.108,0.068l0.416-0.229l0.904-0.275l2.862-0.389l4.37-3.682l2.992-0.865
	l2.848-4.201l3.727-1.675l1.955-1.963l1.943-1.618l0.407-1.299l-1.286-0.865l2.256-3.754l-1.141-1.588l-1.26-1.473l4.592-6.77
	l3.781-3.466l5.484-1.01l2.782-1.704l8.505-10.35l1.168-3.422l0.38-4.532l-2.283-2.815l-0.276-2.512l0.617-0.822l4.75-0.202l-0.209,3.089
	l0.680,0.952l-0.033,0.017l2.228,15.192l-49.891,55.076l-86.599,4.916l-13.419,1.740l-50.5-16.5l-31.25-22
	c0,0-30.75-63.75-32.5-67s-23-38-23-38L242.964,810.973z"/>
<polyline fill-rule="evenodd" clip-rule="evenodd" fill="none" stroke="#0978AB" stroke-width="0.8504" stroke-linejoin="round" stroke-miterlimit="3.8637" points="
	601.32,987.392 601.771,983.653 600.785,981.474 601.296,979.972 603.412,980.506 604.276,981.762 602.466,987.392 "/>
<path fill-rule="evenodd" clip-rule="evenodd" fill="none" stroke="#0978AB" stroke-width="0.8504" stroke-linejoin="round" stroke-miterlimit="3.8637" d="
	M586.539,987.392l-0.334-1.242l0.855-2.568l3.766-3.537l0.971-1.486l4.777,2.006l0.721,1.098l-1.758,2.526
	c0,0,1.586,3.204,1.648,3.204"/>
<polyline fill-rule="evenodd" clip-rule="evenodd" fill="none" stroke="#0978AB" stroke-width="0.8504" stroke-linejoin="round" stroke-miterlimit="3.8637" points="
	594.654,987.392 593.345,986.093 590.759,986.31 589.603,987.392 "/>
<polygon fill-rule="evenodd" clip-rule="evenodd" fill="#E1E1E1" stroke="#0978AB" stroke-width="0.8504" stroke-linejoin="round" stroke-miterlimit="3.8637" points="
	135.785,66 135.09,64.672 135.654,61.582 137.045,59.33 137.4,58.753 137.637,59.388 137.846,59.922 139.436,64.065 139.264,64.152 
	"/>
<polygon fill-rule="evenodd" clip-rule="evenodd" fill="#E1E1E1" stroke="#0978AB" stroke-width="0.8504" stroke-linejoin="round" stroke-miterlimit="3.8637" points="
	52.112,63.502 55.957,65.581 57.296,68.699 59.33,70.085 59.775,71.716 60.051,72.712 58.136,79.223 58.712,82.904 59.08,85.315 
	61.154,87.985 60.682,91.117 61.416,93.269 60.603,93.803 54.369,92.071 47.099,93.528 43.004,91.768 42.768,88.605 39.657,80.305 
	39.828,76.524 41.533,75.065 42.4,72.409 46.048,69.897 46.338,68.93 47.453,65.119 "/>
<polygon fill-rule="evenodd" clip-rule="evenodd" fill="#E1E1E1" stroke="#0978AB" stroke-width="0.8504" stroke-linejoin="round" stroke-miterlimit="3.8637" points="
	222.506,285.611 225.051,285.697 225.668,288.483 224.711,289.61 222.833,290.029 220.326,288.325 219.934,286.001 "/>
<polygon fill-rule="evenodd" clip-rule="evenodd" fill="#E1E1E1" stroke="#0978AB" stroke-width="0.8504" stroke-linejoin="round" stroke-miterlimit="3.8637" points="
	230.905,284.009 233.41,285.712 233.766,287.3 233.83,287.575 233.568,288.483 232.598,288.903 229.566,290.216 227.335,286.911 "/>
<polygon fill-rule="evenodd" clip-rule="evenodd" fill="#E1E1E1" stroke="#0978AB" stroke-width="0.8504" stroke-linejoin="round" stroke-miterlimit="3.8637" points="
	241.26,332.859 240.576,331.734 238.963,329.092 239.92,324.458 243.043,324.298 244.803,320.892 245.957,322.826 248.07,324.082 
	248.845,325.714 248.869,325.771 247.466,329.077 242.729,331.343 "/>
<polygon fill-rule="evenodd" clip-rule="evenodd" fill="#E1E1E1" stroke="#0978AB" stroke-width="0.8504" stroke-linejoin="round" stroke-miterlimit="3.8637" points="
	233.845,350.803 231.941,345.981 233.174,344.336 230.957,342.126 229.645,337.435 229.92,336.006 232.467,334.881 235.904,336.295 
	233.91,338.98 236.168,339.889 239.055,339.485 240.588,340.236 242.007,339.933 242.99,339.716 245.812,341.694 247.309,343.773 
	245.209,346.574 245.012,349.201 242.623,349.374 241.482,347.31 238.844,347.121 237.465,349.475 236.153,349.432 "/>
<polygon fill-rule="evenodd" clip-rule="evenodd" fill="#E1E1E1" stroke="#0978AB" stroke-width="0.8504" stroke-linejoin="round" stroke-miterlimit="3.8637" points="
	237.598,299.08 236.691,301.678 236.809,306.571 233.555,311.509 232.033,312.058 230.787,312.505 229.132,316.172 230.287,317.629 
	231.862,316.951 233.227,319.737 236.076,320.416 237.229,322.119 235.996,323.938 234.33,325.512 232.467,325.685 232.662,322.71 
	229.552,322.985 225.615,326.825 222.781,325.31 223.412,324.01 222.373,322.668 219.289,321.513 215.445,322.134 214.291,323.707 
	214.08,324.01 215.694,326.436 220.812,327.172 218.857,328.904 218.896,331.892 220.524,333.971 222.204,338.432 223.633,338.706 
	225.471,341.506 225.537,343.542 227.047,345.375 226.521,347.151 224.867,346.025 223.176,346.703 222.531,348.825 
	220.826,349.619 220.433,350.933 222.033,353.834 218.582,357.92 219.998,358.67 224.488,356.288 225.932,358.642 226.207,359.089 
	225.681,360.865 222.413,362.323 220.549,365.022 220.104,368.242 217.387,371.75 217.689,373.669 227.65,378.506 235.838,383.847 
	242.598,390.746 243.699,392.394 243.66,393.778 240.681,392.536 237.572,388.048 229.369,382.476 223.713,378.621 219.041,377.163 
	211.271,372.297 209.92,368.675 213.739,360.186 214.316,356.13 213.503,350.86 214.368,344.798 213.49,341.896 210,338.114 
	208.976,335.818 210.932,330.896 211.285,330.016 210.655,326.421 212.859,320.026 216.862,313.688 218.686,312.664 225.156,303.28 
	227.059,303.815 229.225,303.382 229.803,304.363 231.114,304.507 231.797,301.072 233.07,300.913 234.92,300.667 "/>
<polygon fill-rule="evenodd" clip-rule="evenodd" fill="#E1E1E1" stroke="#0978AB" stroke-width="0.8504" stroke-linejoin="round" stroke-miterlimit="3.8637" points="
	27.361,415.259 26.678,415.346 23.805,408.748 21.941,407.694 20.682,405.515 17.203,395.048 14.355,394.269 12.178,390.386 
	8.371,389.462 3.083,385.16 1.391,380.584 2.283,377.985 7.676,377.87 11.246,378.664 17.4,381.32 17.768,381.71 20.551,384.612 
	21.561,387.629 20.432,395.481 "/>
<polygon fill-rule="evenodd" clip-rule="evenodd" fill="#E1E1E1" stroke="#0978AB" stroke-width="0.8504" stroke-linejoin="round" stroke-miterlimit="3.8637" points="
	55,419.531 59.736,424.353 61.271,429.926 60.248,430.561 59.08,430.2 57.832,426.476 55.236,423.227 54.133,420.354 "/>
<polygon fill-rule="evenodd" clip-rule="evenodd" fill="#E1E1E1" stroke="#0978AB" stroke-width="0.8504" stroke-linejoin="round" stroke-miterlimit="3.8637" points="
	672.675,894.295 671.128,891.495 669.669,885.345 674.184,881.924 676.638,882.849 677.255,885.49 680.089,885.836 682.189,886.978 
	682.166,894.743 681.494,895.739 679.421,898.828 678.699,902.495 677.453,904.242 675.367,899.637 676.574,895.263 
	678.201,892.925 674.527,889.099 673.214,889.416 672.596,890.354 "/>
<polygon fill-rule="evenodd" clip-rule="evenodd" fill="#E1E1E1" stroke="#0978AB" stroke-width="0.8504" stroke-linejoin="round" stroke-miterlimit="3.8637" points="
	680.181,949.931 679.014,949.411 676.39,943.002 676.679,941.573 677.767,940.778 681.809,943.78 682.401,947.39 681.757,948.921 
	"/>
<polygon fill-rule="evenodd" clip-rule="evenodd" fill="#E1E1E1" stroke="#0978AB" stroke-width="0.8504" stroke-linejoin="round" stroke-miterlimit="3.8637" points="
	944.906,917.681 947.677,916.483 949.96,912.515 952.216,912.368 958.501,918.591 960.013,922.474 962.886,924.855 963.372,933.705 
	961.115,939.94 957.217,945.874 953.712,953.858 952.531,950.465 950.117,947.434 948.017,944.792 945.486,942.901 942.177,942.524 
	939.552,939.682 938.988,936.072 935.892,930.111 940.996,923.744 943.818,918.244 "/>
<path fill-rule="evenodd" clip-rule="evenodd" fill="#E1E1E1" stroke="#0978AB" stroke-width="0.8504" stroke-linejoin="round" stroke-miterlimit="3.8637" d="
	M155.42,117.868l0.301,2.035l-1.732,1.862l-0.539,2.382l0.092,0.375l0.763,3.32l0.157,0.708l0.395,1.718l-0.291,2.035l0.803,1.574
	l5.812,2.656l-3.451,2.959l-0.342,0.289l-1.352,9.875l-0.564,4.171l-2.953,7.449l0.383,4.302l-3.216,8.17l0.708,5.5l-1.363,6.785
	l0.707,3.118l0.905,3.97l-0.972,0.679l-1.102,5.602l-0.983,1.876l-1.786,3.421l-0.025,7.666l-0.027,3.709v0.015l0.014,0.592
	l0.105,6.684l0.105,6.668l0.012,0.824l1.484,3.146l-5.184,5.847l-1.943,1.024l-0.355,0.577l-2.387,3.884l-0.04,1.559l-6.259,6.51
	l-1.365,1.415l-1.307,2.455l-0.451,0.85l-0.053,2.137l-0.04,1.198l-2.087-2.8l0.447-3.09l-0.447-0.346l-2.151-1.631l-2.612-6.033
	l-0.406-8.474l-0.065-1.329l-1.286-3.147l-1.327-3.248l-0.433-0.707l-3.963-6.453l-1.287-2.093l-1.469-2.397l-0.906-2.02
	l-2.808-6.236l-0.773-0.462l-1.589-4.619l-0.748,1.386l1.851,3.508l-0.368,0.462l-0.064,0.086l-6.719-8.705l-5.631-5.976
	l-2.033-2.151l-3.281-0.808l-0.539-0.131l-0.84-0.634l-4.226-3.19l-3.136-4.865l-1.483-2.295l-1.588-4.851l-0.905-7.81l0.406-2.541
	l0.315-2.035l2.231-3.061l1.141-2.237l3.53-5.775l0.211-0.346l-0.026-0.202l-0.289-1.718l1.352-6.178l3.583-6.843l2.966-5.659
	l-0.814-2.931l-0.287-1.054l-1.772-6.482l0.696-3.926l-1.824-14.248l-3.27-4.389l-6.863-14.609l-3.762,1.839l-0.75-2.75l3.766-1.442
	l-3.833-12.096l1.392-1.617l0.328-0.376l-0.381-1.082l-0.184-0.477l0.932-1.876l1.72-3.436l0.153-6.253l0.043-1.744l-0.184-0.866
	l-0.25-1.184l-0.354-0.318l-2.992-2.756l0.13-3.22l7.888-8.287l3.896-1.573l6.731-0.912l2.194-0.3l6.98,0.042l6.936-0.053
	c0,0,1.875-2.874,3.074-3.774c1.201-0.9,5.432-2.304,5.432-2.304s1.027,2.049,1.961,3.352s2.69,1.671,2.69,1.671l1.071-0.878
	l2.82-0.009l0.263,1.618c0,0,1.589-0.475,2.339-1.225s2.9-2.394,4.449-2.197c1.551,0.197,2.082,0.712,2.082,0.712l3.631-1.526
	l3.463-3.238l1,1.875l4.125-0.875l0.5,2.125h-1.875c0,0,0,1.625,0,2.375s0.375,4.625,0.625,5.625s0.25,1.75,0.25,1.75l-1.125,0.625
	l1.375,1.25l1.375,0.375l0.375-1.5l2.375-0.5l2,0.625l0.25,3.625l3.75,0.25v3.5l-5.125,5.25l-2.5-0.75l-6,2.75l-3.625-0.75
	l-1.75-2.25l-5-0.25l-0.375,1.125l-3.625-0.75l-0.75,1.625l1.625,1.125l0.75,4.375c0,0-0.875,1.5-0.875,2s0.625,2.125,1.375,2.875
	s4.75,4.5,4.75,4.5s0.625,1.625,2,2.5s3.375,2.25,3.375,2.25l2.125,1.75l0.5,3l3.25,0.5l0.5,1.375c0,0,1.375-0.875,2.375-0.625
	s1.875,0.875,1.875,0.875l1.125,1.25l1.625-1.25l-6.375-4c0,0,0.375-0.5-0.25-1.125s-0.875-0.5-0.625-1.625s0.625-1.625-0.25-3.125
	s-1.75-2.25-1.75-2.25v-2.5l5.75-6h6l1,1.25l-1.625,3.25l0.875,2.75l2,2.125l0.375,2.5l-0.75,2.75l1,1.375l-2.625,2l2,3.625l16-8.75
	l0.25,1.125l-1.125,0.625c0,0,0.125,1.25,1.5,0.75s3.375-1.75,3.625-0.875s0.25,1.5-0.875,1.625s-6.625,0.75-6.625,0.75l-4.5,1.75
	l1.75,3.75l-4.125,2.5l-1.25-2c0,0-2.375,1.25-3,1.875s-0.875,1-0.875,1.75s1,1.375,1,1.375l0.5,1.375c0,0-1.125,0.375-1.125,1.125
	s-0.125,2.625,0.625,3.25s2.375,1.75,2.625,2.875s-0.25,1.75-1,1.875s0,0.75,0.75,1s1.625,2-0.125,1.375s-2.125-1.125-2.125-1.125
	l-4.436,1.747l-0.641,0.549l-0.88,2.006l0.38,3.796l0.123,1.226l3.328,0.425v3.375h-3l0.375,2.125L155.42,117.868z"/>
<polygon fill-rule="evenodd" clip-rule="evenodd" fill="#FFFFEA" stroke="#0978AB" stroke-width="0.8504" stroke-linejoin="round" stroke-miterlimit="3.8637" points="
	433.504,63.604 442.467,64.628 443.227,63.921 448.201,63.719 450.156,65.422 449.947,66.144 447.045,65.147 437.439,66.649 
	436.285,68.063 437.887,69.58 436.744,70.821 433.279,69.97 433.924,67.443 432.885,65.22 "/>
<polygon fill-rule="evenodd" clip-rule="evenodd" fill="#FFFFEA" stroke="#0978AB" stroke-width="0.8504" stroke-linejoin="round" stroke-miterlimit="3.8637" points="
	460.642,70.691 463.319,72.972 464.33,75.557 465.931,77.259 470.222,80.868 470.17,82.139 467.966,82.24 458.738,72.453 
	456.745,72.02 455.432,72.712 455.471,71.442 456.811,69.84 458.109,69.334 "/>
<polygon fill-rule="evenodd" clip-rule="evenodd" fill="#FFFFEA" stroke="#0978AB" stroke-width="0.8504" stroke-linejoin="round" stroke-miterlimit="3.8637" points="
	998.49,331.82 997.558,331.314 997.492,326.652 999.25,324.573 1001.796,323.953 1004.25,328.471 1001.521,330.867 "/>
<polygon fill-rule="evenodd" clip-rule="evenodd" fill="#FFFFEA" stroke="#0978AB" stroke-width="0.8504" stroke-linejoin="round" stroke-miterlimit="3.8637" points="
	274.211,395.396 276.678,398.239 280.092,400.202 280.052,401.357 278.66,401.544 274.802,398.874 272.821,395.583 "/>
<polygon fill-rule="evenodd" clip-rule="evenodd" fill="#FFFFEA" stroke="#0978AB" stroke-width="0.8504" stroke-linejoin="round" stroke-miterlimit="3.8637" points="
	488.936,864.212 489.093,865.208 493.543,869.712 493.688,870.809 491.915,869.653 491.271,870.274 489.172,868.296 
	487.978,866.074 487.952,864.168 "/>
<path fill-rule="evenodd" clip-rule="evenodd" fill="#E1E1E1" stroke="#0978AB" stroke-width="0.8504" stroke-linejoin="round" stroke-miterlimit="3.8637" d="
	M141.799,24.808l-2.244-1.817c0,0,2.143-3.254,1.537-5.778c-0.605-2.525-1.84-4.264-2.648-5.072c-0.807-0.808-3.13-1.717-3.13-1.717
	l1.413-3.13l9.818,5.273l3.254-1.032c0,0-0.102-1.616,0.908-1.515s2.525-0.707,2.525-0.707l0.303-1.01l2.547-0.505l-1.738-2.524
	V3.635h1.109v1.638l1.438,2.222l3.635,0.404c0,0-0.404,0.707,0.303,1.717s4.365,3.052,4.365,3.052l3.23,0.303l3.557-7.798
	c0,0-1.66-1.638-0.83-2.749s2.346-1.616,2.346-1.616l5.15,2.323l1.211,3.254l-2.322,4.847l-2.322-1.111l-1.516,3.153l-1.01,0.909
	c0,0,1.01,2.323,0.809,3.636c-0.202,1.312-1.941,16.101-1.941,16.101l0.527,3.355l3.535,0.202V40l13.576,0.101l2.12-0.707V37.98
	l3.03,0.202l-0.506,2.121l-2.524-0.101l-1.515,0.605l7.697,13.98l-5.98,3.434l-9.919-8.101l3.231,5.98l-3.231,1.817l-2.95-5.251
	l1.638-1.436l-1.841-1.919l-4.746,2.525c0,0,0,0.83,0.506,1.941c0.504,1.111,0.504,1.414,1.312,1.717
	c0.808,0.303,2.121,0.101,2.121,0.101l1.11,1.312l0.303,1.919l-1.817,0.909l0.605,0.931l-2.424,0.808c0,0-2.322-4.567-2.322-4.971
	s0.404-2.3,0-3.13c-0.404-0.831-1.639-2.143-1.639-2.143s0.404-1.01,0-1.919c-0.403-0.909-1.413-1.615-1.413-1.615l-0.909-2.323
	c0,0-1.312-1.335-0.808-1.638s1.01-0.404,1.11,0.101c0.102,0.505,1.313,0.606,1.313,0.606l-0.304-2.525l-0.908-0.707
	c0,0-8.404-0.606-9.111-0.101s-2.423,2.524-2.423,2.524l-0.808-0.909l1.11-2.524l6.99-0.404v-4.062l-1.94-1.818l0.303-4.746
	l-3.434,1.616l-3.131-0.707c0,0,1.818-0.83,0.505-2.547c-1.312-1.716-1.739-3.736-1.739-3.736s-1.312,0.606-1.414,2.222
	c-0.1,1.616-0.303,2.85-0.303,2.85l0.606,0.909L153.131,32l-0.605-0.808c0,0-0.908,1.717-1.615,1.01
	c-0.707-0.707-2.447-2.604-3.053-3.231c-0.605-0.628-1.717-0.932-1.817-1.84s-0.202-4.342-0.202-4.342s-1.717-0.808-2.424-0.202
	C142.707,23.192,141.799,24.808,141.799,24.808z"/>
<path fill-rule="evenodd" clip-rule="evenodd" fill="#E1E1E1" stroke="#0978AB" stroke-width="0.8504" stroke-linejoin="round" stroke-miterlimit="3.8637" d="
	M161.131,34.222c-0.605,0-0.808-1.313-0.303-2.121c0.505-0.808,1.717-1.414,1.717-1.414s0.202,0.707-0.404,1.515
	C161.535,33.01,161.737,34.222,161.131,34.222z"/>
<path fill-rule="evenodd" clip-rule="evenodd" fill="none" stroke="#646464" stroke-width="5.6693" stroke-linejoin="round" stroke-miterlimit="3.8637" d="
	M242.42,810.755c0,0,21.25,34.75,23,38s32.5,67,32.5,67l31.25,22l50.5,16.5l13.419-1.743l86.601-4.916l49.89-55.076l-2.228-15.192l0.033-0.01"/>
<path fill-rule="evenodd" clip-rule="evenodd" fill="none" stroke="#646464" stroke-width="1.7008" stroke-linejoin="round" stroke-miterlimit="3.8637" d="
	M387.42,953.247V768.117h-9.474v-10.334h-4.5V738.95h4.667v-1.333l3.833-0.5v-1.667l-3.833,0.833v-16.166l9.308-0.168v-37.944h46.5
	v-61l47.5,13l10.137,5.068c0,0,9.556-11.623,10.389-12.289s5-2.332,8.5-1.666s17,2.5,17,2.5l-15.167-15.667l25.667-12.333l19-8.167
	l9.167-4.167c0,0,4-2.666,4.5-3.666s7-7.5,8.333-8s29-11.667,29-11.667l7,14.167c0,0,3.501-2,5.667-2s3.5,0.5,3.5,0.5l2.062,1.013"
	/>
<polyline fill-rule="evenodd" clip-rule="evenodd" fill="none" stroke="#646464" stroke-width="1.7008" stroke-linejoin="round" stroke-miterlimit="3.8637" points="
	556.946,591.451 536.92,560.255 519.92,571.005 537.946,599.618 "/>
<path fill-rule="evenodd" clip-rule="evenodd" fill="none" stroke="#646464" stroke-width="1.7008" stroke-linejoin="round" stroke-miterlimit="3.8637" d="
	M588.626,571.739c0,0-1.848-6.455-3.348-10.622s-6.156-6.352-6.156-6.352l-16.953-10.511l5.5-4.5l-9.5-13.25c0,0-4.25-19-5.25-21.25
	s-7.5-14.25-7.5-14.25l-1-2.75c0,0-14.75-33-15.75-35s-3-14.25-3-21.5s0-16.25,0.25-20s2.75-28.75,2.75-28.75l-6-29
	c0,0,5.5-0.25,8-3s7-7.5,8.5-8.5s10.75-5.25,10.75-5.25s14,7.5,19.5,7.75c1.998,0.091,4.095,0.148,6.099,0.245l17.01-0.925
	l1.935,1.104"/>
<polygon fill-rule="evenodd" clip-rule="evenodd" fill="none" stroke="#646464" stroke-width="1.7008" stroke-linejoin="round" stroke-miterlimit="3.8637" points="
	557.92,546.255 555.42,547.755 561.42,556.755 563.42,554.755 "/>
<path fill-rule="evenodd" clip-rule="evenodd" fill="none" stroke="#646464" stroke-width="1.7008" stroke-linejoin="round" stroke-miterlimit="3.8637" d="
	M544.42,488.255l23-15c0,0,1.359,1.945,1.484,3.445s0.25,4.75,0.25,4.75l5.125,0.125l4.875-2.75l1.25,1.875l4.952-2.424"/>
<path fill-rule="evenodd" clip-rule="evenodd" fill="none" stroke="#646464" stroke-width="1.7008" stroke-linejoin="round" stroke-miterlimit="3.8637" d="
	M457.92,372.005v6.57h-5.016l1.875,5.5l2.5-0.75l-0.5,1.125l1.141,2.125v83.93l1.859,1.779l22.167,2.834l22,1.833l0.333,9.833
	h13.333v7.334h9.5c0,0,0.833,1.667,0.833,2.5s0.167,2.833,0.167,2.833l0.167,0.667c0,0,0.5-0.167,1-0.167s1.5,0.5,1.5,0.5l1.833-3.5
	l-1.333-3l0.667-1.167l-1.5-4.5c0,0,2.667-1.334,4.333-1s4,0.834,4,0.834s1,1.834,1,2.5s0,3,0,3l5.641-2.613"/>
<polyline fill-rule="evenodd" clip-rule="evenodd" fill="none" stroke="#646464" stroke-width="1.7008" stroke-linejoin="round" stroke-miterlimit="3.8637" points="
	323.818,274.755 387.42,274.755 387.42,305.005 462.17,305.005 455.92,313.505 454.67,330.005 447.67,354.755 457.92,372.005 
	480.529,384.575 480.904,386.7 528.67,383.005 "/>
<path fill-rule="evenodd" clip-rule="evenodd" fill="none" stroke="#646464" stroke-width="1.7008" stroke-linejoin="round" stroke-miterlimit="3.8637" d="
	M314.17,237.255h73.25v-42.43h-1.475c0,0,0.25-1.292,0.917-1.125s1.583,0.083,1.333-0.583s-0.775-0.792-0.775-0.792v-7.892h8.733
	v-9.983h14.25l-2.25,9.983h32.125l1.375,1.892h1.75v-1.892h16.517v27.571h35.25l0.359,1.57l49.625-27.5h2.75l7.199-2.422
	l11.426-0.953l0.379-1.667"/>
<path fill-rule="evenodd" clip-rule="evenodd" fill="#FFFFEA" stroke="#0978AB" stroke-width="0.8504" stroke-linejoin="round" stroke-miterlimit="3.8637" d="
	M622.169,807.505c0,1,4.25,1.5,3.75-0.5S622.169,806.505,622.169,807.505z"/>
<path fill-rule="evenodd" clip-rule="evenodd" fill="#FFFFEA" stroke="#0978AB" stroke-width="0.8504" stroke-linejoin="round" stroke-miterlimit="3.8637" d="
	M629.669,803.005c-1,0.75-0.5,3,0.5,3.25s2-1,2-2.25S630.669,802.255,629.669,803.005z"/>
<path fill-rule="evenodd" clip-rule="evenodd" fill="#FFFFEA" stroke="#0978AB" stroke-width="0.8504" stroke-linejoin="round" stroke-miterlimit="3.8637" d="
	M624.669,694.005c-0.5,1.25,4.5,3.75,4.5,2S625.169,692.755,624.669,694.005z"/>
<path fill-rule="evenodd" clip-rule="evenodd" fill="#FFFFEA" stroke="#0978AB" stroke-width="0.8504" stroke-linejoin="round" stroke-miterlimit="3.8637" d="
	M638.669,699.005c-1,0.25-0.75,4.25,0.75,3.75S639.669,698.755,638.669,699.005z"/>
<path fill-rule="evenodd" clip-rule="evenodd" fill="#FFFFEA" stroke="#0978AB" stroke-width="0.8504" stroke-linejoin="round" stroke-miterlimit="3.8637" d="
	M643.919,709.755c0,1.25,2.25,2,2.25,0.25S643.919,708.505,643.919,709.755z"/>
<path fill-rule="evenodd" clip-rule="evenodd" fill="#FFFFEA" stroke="#0978AB" stroke-width="0.8504" stroke-linejoin="round" stroke-miterlimit="3.8637" d="
	M634.169,693.755c0,1,2,0,2,0S634.169,692.755,634.169,693.755z"/>
<path fill-rule="evenodd" clip-rule="evenodd" fill="#FFFFEA" stroke="#0978AB" stroke-width="0.8504" stroke-linejoin="round" stroke-miterlimit="3.8637" d="
	M584.419,366.505c1.25,0.5,1.75-3,1.75-3S583.169,366.005,584.419,366.505z"/>
<path fill-rule="evenodd" clip-rule="evenodd" fill="#FFFFEA" stroke="#0978AB" stroke-width="0.8504" stroke-linejoin="round" stroke-miterlimit="3.8637" d="
	M590.669,315.255c-1,0.5-1.25,0.75,0.25,2s3.5,2.25,3.5,2.25s0.75-2-0.25-3S591.669,314.755,590.669,315.255z"/>
<polyline fill-rule="evenodd" clip-rule="evenodd" fill="none" stroke="#0978AB" stroke-width="0.8504" stroke-linejoin="round" stroke-miterlimit="3.8637" points="
	605.218,195.893 614.196,187.95 615.529,187.867 617.696,187.617 627.696,186.284 639.946,193.95 "/>
<polygon fill-rule="evenodd" clip-rule="evenodd" fill="#FFFFEA" stroke="#0978AB" stroke-width="0.8504" stroke-linejoin="round" stroke-miterlimit="3.8637" points="
	632.363,211.867 630.279,212.867 631.613,216.367 642.613,210.784 642.029,209.2 639.779,210.534 638.946,209.2 636.613,210.034 
	637.029,211.784 633.279,213.534 "/>
<polyline fill-rule="evenodd" clip-rule="evenodd" fill="none" stroke="#0978AB" stroke-width="0.8504" stroke-linejoin="round" stroke-miterlimit="3.8637" points="
	631.113,204.2 615.613,212.784 608.946,212.784 "/>
<line fill-rule="evenodd" clip-rule="evenodd" fill="none" stroke="#0978AB" stroke-width="0.8504" stroke-linejoin="round" stroke-miterlimit="3.8637" x1="632.279" y1="206.7" x2="629.863" y2="202.034"/>
<polyline fill-rule="evenodd" clip-rule="evenodd" fill="none" stroke="#0978AB" stroke-width="0.8504" stroke-linejoin="round" stroke-miterlimit="3.8637" points="
	632.779,199.95 630.863,196.617 625.779,195.784 614.613,201.95 "/>
<line fill-rule="evenodd" clip-rule="evenodd" fill="none" stroke="#0978AB" stroke-width="0.8504" stroke-linejoin="round" stroke-miterlimit="3.8637" x1="608.976" y1="227.923" x2="631.613" y2="216.367"/>
<path fill-rule="evenodd" clip-rule="evenodd" fill="none" stroke="#0978AB" stroke-width="0.8504" stroke-linejoin="round" stroke-miterlimit="3.8637" d="
	M642.613,210.784l1.333-0.917c0,0,0.333-1.083-0.25-1.917s-2.917-3.833-2.917-3.833"/>
<polyline fill-rule="evenodd" clip-rule="evenodd" fill="none" stroke="#0978AB" stroke-width="0.8504" stroke-linejoin="round" stroke-miterlimit="3.8637" points="
	626.279,193.284 615.863,189.45 610.279,194.034 "/>
<line fill-rule="evenodd" clip-rule="evenodd" fill="none" stroke="#0978AB" stroke-width="0.8504" stroke-linejoin="round" stroke-miterlimit="3.8637" x1="626.283" y1="206.875" x2="624.529" y2="203.367"/>
<line fill-rule="evenodd" clip-rule="evenodd" fill="none" stroke="#0978AB" stroke-width="0.8504" stroke-linejoin="round" stroke-miterlimit="3.8637" x1="621.57" y1="198.108" x2="623.029" y2="200.867"/>
<path fill-rule="evenodd" clip-rule="evenodd" fill="#FFFFEA" stroke="#0978AB" stroke-width="0.8504" stroke-linejoin="round" stroke-miterlimit="3.8637" d="
	M589.529,478.451c0,0-3.751,2.999-4.167,3.416s-0.75,1.668-0.5,2.084s1.75,3.583,1.75,3.583s0.251,0.833,0.834,0.75s1.166-1,1.166-1
	s-1-1.417-0.333-2.25s2.083-1.583,3-0.5s0.167,2.333-0.583,2.583s-1.5,0.667-1.5,0.667v1.583c0,0,2.082-0.166,2.916-0.166
	s2,0.416,2,0.416l1-1.333c0,0-0.333-1.167-0.333-1.667s0.917-1.334,1.75-0.75s1.084,1.334,0.417,1.917s-0.834,1.167-0.834,1.167
	l-0.083,1.083c0,0,1.001,0,1.667,0s1.75,0.833,1.75,1.5s1.25,1.499,2.333,1.083s0.917-1,0.667-1.25s-1.917-3.416-2.167-4.083
	s-2.251-5.499-2.667-5.583s-2.583-0.25-2.833-0.667s-0.416-0.917-0.833-0.917s-0.75,0.75-0.5,1.25s0.249,1.834-0.334,1.834
	s-2.332-0.916-1.666-1.75s0.749-1.083,0.416-1.5s-0.916-0.584-1.166-0.334s-3.751,3-4.084,3.167s-0.666,0.083,0.084-0.667
	s3.416-3.084,3.666-3.5S590.179,477.93,589.529,478.451z"/>
<path fill-rule="evenodd" clip-rule="evenodd" fill="#FFFFEA" stroke="#0978AB" stroke-width="0.8504" stroke-linejoin="round" stroke-miterlimit="3.8637" d="
	M603.362,496.034c0,0-0.5,1.334-0.75,1.667s-0.166,1.166,0.334,1.166s2.749,0.583,3.416,1s1.417,0.917,1.667,1.167
	s1.083,0.583,1-0.5s-0.417-2.583-0.417-3.083s-0.332-1.501-1.166-1.584s-1.917-0.083-2.417-0.083S603.362,496.034,603.362,496.034z"
	/>
<circle fill-rule="evenodd" clip-rule="evenodd" fill="#FFFFEA" stroke="#0978AB" stroke-width="0.8504" stroke-linejoin="round" stroke-miterlimit="3.8637" cx="606.529" cy="484.617" r="0.584"/>
<circle fill-rule="evenodd" clip-rule="evenodd" fill="#FFFFEA" stroke="#0978AB" stroke-width="0.8504" stroke-linejoin="round" stroke-miterlimit="3.8637" cx="608.456" cy="484.777" r="0.584"/>
<circle fill-rule="evenodd" clip-rule="evenodd" fill="#FFFFEA" stroke="#0978AB" stroke-width="0.8504" stroke-linejoin="round" stroke-miterlimit="3.8637" cx="607.778" cy="486.387" r="0.584"/>
<circle fill-rule="evenodd" clip-rule="evenodd" fill="#FFFFEA" stroke="#0978AB" stroke-width="0.8504" stroke-linejoin="round" stroke-miterlimit="3.8637" cx="607.028" cy="487.888" r="0.584"/>
<circle fill-rule="evenodd" clip-rule="evenodd" fill="#FFFFEA" stroke="#0978AB" stroke-width="0.8504" stroke-linejoin="round" stroke-miterlimit="3.8637" cx="606.215" cy="489.575" r="0.584"/>
<circle fill-rule="evenodd" clip-rule="evenodd" fill="#FFFFEA" stroke="#0978AB" stroke-width="0.8504" stroke-linejoin="round" stroke-miterlimit="3.8637" cx="605.34" cy="491.45" r="0.584"/>
<circle fill-rule="evenodd" clip-rule="evenodd" fill="#FFFFEA" stroke="#0978AB" stroke-width="0.8504" stroke-linejoin="round" stroke-miterlimit="3.8637" cx="604.279" cy="489.241" r="0.584"/>
<circle fill-rule="evenodd" clip-rule="evenodd" fill="#FFFFEA" stroke="#0978AB" stroke-width="0.8504" stroke-linejoin="round" stroke-miterlimit="3.8637" cx="605.466" cy="487.741" r="0.584"/>
<circle fill-rule="evenodd" clip-rule="evenodd" fill="#FFFFEA" stroke="#0978AB" stroke-width="0.8504" stroke-linejoin="round" stroke-miterlimit="3.8637" cx="606.091" cy="486.241" r="0.584"/>
<path fill-rule="evenodd" clip-rule="evenodd" fill="#FFFFEA" stroke="#0978AB" stroke-width="0.8504" stroke-linejoin="round" stroke-miterlimit="3.8637" d="
	M598.279,462.325c0,0.312-0.25,0.812-0.5,0.938s-0.312,0.875,0,1.438s0.688,1.625,1.188,1.938s1.438,0.625,1.5,0.938
	s0.062,1.5,0.062,1.5s0.188,0.812,0.5,0.438s1.188-1.438,2.125-1.062s1.188,0.375,1.125-0.188s-0.562-1.188-0.875-1.812
	s-0.75-1.688-2.25-1.938s-1.438-1-1.562-1.312s-0.688-0.812-0.688-0.812L598.279,462.325z"/>
<path fill-rule="evenodd" clip-rule="evenodd" fill="#FFFFEA" stroke="#0978AB" stroke-width="0.8504" stroke-linejoin="round" stroke-miterlimit="3.8637" d="
	M584.841,444.388c-0.438-0.188-1,0.25-0.312,0.562s1.812,1,2.062,1.188s0.75,0.438,1.062,0.438s0.938-0.438,0.75-0.75
	s0-0.875,0.562-0.75s0.875-0.125,0.938-0.438s0.312-1.375-0.125-1s-1.812,0.875-2.25,0.5s-0.938-0.062-1.125,0.188
	S584.841,444.388,584.841,444.388z"/>
<polygon fill-rule="evenodd" clip-rule="evenodd" fill="none" stroke="#0978AB" stroke-width="0.8504" stroke-linejoin="round" stroke-miterlimit="3.8637" points="
	596.863,517.117 592.529,519.117 595.113,524.867 596.113,524.284 593.946,519.534 595.696,518.617 597.029,521.117 
	598.529,520.367 "/>
<path fill-rule="evenodd" clip-rule="evenodd" fill="none" stroke="#0978AB" stroke-width="0.8504" stroke-linejoin="round" stroke-miterlimit="3.8637" d="
	M635.779,522.201c-0.213,0.282-0.75,1-0.25,1s1.417-0.251,1.667,0.166s0.749,0.834,0.333,1.084s-0.166,0.75-0.166,0.75
	s0.916,0.25,1.416-0.5s-0.166-2.668-0.916-2.834S636.098,521.776,635.779,522.201z"/>
<path fill-rule="evenodd" clip-rule="evenodd" fill="none" stroke="#0978AB" stroke-width="0.8504" stroke-linejoin="round" stroke-miterlimit="3.8637" d="
	M0.006,392.261l2.197-0.07l3.32,1.27l1.523,1.473l0.078,1.675l-3.006,1.242l-1.115,1.529l2.927,2.815l0.84,5.385l1.155,1.819
	l2.244,1.126l6.797,5.889l2.271,5.184l2.676,3.176l2.719,6.51l6.455,5.399l3.754,8.099l4.699,0.981l1.664,0.015l2.811,3.623
	l3.319,1.848l1.051,1.574l-0.382,0.592l-2.729-0.535l-0.736,1.068l0.447,2.151l3.018,5.298l0.434,2.035l3.084,1.01l1.247,1.271
	l-0.027-2.801l-1.509-2.54l0.276-1.906l-1.982-10.524l-2.639-6.48l-4.868-1.631l0.684,2.525l1.181,0.606l1.155,2.411l-0.735,0.822
	l-0.472,0.23l-4.344-4.85l-0.316-2.382l1.536-6.54l-1.011-3.939l-2.783-4.014l-1.797-2.252l-2.73-0.896l-1.352-3.739l0.289-2.252
	l0.971-0.576l6.693,0.273l1.352-1.761l0.185-2.743l3.384,3.421l2.299,3.884l0.76,3.363l-0.523,2.136l-2.127-1.01l-2.008-0.015
	l0.407,4.201l2.835,1.949l3.504,4.951l3.15,1.356l3.855,5.933l6.393,4.967l5.499-0.145l1.063,0.621l8.267,6.063l4.687,5.297
	l3.646,2.237l7.219,8.172l0.551,1.804l-1.035,3.565l0.562,6.338l4.789,4.056l2.271,7.146l0.959,2.975l-0.447,3.32l7.533,14.406
	l3.202,10.697l-1.431,4.98l0.119,0.52l1.705,7.881l-5.656,11.926l0.301,4.662l0.133,2.035l1.771,5.774l2.623,5.081l3.965,3.913
	l2.82,1.516l5.435,7.058l2.559,12.242l-1.339,11.073l-4.502,3.694l-1.245,2.238l0.55,1.935l2.559,7.218l2.703,6.756l1.091,8.979
	l0.276,3.48l1.783,4.46l2.888,4.013l-3.911,3.955l0.08,6.814l2.387,2.656l4.764,2.642l2.927,0.273l0.761-1.082l-1.718-2.714
	l-3.11-4.375l0.893-2.612l-0.552-6.567l0.866-1.415l2.506-0.173l1.287,0.98l1.219,3.971l2.482,1.818l0.549,0.419l2.967,5.197
	l4.883,4.907l2.572,6.757l4.186,3.926l2.494,6.323l1.877,4.764l3.398,3.047l4.279,3.839l2.872,5.067l0.774,1.357l1.182,4.807
	l2.992,3.146l0.604,0.649l2.729,5.082l0.735,3.724l-0.919,12.617l4.737,10.524l1.745,1.357l3.321,0.446l4.895-1.184l4.448,2.975
	l2.611,4.604l2.822,1.271l1.155,1.343l0.433,1.688l-0.604,2.916l-0.079,0.404l1.682,4.1l-0.947,4.158l1.168,5.398l2.154,4.359
	l5.314,5.516l0.629,3.349l-0.879,5.183l-0.656,3.854l1.207,8.502l1.852,6.497l2.283,3.638l0.523,2.41l2.18,2.916l2.061,3.047
	l-0.604,4.994l1.155,2.801l1.299,3.119l3.072-3.985l0.34-0.924l0.433-1.198l6.458-6.625l2.283-0.059l5.091-0.101l6.484-1.387
	l1.696-0.884l11.992-6.247l6.402-4.245l-0.944-4.792l2.493-8.531l0.814-2.815l0.104-0.361l0.38-1.312l-0.537-1.805l-0.564-0.723
	l-4.488-5.744l-1.916-8.648l1.982-2.93l-0.04-3.104l1.575-5.457l-1.878-5.543l3.019-5.875l-3.004-7.854l0.405-1.775l-3.95-7.752
	l0.355-1.415l0.171-0.707l-0.907-1.588l-11.508-10.105l-1.248-6.481l-0.668-1.371l-0.577-1.17l-5.669-6.121l-5.039-7.42
	l-0.855-3.479l0.814-4.158l-1.09-3.594l0.486-5.14l1.129-2.007l0.275-1.803l0.303-1.879l2.44-2.799l4.37-3.104l-1.771-9.354
	l-2.691-6.28l-0.248-4.07l-3.019-2.945l-1.075-2.612l-1.168-2.83l-7.232-6.034l-2.35-1.141l-1.771-5.066l1.233-6.698l0.659-3.599
	l0.051-0.27l0.877-10.842l-1.352-7.449l-2.137-4.836l-1.746-10.898l1.271-2.845l-1.889-5.413l1.404-8.33l-1.496-6.48l-0.184-2.656
	l-0.499-7.637l1.051-3.783l-0.8-5.875l0.785-2.728l1.852-2.339l0.17-0.736l0.629-2.699l-1.744-10.798l-0.119-2.238l-0.523-9.715
	l-0.316-1.804l-0.195-0.117l-1.325-0.764l-0.198-1.791l0.895-2.367l0.42-6.67l-0.238-1.14l-1.141-5.717l1.088-4.864l-3.688-5.342
	l1.641-3.666l0.066-2.383l-1.615-1.949l-1.783-0.533l-0.447-1.328l2.901-5.891l-0.749-3.002l1.077-3.84l1.417-5.053l0.052-0.346
	l1.522-9.527l2.152-5.934l0.092-0.26l0.197-0.55l-0.406-1.27l-1.299-4.042l-0.5-1.545l-0.223-0.101l-0.957-0.419l-1.812,0.549
	l-0.551-1.674l2.559-2.889l3.988-4.504l1.208-1.356l5.25-4.085l0.249-0.188l0.328-0.101l3.162-0.996l3.098,0.549l1.404,1.978
	l3.439,4.851l1.875,10.437l2.836,0.909l0.708,1.56l0.999,2.194l-0.211,1.892l-0.276,2.757l1.588,7.55l0.106,0.491l4.133,1.905
	l4.094-1.198l0.723-0.78l1.98-2.136l-0.184-1.791l-1.508-1.947l-2.822-1.633l-2.416-3.65l0.75-1.301l2.873-0.158l0.499-0.562
	l0.735-0.838l-0.447-0.636l-4.947-7.058l1.484-2.325l-0.907-2.165l-1.272-1.487l-0.919-1.083l-1.575-3.752l-1.705-0.174
	l-1.404-0.145l-1.154-1.588l1.863-2.453l1.811-5.327l2.033-0.059l2.338-4.735l0.576-1.168l-1.232-3.133l1.496-2.108l-0.172-2.626
	l-4.251-10.986l0.656-2.382l-0.563-1.083l-4.543-0.477l-5.234,3.552l-2.391-0.304l-3.24-4.027l1.535-1.849l1.193-1.415l1.418-4.144
	l2.035-0.188l3.045-1.948l1.271,1.819l1.312,0.043l2.494-3.638l3.95-0.13l3.767,3.97l6.915,7.275l0.735-0.692l-2.191-4.1
	l-3.07-1.732l-1.982-2.656l-1.628-2.18l0.015-0.967l2.139,0.679l1.903,0.606l3.608,4.705l0.156-1.891l1.562,0.03l1.852,2.656
	l0.42-2.613l-4.476-3.42l-4.554-2.281l-0.184-0.087l-2.205-3.493l-0.105-0.722l1.93-0.679l0.59-0.953l0.144-0.231l-0.642-3.233
	l0.748-1.531l2.9,4.591l1.535,0.505l1.575-1.04l2.86,0.419l1.403,1.689l0.656,2.886l1.654,1.098l1.089-0.563l-0.197-2.396
	l0.84-0.101l1.234,0.924l0.893,0.664l-2.927,16.023l-1.982,4.215l-0.301,0.606l-2.952,2.916l-1.207,5.212l1.232,2.786l0.723,0.116
	l2.859,0.461l0.801,4.086l0.039,0.23l-2.151,8.777l3.031,7.376l-0.064,2.382l2.257,0.636l0.918,3.104l3.005,0.563l1.128,0.952
	l1.418-1.111l0.368-4.144l-1.614-0.288l0.25-0.909l0.957-0.91l1.863-0.174l0.893,1.185l-0.525,1.53l-0.498,1.458l2.887,4.014
	l-1.324,2.958l-2.191,1.502l-2.572-2.67l-1.443,0.447l-4.922,7.521l0.551,2.164l2.113,1.474l-1.745,3.666l2.072,3.609l1.431,0.158
	l1.365-2.006l0.275-1.906l1.456-1.516l4.528,0.924l2.441,3.147l1.783,0.158l0.395-1.545l-3.267-3.998l0.261-0.822l3.871,3.291
	l1.091-0.693l-4.751-7.361l4.607-3.018l1.232-1.516l1.824-2.224l-2.493-6.611l-1.183-0.274l-0.512,1.312l1.26,3.119l-1.443,0.217
	l-2.309-3.639l0.879-2.006l2.664-0.188l2.348-2.439l-2.191-3.162l-2.729-0.562l-0.459-1.083l1.784-3.768l-0.224-1.126l-0.092-0.448
	l1.143-2.468l-0.539-2.05l2.219-2.324l0.668-2.613l-0.26-0.592l-1.209-2.786l3.137-5.413l1.969-1.733l-1.154-1.588l-0.643-3.002
	l2.807-1.833l1.248-2.599l0.576-3.681l1.168-0.202l1.746,3.868l3.332,0.693l1.72,2.685l0.288,2.743l4.385,1.443l4.028-2.628
	l2.167-2.714l0.76-2.05l-1.707-4.907l2.323-3.464l1.327-1.979l-0.408-1.631l-1.391-0.043l-2.18,2.945l-1.168,0.187l-7.361-2.079
	l-0.484,0.679l2.965,1.487l-0.473,0.447l-1.613-0.058l-3.414-2.179l-3.096,1.588l-1.456,0.909l-2.966-1.039l-1.839-2.916
	l-4.015-1.544l-0.945-1.343l-5.053-7.305l-1.666-8.762l-1.942-3.522l1.876-2.93l-1.496-11.39l-0.131-0.476l-1.613-5.544l3.359-4.085
	l0.484-0.592l1.812-5.197l1.575-0.549l1.52-1.519l2.549-2.551l0.118-3.523l-1.562-0.938l-3.556-10.019l0.656-6.308l1.508-2.584
	l3.27-1.573l2.229-2.339l3.689-7.78l1.102-1.04l3.098,0.809l2.939,2.107l3.24,3.912l0.671,1.934l1.759,1.357l1.561,4.475
	l-1.076,2.05l-1.706,3.248l0.067,1.791l-1.471,1.155l-0.065,2.497l3.411-2.165l4.424,0.115l0.814-3.321l5.354-2.583l1.01-2.007
	l-1.232-3.147l0.184-2.381l3.831-3.955l0.42-2.367l-1.731-2.324l0.904-2.354l-1.063-5.428l-1.495-1.573l-1.889-0.895l-6.733,0.52
	l-1.197-1.277l-0.312-0.311l-1.641-1.603l0.25-4.417l1.455-5.327l-0.84-3.97l1.839-1.385l2.151-4.359l-0.199-0.399l2.391,0.984
	c0,1.75,1.25,2.5,3.25,1s3.75-4.25,3.25-5.25s-1.25-1.75-2.5-2s-4.873-0.988-3.661-1.857l0.449-0.275l2.257-3.392l-0.078-1.443
	l2.926-1.588l3.478-4.562l1.063-7.854l-1.168-9.701l0.367-8.95l-2.086-2.569l-0.761-6.958l1.062-3.551l2.179-0.895l1.731,4.417
	l0.395,1.025l-0.538,2.136l1.51,1.833l1.665,0.52l0.552,1.935l1.063,0.389l1.392-2.237l3.647-1.92l2.835-2.671l0.341-7.637
	l4.238,2.988l0.854,3.494l-2.534,4.707l0.539,0.433l0.172,0.13l1.639,1.299l3.832-3.595l0.224-1.876l0.079-0.621l-0.959-2.194
	l-1.062-2.411l0.67-2.613l-2.718-1.386l-0.577-1.097l1.129-10.12l1.759-2.699l0.236-3.812l-0.564-1.688l1.548-3.422l-0.171-3.768
	l-3.2-1.067l0.025-0.736l4.881-2.021l11.43-4.808l3.676-2.281l1.168-3.075l1.221-0.924l1.758-2.338l1.432,0.289l2.336,2.454
	l1.693-0.548l4.684-4.288l2.114-1.962l2.321,2.454l0.184,1.919l1.891,1.126l2.18-0.649l2.676-0.996l5.617-3.061l2.48-2.554
	l2.111-2.555l-0.668-1.573l1.522-2.831l-0.251-3.58l1.931-4.489l9.854-6.596l0.211-0.145l0.709-0.967l1.418-1.963l-0.539-1.919
	l0.944-3.567l1.222-0.678l0.525,2.411l1.192,0.505l6.733-0.275l5.234-1.862l2.352,1.501l3.148-0.506l2.992-3.724l2.033-3.523
	l1.955-0.895l5.906-0.418l3.924,5.371l0.382-0.578l3.568,1.184l2.81,2.353l6.994,0.708l0.249,0.029l1.155,0.115l2.809,2.483
	l4.869,1.949l1.036,1.574l9.802,5.327l12.352,8.877l-1.771,3.046l0.549,1.689l-0.682,6.077l1.521,1.603l-1.889,6.741l1.023,5.659
	l0.525,0.562l5.17,5.587l-0.184,1.79l1.365,2.786l4.384,5.745l3.911,1.559l3.988,3.002l0.827,8.272l-1.353,4.489l1.471,2.917
	l-0.538,5.832l2.179,3.06l0.54,0.27l9.146,4.696l3.635,2.989l4.895,0.88l11.267-1.677l6.7-1.095l7.925-0.405l6.789,1.384
	l4.586,3.616l2.75,2.75l4.625,3.75l3.113,0.916l8.164,3.031l2.951,1.473l0.838,1.32l1.018-1.657l1.855-1.641l1.228,1.474
	l3.833-3.333l1.5,0.917l4.834-1.333l2,2.25l-1.5,1.333l-1.5-1.667l-2.167,1.583l-1.083-1.167l-4.167,2.833l1.167,1.583l2.916-1.667
	l2.334,3.25l-3.75,2.083l1.166,2.167l-3.083,6.583l-5.083,0.333c0,0-0.083,4,0,4.75s1.249,3.833,2.166,5s2.433,3.744,2.433,3.744
	l0.71,1.808l1.627,4.141l0.223,5.14l1.537,5.529l0.682,10.148l1.156,2.699l2.348,5.514l-0.078,7.507l-1.117,1.401
	c0,0-1.129,3.508-1.879,4.508s0,3.75-0.25,5.75s-1.25,1.75-2.5,2s-2.5,1.25-3.25,2.5s-1,1.75-3.25,1.25s-2.25-2.25-2.25-3.25
	s1.25-2,2.5-3.25s0.5-2.5-1.324-3.402c-1.826-0.902-1.426-0.348-2.176,0.652s-1.5,3-2.5,4s0,4.5-1,5.5s0,4.168,0,4.168l-3.353-0.823
	l-1.168-1.212l-0.171-2.512l-1.443,0.433l0.025-1.069l-2.205-2.8l-1.706,1.501l-3.216-0.909l-0.943-5.601l-1.379,7.449l0.67,1.689
	l1.852,0.606l2.887,1.66l0.773,2.281l1.627,1.833l1.93-0.304l6.104,4.447l2.1,2.324l0.432,1.559l1.287,0.606l1.154,0.26l2.52,2.425
	l0.959-0.332l0.039-1.198l1.221-0.924l-0.316-1.559l-2.965-1.386l1.719-1.27l0.025-1.04l-0.236-2.396l0.815-1.703l-0.46-1.271
	l4.408,1.849l1.223,0.504l0.42,5.5l2.203,2.107l0.301,1.574l-4.055,9.297l-1.324-0.015l-0.867,1.401l-0.184,6.915l-3.084,3.739
	l-1.416-0.751l-1.878-1.357l-1.784,0.231l-6.641,0.896l-1.024-1.329l1.064-1.067l2.546-0.881l0.592-0.202l2.611,0.131l0.234-2.498
	l-1.023-1.876l-0.223-0.419l-2.18-0.836l-0.642-1.184l1.614-1.04l0.891-0.578l-0.746-0.664l-1.077,0.058l-2.585,0.144l-0.537-0.692
	l-3.479,0.505l-1.889-1.111l-5.065,1.53l-4.517,2.599l-0.328,0.044l-2.531,0.39l-2.822,2.439l0.576,0.967l5.197,2.757l3.229-0.273
	l1.418,0.75l-1.982,2.93l0.631,2.989l1.811-0.693l0.865-1.559l0.092-2.8l2.547-1.04l2.219,0.419l-0.42,2.079l-2.441,2.107
	l-0.984,2.541l-0.604,4.865l0.484,4.561l1.156,1.574l1.758,1.241l0.484-0.346l-2.255-5.428l1.128-1.992l1.471-1.155l1.639,1.228
	l4.66,0.13l0.904,2.165l-1.613,2.339l-0.079,3.104l0.944,3.464l-1.246,2.223l-1.404,6.843l-1.232,0.981l-2.52,2.007l-5.238,1.184
	l-1.68-3.364l0.172-2.063l-1.364-0.506l0.497-1.328l-4.055,0.622l0.078,1.659l-1.916,4.721l1.089-0.679l1.681,0.158l-0.789,2.729
	l-1.928,0.418l-8.242,2.988l-2.822,7.911l1.248,2.079l-1.063,3.42l0.866,6.613l1.771,0.764l1.576-0.779l0.053,2.151l0.294,5.154
	l-3.833,0.417l0.333,2.083l5.75-2.083l0.333,1.166l-6.5,2.584l-0.083,1.333l-0.249,0.916l0.083,0.556l-0.58,0.217l-2.479,4.777
	l-2.585,2.96l-1.812,8.575l-0.027,0.836l3.007,3.205l1.548,0.289l3.451,4.172l-0.131,7.998l2.822,1.168l1.455-0.678l5.264,3.883
	l1.051,4.216l2.4,3.306l2.266,5.508l0.099,0.681c0,0-0.5,1-0.667,1.583s0.333,2.25,0.333,2.25s1.75-1.333,1.917-1.667
	s0.667-1.416,1.25-1.5s0.667,0.667,0.75,1.5s1.833,5.084,2.167,5.75s-0.417,2.75-0.417,2.75s-0.333,1.25-0.333,1.917
	s-0.25,3.417-0.25,3.417s0,0-0.584-0.084s-0.333-1.25-0.25-1.666s0.167-4,0.167-4.667s-0.333-1.333-2.917-1.583
	s-2.833,0.833-3.083,1.583s0.333,2.75,1.417,2.833s2.083-1,2-1.833s1.083-0.5,1.416,0.417s-0.166,4.25-0.166,4.5
	s-3.334-0.084-4.167-0.084s-2.083-0.833-2.833-2s-0.667-2.916-0.417-4.166s-0.833-0.834-1.5-0.584s-0.667,0.75-0.667,1.084
	s-0.083,1.166-0.5,1.833s0.083,1.5,0.75,1.833s1.083,1.25,1.167,2s0.583,1.084,1.167,1.084c0.583,0,9.333,0.416,9.333,0.416
	s-0.417,1.167-0.75,2.167s0.083,2.25,0.75,3.583s0.417,1.667-0.25,2.417s-0.833,2-0.917,2.833s0.744,2.409,0.744,2.409
	s0.257,0.341,0.507,0.508s0.166,0.667-0.25,0.917s-1,1.416-1,1.666s-0.417,0.75-0.834,0.5s-0.833,0.167-1.083,0.417
	s0.667,1.5,0,1.667s-0.5,0.583-0.417,0.833s0.667,0.667,1,0.833s0.834,2.167,1,2.917s-0.583,1.75-0.916,1.917s-0.667,0.583-1,1
	s-0.75,2-0.75,2l2.25,0.25c0,0,0.333,1,0.75,1.833s-0.084,1.083-0.334,1.083s-0.916,1-1,1.25s-0.333,1.25-0.75,1.584
	s-1.666,1.083-2.25,1.583s-0.25,2.667,0,3s1.25,1.25,1.917,1.333s1.917,0,2.583-0.333s1.75-0.25,2-0.083s1,1.833,1.834,3
	s-0.417,1.416-1.167,2.083s-1.833,1.5-2.083,2.083s-1.75,1.084-2.25,1.25s-1.334,0.584-2.25,1.167s-2,1.917-2.084,2.167
	s-0.166,1.166-0.833,2.25s0.333,3.083,0.917,3.916s2.583,2.084,3.5,2.084s1.666-0.584,1.75-0.834s1.333,0,1.75,0.417
	s1.083,0.25,1.333-0.083s0.25-1.584,0.417-1.917s0.583-0.833,1-0.833s1.083,0.833,1.083,0.833l1.083-0.083
	c0,0-0.583-0.917-0.25-1.25s1,0.25,1.084,0.583s0.75,2.25,1.083,2.75s-0.417,0.75-0.583,1.167s0.833,1.5,1.25,1.916
	s1,0.75,1.583,0.75s1.167,0.667,1.583,0.75s2-2.416,2.084-2.666s1-0.334,1.5-0.667s0.583-0.583,1.333-0.833s0.25-1.25,0.25-1.25
	c0-0.416,0.75-0.167,1.167,0.25s0.583,0.583,1.083,1.083s0.833,0.25,1.75,0s0.417-2.417,0.417-2.417l1.5-0.25c0,0,0,2.084,0,2.75
	s0,1.25,0.333,1.917s1.167,2.083,1.667,3s0.833,0.667,0.916,0.333s0.667-2,0.667-2l-1.167-3.5l2.084-0.666l1.25,1.083l1,2.333
	l3-3.583l0.75-2.583l2.583-0.667l10.167,25.083l-3.167,1.084l-2.5-3.667l-1.583,1.083l1.25,3.417l-7.934,4.406l0.479,2.898
	l0.976,5.885l7.074,7.016l0.643,0.649l-0.156,5.255l0.461,2.688c0,0-0.543,2.286-0.543,3.119s-0.667,4.667-1.167,5.5
	s-1.706,3.446-1.706,3.446l-0.799,4.014l-0.092,0.446l0.603,3.479l3.884,5.038l0.158,2.383l-0.486,1.674l-0.721,2.469l0.537,4.966
	l0.551,5.11l0.527,2.396l-0.814,3.623l-0.172,0.766l-0.209,2.627l0.865,3.668l0.184,0.778l-1.652,3.177l-0.786,2.236l-2.101,2.195
	l-0.631,4.764l0.355,3.709l1.127,1.949l1.144,6.183c0,0,1.067,0.07,1.567-0.096s1.667-0.5,5.083-0.5s6,1.833,6,1.833l0.417,1.75
	l-2.25-0.583l1,4.416l-2,1.167c0,0-0.083,1.917-0.083,2.25s-3.667,1.417-3.667,1.417l0.583,2.583l-1.313,0.609l-1.149,4.436
	l-0.657,2.512l-5.697,10.322l-8.227,0.433l-1.59,1.371l-3.556,6.813l2.44,1.587l3.166-4.666l3.25,1.083l-4.166,5.25l0.75,0.75
	l-0.861,1.641l-6.259,9.34l-6.626,13.744l-7.416,8.357l-1.994,3.146l-4.765,7.607l-7.532,4.765l-2.1,2.438l-3.398,9.788l-2.627,4.39
	l-2.65,4.402l-1.705,5.196l0.289,5.978l-5.106,10.927l0.717,6.856l0.006,0.218l-1.103,4.979l-13.124,20.817l-7.126,26.388
	l-3.268,6.093l-3.477,1.198l-2.77,4.691l-0.484,2.107l-4.778-0.722l-4.686,1.991l-6.022-0.793l-1.037,6.771l-2.258,3.753
	l-0.366,4.402l2.073,2.541l-3.164,5.904l0.395,2.281l-1.378,2.454l-2.546,2.063l-5.656,2.57l-5.854,6.958l-1.285,1.53l-1.759-0.418
	l-0.288-2.397l0.865-4.979l-0.512-2.527l-3.084-3.796l0.027-4.778l-2.207-1.617l2.691-2.656l1.784-0.303l2.679,1.631l4.002-6.02
	l2.18-3.262l1.664-11.693l-0.812-1.098l-1.287,0.391l-1.26,5.932l-2.217,2.701l-1.404,4.012l-1.26-0.693l1.497-3.002l1.481-15.678
	l-3.004,0.751l-1.549,1.66l-0.578,4.678l-1.076,0.39l-1.272-0.693l-0.604-0.332l-1.588-0.852l-0.932,0.779l0.196,2.18l-3.268-0.057
	l-2.678-2.657l-1.469-0.476l-0.315,3.189l-1.063-0.042l-3.924-6.149l-1.876,1.688l-3.269,8.646l-0.801-1.097l0.066-2.354
	l1.771-1.861l1.01-4.865l1.799-0.822l-1.404-12.646l-1.627-0.13l0.248,4.808l0.947,2.583l-1.091,0.23l-0.748-1.356l-1.063-0.245
	l-0.865,7.016l-2.639,5.572l-0.052-6.337l-1.128-1.704l-1.786,0.072l-4.815,2.47l-0.156,0.302l-1.104,2.051l-4.686-2.181
	l-3.004,1.227l-1.747,3.047l-2.612,0.158l-0.996,1.4l-1.482-1.717l1.547-3.913l-0.393-1.067l-4.016,5.485l-0.459,3.449l-2.311,1.604
	l2.088,1.978l0.17,2.267l-1.087,0.923l5.456,3.624l0.854-1.039l2.441,1.747l2.951,0.316l2.639-0.866l1.859,0.369l0.884,0.181
	l1.509,0.303l4.33-2.498l1.771,0.535l1.682,3.276l4.553-3.508l0.827,0.88l-1.561,2.08l0.537,2.785l2.296,1.154l2.139-0.36
	l1.223,1.545l1.548,5.097l3.491-1.56l0.604-4.159l1.062,0.029l1.143,1.344l1.548,3.752l-3.767,2.874l-3.332,8.488l1.431,11.505
	l-0.827,3.782l0.524,5.991l-2.848,3.594l-0.472,0.592l-0.04,1.213l-0.013,0.578l1.392,4.576l1.561,1.472l0.407,0.39l0.107,0.073
	l0.417-0.231l0.904-0.275l2.862-0.389l4.37-3.682l2.992-0.865l2.848-4.201l3.727-1.675l1.955-1.963l1.943-1.618l0.407-1.299
	l-1.286-0.865l2.256-3.754l-1.141-1.588l-1.26-1.473l4.592-6.77l3.781-3.466l5.484-1.01l2.782-1.704l8.505-10.35l1.168-3.422
	l0.38-4.532l-2.283-2.815l-0.276-2.512l0.617-0.822l4.75-0.202l-0.209,3.089l1.929,2.699l2.862-0.75l3.2,0.346l1.825,2.094
	l1.902-3.768l-0.761-2.166l0.958-0.562l4.147,0.361l5.196,8.17l-0.645,1.66l0.788,3.768l-1.863,4.07l0.747,2.643l1.379,1.242
	l2.271-0.636l1.232-1.401l-0.497-2.756l4.986-0.578l2.269-0.26l1.747-2.686l1.955,1.733l0.919,4.691l2.27,3.291l1.287,0.521
	l1.811-1.256l2.875,3.088l0.182,1.56l-3.635,2.382l-3.792,0.116l-1.588,1.256l0.276,4.142l-1.471-0.475l0.066-1.43l-3.189-0.592
	l-1.943,1.371l-1.744-0.896l-1.549,0.318l-4.213-0.997l-4.736,6.785l-0.46,6.9l-3.714,1.313l-0.748-2.771l-2.112-0.418l-2.651,1.342
	l-1.458,0.91l-2.505,4.445l-1.443,4.374l1.508,5.067l-2.914,6.106l-4.803,2.107l-2.795,5.63l-0.865,1.415l-2.626,0.52l-2.704,3.133
	l-1.666,4.475l-2.453-1.385l-1.771-0.058l-3.255,1.688l-2.835,3.84l-7.506,5.255l-6.482,6.958l-1.879,3.045l-1.469,5.789l-1.092,4.254"/>
<path fill-rule="evenodd" clip-rule="evenodd" fill="none" stroke="#646464" stroke-width="1.7008" stroke-linejoin="round" stroke-miterlimit="3.8637" d="
	M481.945,475.118v43l-2.167,1.833h-19l1,3.667c0,0,8,14.499,8.667,15.666s7.167,17.834,7.167,17.834l8.167,21
	c0,0,0.5,1.999,0.333,3.166s0,3.667,0.167,4.167s0.833,2.5,0.833,2.5s-58.167,23.666-59.667,24.333s-5.167,2.833-6.333,3.5
	s-9.5,5.667-9.5,5.667s-6.333-9.666-7-10.833s-3.5-3.501-5.333-4.334s-17.667-9.166-21-9.833s-37.833-7.667-37.833-7.667v41.167
	l-10,5.5h-92.727"/>
</svg>
